<?xml version="1.0" standalone="no"?>
<!DOCTYPE svg PUBLIC "-//W3C//DTD SVG 1.1//EN" "http://www.w3.org/Graphics/SVG/1.1/DTD/svg11.dtd" >
<svg xmlns="http://www.w3.org/2000/svg" xmlns:xlink="http://www.w3.org/1999/xlink" version="1.1">
<metadata>
Created by FontForge 20161116 at Mon Nov 17 02:31:15 2014
 By Jimmy Warting
Copyright (c) 2010 by Pablo Impallari (www.impallari.com)
</metadata>
<defs>
<font id="Lobster-Regular" horiz-adv-x="1034" >
  <font-face 
    font-family="Lobster"
    font-weight="400"
    font-stretch="normal"
    units-per-em="2048"
    panose-1="2 0 5 6 0 0 0 2 0 3"
    ascent="1638"
    descent="-410"
    x-height="1024"
    cap-height="1534"
    bbox="-514 -512 3172 2048"
    underline-thickness="102"
    underline-position="-205"
    stemh="198"
    stemv="295"
    unicode-range="U+000D-FB04"
  />
<missing-glyph horiz-adv-x="1659" 
d="M0 -512l547 2560h1112l-549 -2560h-1110zM612 1966l-516 -2396h948l517 2396h-949zM961 1094c0 75 -33 118 -89 118c-57 0 -100 -45 -100 -108c0 -43 25 -84 62 -103v-8c-31 -30 -68 -41 -99 -41c-57 0 -94 45 -94 111c0 123 117 219 270 219c144 0 228 -70 228 -182
c0 -226 -340 -271 -340 -514h-86c0 256 248 303 248 508zM809 389c0 -51 -33 -82 -82 -82c-51 0 -82 31 -82 82c0 49 31 82 82 82c49 0 82 -33 82 -82z" />
    <glyph glyph-name="E_x" unicode="Ex" horiz-adv-x="1632" 
d="M1632 367h86c-114 -334 -311 -379 -422 -379c-131 0 -188 80 -235 270c-148 -174 -428 -291 -658 -291c-213 0 -389 101 -389 357c0 215 142 469 379 530c-88 64 -125 154 -125 246c0 211 187 440 449 440c164 0 293 -88 293 -256c0 -123 -70 -213 -152 -213
c-37 0 -70 19 -96 55c49 17 90 107 90 179c0 84 -57 114 -113 114c-123 0 -209 -145 -209 -289c0 -120 60 -235 207 -274c-219 -49 -366 -301 -366 -489c0 -148 88 -209 209 -209c149 0 335 92 454 227l-102 561h289l65 -364c123 131 195 252 195 325c0 11 0 19 -2 25
c-15 -2 -25 -4 -35 -4c-72 0 -96 51 -96 114c0 64 51 97 114 97c92 0 140 -82 140 -183c0 -133 -91 -274 -293 -487l18 -102c16 -76 29 -181 121 -181c80 0 154 76 184 181z" />
    <glyph glyph-name="F_i" unicode="Fi" horiz-adv-x="1487" 
d="M516 0h-295l295 1368h-22c-164 0 -285 -86 -285 -424c0 -104 29 -123 29 -139c-142 0 -220 51 -220 199c0 272 193 532 699 532c139 0 289 -41 473 -41c88 0 184 8 297 39c-27 -148 -92 -317 -254 -317c-170 0 -260 71 -430 114l-88 -409h258l-33 -152h-258zM1487 367h86
c-115 -334 -322 -379 -430 -379c-123 0 -219 73 -219 245c0 37 6 82 16 134l139 657h295l-147 -696c-6 -23 -8 -45 -8 -66c0 -57 26 -76 84 -76c79 0 153 76 184 181z" />
    <glyph glyph-name="IJ" unicode="IJ" horiz-adv-x="1358" 
d="M735 -70l336 1538l307 68l-307 -1454c-59 -285 -192 -506 -512 -506c-229 0 -330 119 -330 281c0 55 11 102 31 143h-67l296 1391c-180 -74 -286 -226 -286 -447c0 -104 28 -123 28 -139c-141 0 -219 51 -219 199c0 272 377 532 719 532c31 0 55 -2 82 -4l-301 -1413
c84 -13 137 -62 137 -131c0 -19 -4 -41 -14 -68c-31 31 -66 47 -100 47c-74 0 -134 -67 -134 -149c0 -80 56 -140 146 -140c80 0 145 48 188 252z" />
    <glyph glyph-name="T_h" unicode="Th" horiz-adv-x="1989" 
d="M1989 367h86c-115 -336 -273 -379 -381 -379c-181 0 -242 114 -242 231c0 139 92 391 92 522c0 70 -24 105 -74 105c-71 0 -124 -80 -155 -176c-35 -181 -76 -398 -125 -670h-295l281 1307c-84 6 -175 20 -271 34l-289 -1341h-294l292 1360c-229 -10 -411 -94 -411 -418
c0 -104 28 -123 28 -139c-141 0 -219 51 -219 198c0 273 215 533 721 533c92 0 346 -53 553 -53c100 0 191 10 248 49c-49 -92 -78 -148 -172 -617c88 101 178 119 244 119c131 0 227 -67 227 -231c0 -166 -98 -414 -98 -529c0 -51 18 -86 82 -86c88 0 129 74 172 181z" />
    <glyph glyph-name="T_i" unicode="Ti" horiz-adv-x="1524" 
d="M616 0h-294l294 1374c-28 4 -55 6 -81 6c-189 0 -332 -100 -332 -438c0 -104 28 -123 28 -139c-141 0 -219 51 -219 198c0 273 193 533 699 533c84 0 325 -33 526 -33c96 0 180 6 236 29c16 -51 22 -96 22 -135c0 -166 -137 -205 -211 -205c-96 0 -213 55 -387 115z
M1524 367h86c-115 -334 -322 -379 -430 -379c-123 0 -219 73 -219 245c0 37 6 82 16 134l139 657h295l-147 -696c-7 -23 -9 -45 -9 -66c0 -57 27 -76 84 -76c80 0 154 76 185 181z" />
    <glyph glyph-name="a_x" unicode="ax" horiz-adv-x="1841" 
d="M1841 367h86c-115 -334 -311 -379 -422 -379c-129 0 -190 80 -237 274c-156 -196 -316 -274 -482 -274c-114 0 -211 69 -233 192c-64 -96 -160 -192 -307 -192c-140 0 -273 86 -273 329c0 279 170 717 527 717c116 0 166 -45 166 -104v-15l22 109h295l-147 -696
c-5 -19 -7 -37 -7 -52c0 -51 21 -90 89 -90c108 0 241 90 327 193l-119 645h289l80 -442c123 131 195 252 195 325c0 11 0 19 -2 25c-15 -2 -25 -4 -35 -4c-72 0 -97 51 -97 114c0 64 52 97 115 97c92 0 139 -82 139 -183c0 -133 -90 -274 -292 -487l18 -102
c16 -76 29 -181 121 -181c80 0 153 76 184 181zM549 367l98 462c0 25 -18 78 -84 78c-174 0 -287 -368 -287 -561c0 -156 66 -160 103 -160c61 0 143 60 170 181z" />
    <glyph glyph-name="a_z" unicode="az" horiz-adv-x="1855" 
d="M983 1024l-147 -696c-7 -23 -9 -45 -9 -66c0 -57 27 -76 84 -76c19 0 33 2 45 9c-55 -142 -96 -207 -204 -207c-113 0 -185 69 -201 190c-62 -94 -160 -190 -305 -190c-140 0 -273 86 -273 329c0 279 170 717 527 717c116 0 166 -45 166 -104v-15l22 109h295zM549 367
l98 462c0 25 -18 78 -84 78c-174 0 -287 -368 -287 -561c0 -156 66 -160 103 -160c61 0 143 60 170 181zM1522 0h-543l522 913h-115c-63 0 -112 -2 -112 -32c0 -13 22 2 22 -45c0 -76 -55 -109 -110 -109c-47 0 -94 31 -94 90c0 84 90 207 237 207h526l-501 -866
c35 -2 100 -13 155 -13c50 0 90 9 97 41c-27 2 -39 21 -39 43c0 39 39 88 114 88c64 0 91 -43 91 -98c0 -94 -93 -219 -250 -219z" />
    <glyph glyph-name="b_s" unicode="bs" horiz-adv-x="1636" 
d="M1636 367h86c-96 -113 -196 -185 -284 -240c-72 -104 -189 -139 -301 -139c-244 0 -285 147 -285 272c0 121 76 195 147 195c72 0 107 -29 107 -86c0 -50 -43 -93 -98 -93c-23 0 -45 5 -56 27c0 -96 39 -153 119 -153c90 0 129 45 129 190c0 113 -22 178 -45 557
c-96 -145 -205 -235 -324 -276c-18 -248 -157 -633 -559 -633c-188 0 -286 98 -286 262c0 39 4 78 14 117l219 1026l303 41l-98 -461c84 51 127 57 168 57c133 0 229 -80 242 -307c98 18 202 133 315 324l303 40c23 -532 45 -608 45 -745c0 -29 -2 -53 -6 -76
c55 31 106 70 145 101zM397 848l-112 -520c-4 -17 -6 -33 -6 -47c0 -64 36 -95 108 -95c117 0 213 224 236 424c-23 17 -33 43 -33 82c0 35 10 64 26 84c-14 62 -47 109 -98 109c-29 0 -98 -8 -121 -37z" />
    <glyph glyph-name="b_s_x" unicode="bsx" horiz-adv-x="2343" 
d="M2343 367h86c-115 -334 -311 -379 -422 -379c-139 0 -195 90 -244 303c-104 -72 -241 -125 -329 -168c-72 -98 -189 -135 -297 -135c-244 0 -285 147 -285 272c0 121 76 195 147 195c72 0 107 -29 107 -86c0 -50 -43 -93 -98 -93c-23 0 -45 5 -56 27
c0 -96 39 -153 119 -153c90 0 129 45 129 190c0 113 -22 178 -45 557c-96 -145 -205 -235 -324 -276c-18 -248 -157 -633 -559 -633c-188 0 -286 98 -286 262c0 39 4 78 14 117l219 1026l303 41l-98 -461c84 51 127 57 168 57c133 0 229 -80 242 -307c98 18 202 133 315 324
l303 40c23 -532 45 -608 45 -745c0 -33 -2 -63 -8 -90c84 35 182 88 254 147l-115 625h289l80 -442c123 131 194 252 194 325c0 11 0 19 -2 25c-14 -2 -24 -4 -35 -4c-71 0 -96 51 -96 114c0 64 51 97 115 97c92 0 139 -82 139 -183c0 -133 -90 -274 -293 -487l19 -102
c16 -76 28 -181 121 -181c79 0 153 76 184 181zM397 848l-112 -520c-4 -17 -6 -33 -6 -47c0 -64 36 -95 108 -95c117 0 213 224 236 424c-23 17 -33 43 -33 82c0 35 10 64 26 84c-14 62 -47 109 -98 109c-29 0 -98 -8 -121 -37z" />
    <glyph glyph-name="b_s_z" unicode="bsz" horiz-adv-x="2372" 
d="M1149 1047l303 40c23 -532 45 -608 45 -745c0 -268 -192 -354 -360 -354c-244 0 -285 147 -285 272c0 121 76 195 147 195c72 0 107 -29 107 -86c0 -50 -43 -93 -98 -93c-23 0 -45 5 -56 27c0 -96 39 -153 119 -153c90 0 129 45 129 190c0 113 -22 178 -45 557
c-96 -145 -205 -235 -324 -276c-18 -248 -157 -633 -559 -633c-188 0 -286 98 -286 262c0 39 4 78 14 117l219 1026l303 41l-98 -461c84 51 127 57 168 57c133 0 229 -80 242 -307c98 18 202 133 315 324zM2038 0h-543l522 913h-114c-64 0 -113 -2 -113 -32
c0 -13 22 2 22 -45c0 -76 -55 -109 -110 -109c-47 0 -94 31 -94 90c0 84 90 207 237 207h527l-502 -866c35 -2 100 -13 155 -13c50 0 91 9 97 41c-27 2 -39 21 -39 43c0 39 39 88 115 88c63 0 90 -43 90 -98c0 -94 -93 -219 -250 -219zM397 848l-112 -520
c-4 -17 -6 -33 -6 -47c0 -64 36 -95 108 -95c117 0 213 224 236 424c-23 17 -33 43 -33 82c0 35 10 64 26 84c-14 62 -47 109 -98 109c-29 0 -98 -8 -121 -37z" />
    <glyph glyph-name="c_x" unicode="cx" horiz-adv-x="1546" 
d="M1546 367h86c-114 -334 -313 -379 -415 -379c-140 0 -203 84 -246 282c-174 -174 -428 -282 -647 -282c-199 0 -365 88 -365 336c0 221 133 718 551 718c180 0 227 -94 227 -190c0 -104 -53 -147 -108 -147c-27 0 -49 8 -72 24c16 43 25 82 25 121c0 49 -17 84 -56 84
c-131 0 -264 -389 -264 -576c0 -153 92 -202 207 -202c147 0 342 80 479 233l-117 635h289l80 -442c123 131 195 252 195 325c0 11 0 19 -2 25c-15 -2 -23 -4 -37 -4c-72 0 -94 55 -94 106c0 72 47 105 110 105c96 0 144 -80 144 -178c0 -134 -86 -271 -293 -494l18 -100
c16 -76 29 -181 121 -181c80 0 154 76 184 181z" />
    <glyph glyph-name="c_z" unicode="cz" horiz-adv-x="1575" 
d="M1241 0h-543l523 913h-74c-64 0 -113 -2 -113 -32c0 -13 23 2 23 -45c0 -76 -56 -109 -111 -109c-47 0 -94 31 -94 90c0 84 90 207 238 207h485l-502 -866c76 0 127 -25 187 -25c32 0 57 12 65 53c-27 2 -39 21 -39 43c0 39 39 88 115 88c63 0 90 -43 90 -98
c0 -94 -92 -219 -250 -219zM631 291c-43 -236 -189 -303 -355 -303c-190 0 -317 94 -317 325c0 238 135 729 551 729c180 0 227 -94 227 -190c0 -104 -53 -147 -108 -147c-27 0 -49 8 -72 24c16 43 25 82 25 121c0 49 -17 84 -56 84c-131 0 -264 -383 -264 -586
c0 -129 51 -170 123 -170c80 0 182 60 246 113z" />
    <glyph glyph-name="e_x" unicode="ex" horiz-adv-x="1561" 
d="M1561 367h86c-115 -334 -314 -379 -416 -379c-137 0 -197 78 -246 284c-164 -170 -418 -284 -647 -284c-199 0 -365 86 -365 334c0 223 133 720 553 720c183 0 226 -94 226 -196c0 -238 -226 -416 -473 -432c-3 -19 -3 -39 -3 -56c0 -153 91 -202 205 -202
c148 0 344 80 482 233l-117 635h289l79 -442c123 131 195 252 195 325c0 11 0 19 -2 25c-14 -2 -23 -4 -37 -4c-72 0 -94 55 -94 106c0 72 47 105 110 105c97 0 144 -80 144 -178c0 -134 -86 -271 -293 -494l18 -100c17 -76 29 -181 121 -181c80 0 154 76 185 181zM295 512
c158 6 299 168 299 338c0 51 -12 84 -51 84c-103 0 -209 -232 -248 -422z" />
    <glyph glyph-name="e_z" unicode="ez" horiz-adv-x="1614" 
d="M631 291c-43 -236 -189 -303 -355 -303c-190 0 -317 94 -317 325c0 236 133 729 553 729c182 0 225 -94 225 -196c0 -238 -225 -416 -471 -432c-2 -23 -4 -43 -4 -62c0 -131 55 -170 127 -170c80 0 176 51 242 109zM281 512c157 6 299 168 299 338c0 51 -13 84 -52 84
c-102 0 -204 -227 -247 -422zM1280 0h-543l523 913h-115c-64 0 -113 -2 -113 -32c0 -13 23 2 23 -45c0 -76 -56 -109 -111 -109c-47 0 -94 31 -94 90c0 84 90 207 237 207h527l-502 -866c35 -2 100 -13 156 -13c49 0 90 9 96 41c-27 2 -39 21 -39 43c0 39 39 88 115 88
c63 0 90 -43 90 -98c0 -94 -92 -219 -250 -219z" />
    <glyph glyph-name="eacute_x" unicode="&#xe9;x" horiz-adv-x="1556" 
d="M1556 367h86c-114 -334 -311 -379 -421 -379c-131 0 -193 82 -240 284c-162 -174 -430 -284 -641 -284c-205 0 -371 88 -371 327c0 238 133 727 555 727c183 0 224 -94 224 -202c0 -230 -226 -410 -472 -426c-2 -23 -4 -43 -4 -66c0 -139 88 -192 211 -192
c140 0 340 82 475 233l-116 635h288l80 -442c123 131 195 252 195 325c0 11 0 19 -2 25c-14 -2 -25 -4 -35 -4c-72 0 -96 51 -96 114c0 64 51 97 114 97c93 0 140 -82 140 -183c0 -133 -90 -274 -293 -487l18 -102c17 -76 29 -181 121 -181c80 0 154 76 184 181zM291 512
c158 10 299 170 299 332c0 57 -10 90 -49 90c-109 0 -207 -225 -250 -422zM612 1149h-153l186 387h215z" />
    <glyph glyph-name="ff" unicode="ff" horiz-adv-x="1040" 
d="M1120 942h-202l-232 -1106c-59 -293 -240 -348 -373 -348c-116 0 -188 49 -221 129c-80 -104 -188 -129 -278 -129c-123 0 -242 88 -242 221c0 189 158 248 354 307l246 1170c59 293 240 348 373 348c92 0 180 -49 219 -129c82 104 190 129 280 129
c123 0 242 -88 242 -221c0 -31 -2 -60 -6 -84h-96c2 22 4 37 4 55c0 47 -37 70 -78 70c-45 0 -106 -25 -139 -162l-37 -168h205zM446 113l175 829h-203l-182 -866zM387 -170l49 233l-211 -38l-39 -189c-10 -47 -24 -90 -39 -125c19 -33 64 -41 119 -41c43 0 94 37 121 160z
M637 1024l35 162l12 53c2 16 4 29 4 45c0 47 -37 70 -78 70c-45 0 -106 -25 -139 -162l-37 -168h203zM-100 -170l24 119c-129 -43 -227 -101 -227 -211c0 -31 35 -68 82 -68c43 0 94 37 121 160z" />
    <glyph glyph-name="ffi" unicode="ffi" horiz-adv-x="1565" 
d="M1565 367h86c-115 -334 -322 -379 -430 -379c-123 0 -220 73 -220 245c0 37 7 82 17 134l121 575h-246l-234 -1106c-59 -285 -231 -348 -360 -348c-100 0 -182 41 -223 109c-80 -89 -178 -109 -262 -109c-123 0 -242 88 -242 221c0 189 158 248 354 307l246 1170
c59 293 240 348 373 348c112 0 196 -35 252 -107c96 89 209 107 309 107c164 0 367 -39 367 -236c0 -122 -78 -165 -162 -165c-60 0 -123 22 -123 110c0 47 26 100 69 100c7 0 15 0 17 -2c-2 56 -47 82 -113 82c-131 0 -194 -114 -217 -231l-35 -168h543l-147 -696
c-7 -23 -9 -45 -9 -66c0 -57 27 -76 84 -76c80 0 154 76 185 181zM418 104l176 838h-172l-184 -868zM360 -170l48 223l-183 -37l-39 -180c-10 -47 -22 -90 -41 -129c9 -55 54 -65 76 -65c55 0 109 49 139 188zM612 1024l15 70c22 112 59 192 102 256c-18 22 -43 34 -82 34
c-115 0 -160 -102 -176 -192l-33 -168h174zM-100 -170l24 119c-129 -43 -227 -101 -227 -211c0 -31 35 -68 82 -68c41 0 96 37 121 160z" />
    <glyph glyph-name="ffl" unicode="ffl" horiz-adv-x="1597" 
d="M1597 367h86c-114 -334 -321 -379 -430 -379c-123 0 -219 73 -219 245c0 37 6 82 17 134l213 1005c-56 23 -142 33 -168 33c-45 0 -113 -25 -140 -162l-45 -219h191l-17 -82h-190l-236 -1106c-59 -285 -231 -348 -360 -348c-104 0 -182 39 -223 111
c-80 -88 -178 -111 -262 -111c-123 0 -242 88 -242 221c0 189 158 248 354 307l246 1170c59 293 240 348 373 348c100 0 180 -29 235 -86c74 68 164 86 240 86c186 0 356 -68 543 -141l-226 -1065c-6 -23 -8 -45 -8 -66c0 -57 27 -76 84 -76c80 0 154 76 184 181zM418 104
l178 838h-174l-184 -868zM360 -170l48 223l-183 -37l-39 -180c-10 -45 -22 -88 -41 -127c7 -57 58 -67 76 -67c55 0 109 49 139 188zM612 1024l35 162c15 74 39 131 66 178c-19 14 -39 20 -66 20c-115 0 -160 -102 -176 -192l-33 -168h174zM-100 -170l24 119
c-129 -43 -227 -101 -227 -211c0 -31 35 -68 82 -68c41 0 96 37 121 160z" />
    <glyph glyph-name="f_f_t" unicode="fft" horiz-adv-x="1597" 
d="M1597 367h86c-114 -334 -321 -379 -430 -379c-123 0 -219 73 -219 245c0 37 6 82 17 134l120 575h-276l-236 -1106c-59 -285 -231 -348 -360 -348c-104 0 -182 39 -223 111c-80 -88 -178 -111 -262 -111c-123 0 -242 88 -242 221c0 189 158 248 354 307l246 1170
c59 293 240 348 373 348c100 0 180 -29 235 -86c74 68 164 86 240 86c186 0 356 -68 543 -141l-78 -369h123l-17 -82h-125l-129 -614c-6 -23 -8 -45 -8 -66c0 -57 27 -76 84 -76c80 0 154 76 184 181zM418 104l178 838h-174l-184 -868zM1190 1024l74 348
c-56 23 -142 33 -168 33c-45 0 -113 -25 -140 -162l-45 -219h279zM360 -170l48 223l-183 -37l-39 -180c-10 -45 -22 -88 -41 -127c7 -57 58 -67 76 -67c55 0 109 49 139 188zM612 1024l35 162c15 74 39 131 66 178c-19 14 -39 20 -66 20c-115 0 -160 -102 -176 -192
l-33 -168h174zM-100 -170l24 119c-129 -43 -227 -101 -227 -211c0 -31 35 -68 82 -68c41 0 96 37 121 160z" />
    <glyph glyph-name="fi" unicode="fi" horiz-adv-x="1094" 
d="M-70 16l228 1078c82 376 303 440 479 440c164 0 367 -39 367 -236c0 -122 -78 -165 -162 -165c-60 0 -123 22 -123 110c0 47 26 100 69 100c7 0 15 0 17 -2c-2 56 -47 82 -113 82c-131 0 -194 -114 -217 -231l-35 -168h164l-16 -82h-164l-234 -1106
c-59 -285 -231 -348 -360 -348c-149 0 -254 88 -254 229c0 183 180 244 354 299zM-109 -170l25 119c-131 -41 -227 -109 -227 -197c0 -69 61 -82 84 -82c41 0 94 43 118 160zM1094 367h86c-115 -334 -322 -379 -430 -379c-123 0 -220 73 -220 245c0 37 7 82 17 134l139 657
h295l-147 -696c-7 -23 -9 -45 -9 -66c0 -57 27 -76 84 -76c80 0 154 76 185 181z" />
    <glyph glyph-name="f_i_x" unicode="fix" horiz-adv-x="1839" 
d="M-70 16l228 1078c82 376 303 440 479 440c164 0 367 -39 367 -236c0 -122 -78 -165 -162 -165c-60 0 -123 22 -123 110c0 47 26 100 69 100c7 0 15 0 17 -2c-2 56 -47 82 -113 82c-131 0 -194 -114 -217 -231l-35 -168h164l-16 -82h-164l-234 -1106
c-59 -285 -231 -348 -360 -348c-149 0 -254 88 -254 229c0 183 180 244 354 299zM1839 367h86c-115 -334 -311 -379 -422 -379c-131 0 -190 84 -237 282c-131 -147 -330 -282 -518 -282c-125 0 -218 73 -218 243c0 35 7 80 17 136l139 657h295l-147 -696
c-7 -23 -9 -45 -9 -66c0 -51 35 -74 90 -74c101 0 240 80 326 193l-117 643h289l80 -442c123 131 195 252 195 325c0 11 0 19 -2 25c-15 -2 -25 -4 -35 -4c-72 0 -97 51 -97 114c0 64 52 97 115 97c92 0 139 -82 139 -183c0 -133 -90 -274 -292 -487l18 -102
c16 -76 29 -181 121 -181c80 0 153 76 184 181zM-109 -170l25 119c-131 -41 -227 -109 -227 -197c0 -69 61 -82 84 -82c41 0 94 43 118 160z" />
    <glyph glyph-name="f_i_z" unicode="fiz" horiz-adv-x="1851" 
d="M-109 -170l25 119c-131 -41 -227 -109 -227 -197c0 -69 61 -82 84 -82c41 0 94 43 118 160zM-70 16l228 1078c82 376 303 440 479 440c164 0 367 -39 367 -236c0 -122 -78 -165 -162 -165c-60 0 -123 22 -123 110c0 47 26 100 69 100c7 0 15 0 17 -2
c-2 56 -47 82 -113 82c-131 0 -194 -114 -217 -231l-35 -168h164l-16 -82h-164l-234 -1106c-59 -285 -231 -348 -360 -348c-149 0 -254 88 -254 229c0 183 180 244 354 299zM547 367l139 657h295l-147 -696c-7 -23 -9 -45 -9 -66c0 -57 27 -76 84 -76c39 0 52 7 66 13
c-10 -146 -117 -211 -225 -211c-123 0 -220 73 -220 245c0 37 7 82 17 134zM1518 0h-543l522 913h-115c-63 0 -112 -2 -112 -32c0 -13 22 2 22 -45c0 -76 -55 -109 -110 -109c-47 0 -95 31 -95 90c0 84 91 207 238 207h526l-501 -866c34 -2 100 -13 155 -13c49 0 90 9 97 41
c-27 2 -39 21 -39 43c0 39 39 88 114 88c64 0 90 -43 90 -98c0 -94 -92 -219 -249 -219z" />
    <glyph glyph-name="fl" unicode="fl" horiz-adv-x="1122" 
d="M-113 -170l25 119c-129 -43 -227 -101 -227 -211c0 -31 34 -68 82 -68c40 0 96 37 120 160zM1122 367h86c-114 -334 -321 -379 -430 -379c-123 0 -219 73 -219 245c0 37 6 82 16 134l213 1005c-55 23 -141 33 -167 33c-46 0 -113 -25 -140 -162l-45 -219h191l-17 -82
h-190l-234 -1106c-59 -293 -239 -348 -372 -348c-123 0 -242 88 -242 221c0 189 158 248 354 307l246 1170c59 293 242 348 373 348c186 0 356 -68 542 -141l-225 -1065c-6 -23 -8 -45 -8 -66c0 -57 27 -76 84 -76c80 0 154 76 184 181z" />
    <glyph glyph-name="f_l_x" unicode="flx" horiz-adv-x="1868" 
d="M1868 367h86c-115 -334 -312 -379 -422 -379c-131 0 -191 84 -238 282c-131 -147 -329 -282 -518 -282c-125 0 -217 73 -217 243c0 35 6 80 16 136l213 1005c-55 23 -141 33 -167 33c-46 0 -113 -25 -140 -162l-45 -219h191l-17 -82h-190l-234 -1106
c-59 -293 -239 -348 -372 -348c-123 0 -242 88 -242 221c0 189 158 248 354 307l246 1170c59 293 242 348 373 348c186 0 356 -68 542 -141l-225 -1065c-6 -23 -8 -45 -8 -66c0 -51 35 -74 90 -74c100 0 240 80 326 193l-117 643h289l80 -442c123 131 194 252 194 325
c0 11 0 19 -2 25c-14 -2 -24 -4 -35 -4c-71 0 -96 51 -96 114c0 64 51 97 115 97c92 0 139 -82 139 -183c0 -133 -90 -274 -293 -487l19 -102c16 -76 28 -181 120 -181c80 0 154 76 185 181zM-113 -170l25 119c-129 -43 -227 -101 -227 -211c0 -31 34 -68 82 -68
c43 0 94 37 120 160z" />
    <glyph glyph-name="f_l_z" unicode="flz" horiz-adv-x="1921" 
d="M-113 -170l25 119c-129 -43 -227 -101 -227 -211c0 -31 34 -68 82 -68c40 0 96 37 120 160zM575 367l213 1005c-55 23 -141 33 -167 33c-46 0 -113 -25 -140 -162l-45 -219h191l-17 -82h-190l-234 -1106c-59 -293 -239 -348 -372 -348c-123 0 -242 88 -242 221
c0 189 158 248 354 307l246 1170c59 293 242 348 373 348c186 0 356 -68 542 -141l-225 -1065c-6 -23 -8 -45 -8 -66c0 -57 27 -76 84 -76c39 0 51 7 66 13c-11 -146 -117 -211 -226 -211c-123 0 -219 73 -219 245c0 37 6 82 16 134zM1587 0h-543l523 913h-115
c-63 0 -113 -2 -113 -32c0 -13 23 2 23 -45c0 -76 -55 -109 -111 -109c-47 0 -94 31 -94 90c0 84 90 207 238 207h526l-502 -866c35 -2 101 -13 156 -13c49 0 90 9 96 41c-26 2 -39 21 -39 43c0 39 39 88 115 88c63 0 90 -43 90 -98c0 -94 -92 -219 -250 -219z" />
    <glyph glyph-name="f_t" unicode="ft" horiz-adv-x="1122" 
d="M1122 367h86c-114 -334 -321 -379 -430 -379c-123 0 -219 73 -219 245c0 37 6 82 16 134l121 575h-276l-234 -1106c-59 -293 -239 -348 -372 -348c-123 0 -242 88 -242 221c0 189 158 248 354 307l246 1170c59 293 242 348 373 348c186 0 356 -68 542 -141l-77 -369h123
l-17 -82h-125l-129 -614c-6 -23 -8 -45 -8 -66c0 -57 27 -76 84 -76c80 0 154 76 184 181zM715 1024l73 348c-55 23 -141 33 -167 33c-46 0 -113 -25 -140 -162l-45 -219h279zM-113 -170l25 119c-129 -43 -227 -101 -227 -211c0 -31 34 -68 82 -68c43 0 94 37 120 160z" />
    <glyph glyph-name="f_u" unicode="fu" horiz-adv-x="1581" 
d="M1581 367h86c-115 -334 -303 -379 -412 -379c-116 0 -188 65 -202 194c-103 -168 -217 -194 -303 -194c-123 0 -220 73 -220 245c0 37 7 82 17 134l121 575h-250l-236 -1106c-59 -293 -233 -348 -366 -348c-123 0 -242 88 -242 221c0 189 158 248 352 307l248 1170
c59 293 240 348 373 348c123 0 241 -88 241 -221c0 -31 -2 -60 -6 -84h-96c2 22 4 37 4 55c0 47 -37 70 -78 70c-43 0 -116 -31 -143 -168l-35 -162h547l-147 -696c-5 -21 -7 -39 -7 -58c0 -47 15 -84 62 -84c80 0 133 76 164 181l139 657h295l-148 -696
c-6 -23 -8 -45 -8 -66c0 -57 27 -76 84 -76c80 0 135 76 166 181zM-115 -170l27 119c-129 -43 -225 -101 -225 -211c0 -31 34 -68 82 -68c43 0 90 37 116 160z" />
    <glyph glyph-name="f_x" unicode="fx" horiz-adv-x="1358" 
d="M1358 367h86c-115 -334 -311 -379 -422 -379c-150 0 -209 110 -258 379l-4 14c-94 -66 -185 -145 -185 -229c7 2 17 2 27 2c72 0 84 -54 84 -101c0 -80 -47 -112 -115 -112c-92 0 -135 57 -135 145c0 137 156 311 303 410l-82 446h-239l-236 -1106
c-59 -293 -233 -348 -366 -348c-123 0 -242 88 -242 221c0 189 158 248 352 307l248 1170c59 293 240 348 373 348c123 0 241 -88 241 -221c0 -31 -2 -60 -6 -84h-96c2 22 4 37 4 55c0 47 -37 70 -78 70c-43 0 -116 -31 -143 -168l-35 -162h498l74 -406
c129 115 200 209 200 289c0 11 0 19 -2 25c-14 -2 -24 -4 -35 -4c-71 0 -96 51 -96 114c0 64 51 97 115 97c92 0 139 -82 139 -183c0 -137 -88 -266 -299 -454l25 -135c16 -76 28 -181 121 -181c79 0 153 76 184 181zM-121 -170l27 119c-129 -43 -225 -101 -225 -211
c0 -31 34 -68 81 -68c43 0 91 37 117 160z" />
    <glyph glyph-name="g_p" unicode="gp" horiz-adv-x="1997" 
d="M1161 -438l-309 -74l109 516c-64 -2 -127 -8 -199 -22l-31 -146c-59 -293 -233 -348 -369 -348c-124 0 -229 66 -229 199c0 168 180 266 336 315l23 98c-60 -63 -140 -112 -246 -112c-140 0 -273 86 -273 329c0 279 170 717 527 717c116 0 166 -45 166 -104v-12l22 106
h295l-201 -940c72 16 138 29 205 39l207 977h295l-33 -154c60 51 135 88 240 88c139 0 250 -80 250 -323c0 -277 -107 -723 -504 -723c-68 0 -131 2 -189 6zM1421 786l-133 -632c31 2 60 2 90 2c215 0 287 368 287 561c0 157 -66 170 -102 170c-47 0 -103 -35 -142 -101z
M543 346l104 485c0 25 -18 76 -84 76c-174 0 -287 -368 -287 -561c0 -156 66 -160 103 -160c55 0 137 56 164 160zM434 -170l12 59c-106 -39 -200 -92 -200 -174c0 -30 22 -67 69 -67c43 0 93 59 119 182z" />
    <glyph glyph-name="g_x" unicode="gx" horiz-adv-x="1827" 
d="M1827 367h86c-115 -334 -311 -379 -422 -379c-131 0 -191 82 -238 280c-149 -166 -342 -237 -491 -282l-31 -150c-59 -293 -233 -348 -369 -348c-124 0 -229 66 -229 199c0 174 180 250 334 299l25 116c-60 -63 -140 -114 -246 -114c-140 0 -273 86 -273 329
c0 279 170 717 527 717c116 0 166 -45 166 -104v-15l22 109h295l-201 -944c140 47 283 125 445 313l-115 631h289l80 -442c123 131 194 252 194 325c0 11 0 19 -2 25c-14 -2 -24 -4 -35 -4c-71 0 -96 51 -96 114c0 64 51 97 115 97c92 0 139 -82 139 -183
c0 -133 -90 -274 -293 -487l19 -102c16 -76 28 -181 120 -181c80 0 154 76 185 181zM545 352l4 15l98 462c0 25 -18 78 -84 78c-174 0 -287 -368 -287 -561c0 -156 66 -160 103 -160c57 0 139 54 166 166zM434 -170l12 61c-106 -38 -200 -92 -200 -176c0 -30 22 -67 69 -67
c43 0 93 59 119 182z" />
    <glyph glyph-name="g_z" unicode="gz" horiz-adv-x="1858" 
d="M471 16l18 86c-59 -63 -139 -114 -245 -114c-140 0 -273 86 -273 329c0 279 170 717 527 717c116 0 166 -45 166 -104v-4l20 98h297l-250 -1188c-59 -293 -239 -348 -373 -348c-122 0 -241 88 -241 221c0 193 157 248 354 307zM541 340l104 496c-6 26 -20 71 -84 71
c-174 0 -287 -368 -287 -561c0 -156 66 -160 103 -160c55 0 133 50 164 154zM432 -170l25 121c-129 -43 -228 -103 -228 -213c0 -31 35 -68 82 -68c43 0 95 37 121 160zM1524 0h-543l522 913h-114c-64 0 -113 -2 -113 -32c0 -13 22 2 22 -45c0 -76 -55 -109 -110 -109
c-47 0 -94 31 -94 90c0 84 90 207 237 207h527l-502 -866c35 -2 100 -13 155 -13c50 0 91 9 97 41c-27 2 -39 21 -39 43c0 39 39 88 114 88c64 0 91 -43 91 -98c0 -94 -93 -219 -250 -219z" />
    <glyph glyph-name="ij" unicode="ij" horiz-adv-x="1038" 
d="M506 1296c0 -90 -74 -161 -164 -161s-162 71 -162 161s72 164 162 164s164 -74 164 -164zM0 367l139 657h295l-147 -696c-6 -23 -8 -45 -8 -66c0 -57 26 -76 83 -76c39 0 52 7 66 13c-10 -146 -117 -211 -225 -211c-123 0 -219 73 -219 245c0 37 6 82 16 134zM762 -16
l-31 -148c-59 -293 -233 -348 -369 -348c-124 0 -229 66 -229 199c0 170 180 256 336 305l219 1032h295l-203 -950c125 43 201 114 258 293h86c-82 -271 -235 -351 -362 -383zM1036 1298c0 -90 -73 -161 -164 -161c-90 0 -161 71 -161 161c0 91 71 164 161 164
c91 0 164 -73 164 -164zM434 -170l12 59c-106 -39 -200 -92 -200 -174c0 -30 22 -67 69 -67c43 0 93 59 119 182z" />
    <glyph glyph-name="i_x" unicode="ix" horiz-adv-x="1292" 
d="M1292 367h86c-114 -334 -311 -379 -422 -379c-131 0 -190 84 -237 282c-131 -147 -330 -282 -518 -282c-125 0 -217 73 -217 243c0 35 6 80 16 136l139 657h295l-147 -696c-6 -23 -8 -45 -8 -66c0 -51 34 -74 90 -74c100 0 239 80 325 193l-116 643h288l80 -442
c123 131 195 252 195 325c0 11 0 19 -2 25c-15 -2 -25 -4 -35 -4c-72 0 -96 51 -96 114c0 64 51 97 114 97c92 0 140 -82 140 -183c0 -133 -91 -274 -293 -487l18 -102c17 -76 29 -181 121 -181c80 0 154 76 184 181zM506 1296c0 -90 -74 -161 -164 -161s-162 71 -162 161
s72 164 162 164s164 -74 164 -164z" />
    <glyph glyph-name="i_z" unicode="iz" horiz-adv-x="1305" 
d="M506 1296c0 -90 -74 -161 -164 -161s-162 71 -162 161s72 164 162 164s164 -74 164 -164zM0 367l139 657h295l-147 -696c-6 -23 -8 -45 -8 -66c0 -57 26 -76 83 -76c39 0 52 7 66 13c-10 -146 -117 -211 -225 -211c-123 0 -219 73 -219 245c0 37 6 82 16 134zM971 0h-543
l522 913h-114c-64 0 -113 -2 -113 -32c0 -13 22 2 22 -45c0 -76 -55 -109 -110 -109c-47 0 -94 31 -94 90c0 84 90 207 237 207h527l-502 -866c35 -2 100 -13 155 -13c50 0 91 9 97 41c-27 2 -39 21 -39 43c0 39 39 88 114 88c64 0 91 -43 91 -98c0 -94 -93 -219 -250 -219z
" />
    <glyph glyph-name="iacute_x" unicode="&#xed;x" horiz-adv-x="1292" 
d="M1292 367h86c-114 -334 -311 -379 -422 -379c-131 0 -190 84 -237 282c-131 -147 -330 -282 -518 -282c-125 0 -217 73 -217 243c0 35 6 80 16 136l139 657h295l-147 -696c-6 -23 -8 -45 -8 -66c0 -51 34 -74 90 -74c100 0 239 80 325 193l-116 643h288l80 -442
c123 131 195 252 195 325c0 11 0 19 -2 25c-15 -2 -25 -4 -35 -4c-72 0 -96 51 -96 114c0 64 51 97 114 97c92 0 140 -82 140 -183c0 -133 -91 -274 -293 -487l18 -102c17 -76 29 -181 121 -181c80 0 154 76 184 181zM383 1149h-154l187 387h215z" />
    <glyph glyph-name="iacute_z" unicode="&#xed;z" horiz-adv-x="1305" 
d="M0 367l139 657h295l-147 -696c-6 -23 -8 -45 -8 -66c0 -57 26 -76 83 -76c39 0 52 7 66 13c-10 -146 -117 -211 -225 -211c-123 0 -219 73 -219 245c0 37 6 82 16 134zM971 0h-543l522 913h-114c-64 0 -113 -2 -113 -32c0 -13 22 2 22 -45c0 -76 -55 -109 -110 -109
c-47 0 -94 31 -94 90c0 84 90 207 237 207h527l-502 -866c35 -2 100 -13 155 -13c50 0 91 9 97 41c-27 2 -39 21 -39 43c0 39 39 88 114 88c64 0 91 -43 91 -98c0 -94 -93 -219 -250 -219zM381 1149h-154l187 387h215z" />
    <glyph glyph-name="j_x" unicode="jx" horiz-adv-x="1278" 
d="M1278 367h86c-115 -334 -311 -379 -422 -379c-131 0 -190 82 -237 280c-150 -166 -343 -237 -492 -282l-31 -150c-59 -293 -233 -348 -368 -348c-125 0 -230 66 -230 199c0 174 180 250 336 299l219 1038h295l-201 -944c140 47 283 125 445 313l-115 631h289l80 -442
c123 131 194 252 194 325c0 11 0 19 -2 25c-14 -2 -24 -4 -34 -4c-72 0 -97 51 -97 114c0 64 51 97 115 97c92 0 139 -82 139 -183c0 -133 -90 -274 -293 -487l19 -102c16 -76 28 -181 121 -181c80 0 153 76 184 181zM487 1298c0 -90 -73 -161 -163 -161
c-91 0 -162 71 -162 161c0 91 71 164 162 164c90 0 163 -73 163 -164zM-115 -170l15 61c-107 -38 -203 -92 -203 -176c0 -30 22 -67 70 -67c43 0 92 59 118 182z" />
    <glyph glyph-name="j_z" unicode="jz" horiz-adv-x="1266" 
d="M-66 16l211 1008h297l-249 -1188c-60 -293 -240 -348 -373 -348c-123 0 -242 88 -242 221c0 193 160 248 356 307zM504 1298c0 -90 -74 -161 -164 -161s-162 71 -162 161c0 91 72 164 162 164s164 -73 164 -164zM-106 -170l26 121c-131 -43 -229 -101 -229 -213
c0 -31 35 -68 82 -68c43 0 94 37 121 160zM932 0h-543l522 913h-114c-64 0 -113 -2 -113 -32c0 -13 23 2 23 -45c0 -76 -56 -109 -111 -109c-47 0 -94 31 -94 90c0 84 90 207 237 207h527l-502 -866c35 -2 100 -13 156 -13c49 0 90 9 96 41c-27 2 -39 21 -39 43
c0 39 39 88 115 88c63 0 90 -43 90 -98c0 -94 -92 -219 -250 -219z" />
    <glyph glyph-name="l_x" unicode="lx" horiz-adv-x="1292" 
d="M1292 367h86c-114 -334 -311 -379 -422 -379c-131 0 -190 82 -237 280c-133 -149 -328 -280 -516 -280c-125 0 -217 73 -217 243c0 35 6 80 16 136l217 1026l303 41l-233 -1106c-6 -23 -8 -45 -8 -66c0 -51 34 -74 90 -74c104 0 235 76 325 191l-118 645h288l80 -442
c123 131 195 252 195 325c0 11 0 19 -2 25c-15 -2 -25 -4 -35 -4c-72 0 -96 51 -96 114c0 64 51 97 114 97c92 0 140 -82 140 -183c0 -133 -91 -274 -293 -487l18 -102c17 -76 29 -181 121 -181c80 0 154 76 184 181z" />
    <glyph glyph-name="l_z" unicode="lz" horiz-adv-x="1300" 
d="M-4 371l219 1026l303 41l-235 -1106c-7 -23 -9 -41 -9 -60c0 -47 21 -82 84 -82c39 0 52 7 66 13c-10 -146 -117 -215 -225 -215c-123 0 -219 75 -219 250c0 36 6 81 16 133zM967 0h-543l522 913h-115c-63 0 -112 -2 -112 -32c0 -13 22 2 22 -45
c0 -76 -55 -109 -110 -109c-47 0 -94 31 -94 90c0 84 90 207 237 207h526l-501 -866c35 -2 100 -13 155 -13c50 0 90 9 97 41c-27 2 -39 21 -39 43c0 39 39 88 114 88c64 0 91 -43 91 -98c0 -94 -93 -219 -250 -219z" />
    <glyph glyph-name="m_x" unicode="mx" horiz-adv-x="2302" 
d="M2302 367h86c-115 -334 -311 -379 -422 -379c-131 0 -192 84 -240 282c-141 -147 -346 -282 -493 -282c-178 0 -229 114 -229 231c0 139 92 391 92 522c0 70 -25 105 -74 105c-74 0 -129 -84 -160 -189l-139 -657h-295l150 707c4 16 6 32 6 51c0 47 -15 90 -62 90
c-80 0 -135 -86 -166 -191l-139 -657h-295l217 1024h295l-22 -106c88 98 178 116 250 116c108 0 188 -47 210 -176c99 152 211 174 285 174c131 0 227 -67 227 -231c0 -166 -98 -414 -98 -529c0 -51 27 -86 90 -86c94 0 238 82 328 195l-117 643h289l80 -442
c123 131 194 252 194 325c0 11 0 19 -2 25c-14 -2 -24 -4 -34 -4c-72 0 -97 51 -97 114c0 64 51 97 115 97c92 0 139 -82 139 -183c0 -133 -90 -274 -293 -487l19 -102c16 -76 28 -181 121 -181c80 0 153 76 184 181z" />
    <glyph glyph-name="m_z" unicode="mz" horiz-adv-x="2304" 
d="M723 0h-295l150 707c4 16 6 32 6 51c0 47 -15 90 -62 90c-80 0 -135 -86 -166 -191l-139 -657h-295l217 1024h295l-22 -106c88 98 178 116 250 116c108 0 188 -47 210 -176c99 152 211 174 285 174c131 0 227 -67 227 -231c0 -166 -98 -414 -98 -529c0 -51 19 -86 82 -86
c33 0 55 4 68 13c-19 -148 -117 -211 -226 -211c-157 0 -206 114 -206 231c0 139 92 391 92 522c0 70 -25 105 -74 105c-74 0 -129 -84 -160 -189zM1970 0h-543l523 913h-115c-63 0 -113 -2 -113 -32c0 -13 23 2 23 -45c0 -76 -55 -109 -111 -109c-47 0 -94 31 -94 90
c0 84 90 207 238 207h526l-502 -866c35 -2 101 -13 156 -13c49 0 90 9 96 41c-26 2 -39 21 -39 43c0 39 39 88 115 88c63 0 90 -43 90 -98c0 -94 -92 -219 -250 -219z" />
    <glyph glyph-name="n_z" unicode="nz" horiz-adv-x="1806" 
d="M217 0h-295l217 1024h295l-22 -106c88 98 176 114 239 114c131 0 228 -67 228 -231c0 -166 -99 -414 -99 -529c0 -51 19 -86 82 -86c33 0 56 4 68 13c-19 -148 -117 -211 -225 -211c-158 0 -207 114 -207 231c0 139 92 391 92 522c0 70 -25 105 -74 105
c-74 0 -129 -84 -160 -189zM1473 0h-543l522 913h-115c-63 0 -112 -2 -112 -32c0 -13 22 2 22 -45c0 -76 -55 -109 -110 -109c-47 0 -95 31 -95 90c0 84 91 207 238 207h526l-501 -866c34 -2 100 -13 155 -13c49 0 90 9 96 41c-26 2 -38 21 -38 43c0 39 38 88 114 88
c64 0 90 -43 90 -98c0 -94 -92 -219 -249 -219z" />
    <glyph glyph-name="o_ae" unicode="o&#xe6;" horiz-adv-x="2230" 
d="M2230 367h70c-115 -185 -287 -379 -565 -379c-150 0 -262 57 -301 196c-50 -96 -131 -196 -279 -196c-139 0 -272 49 -272 268c0 252 194 338 467 338c41 0 71 -2 94 -8c26 59 45 127 45 184c0 80 -35 143 -139 143c-234 0 -271 -174 -559 -272
c-23 -399 -228 -649 -488 -649c-190 0 -328 88 -328 323c0 238 134 727 555 727c168 0 256 -102 263 -309c247 98 333 301 604 301c139 0 237 -24 305 -84c72 51 162 84 270 84c182 0 223 -86 223 -194c0 -230 -225 -410 -471 -426c-2 -23 -4 -43 -4 -66
c0 -153 49 -188 123 -188c199 0 273 82 387 207zM616 604c-38 8 -55 43 -55 98c0 58 25 95 64 109c-7 80 -29 107 -78 107c-146 0 -266 -373 -266 -576c0 -135 26 -166 104 -166c98 0 205 186 231 428zM1739 512c157 10 299 170 299 332c0 57 -10 90 -49 90
c-109 0 -207 -225 -250 -422zM1430 467c-15 0 -29 2 -44 2c-106 0 -215 -57 -215 -186c0 -86 68 -97 105 -97c51 0 117 60 154 281z" />
    <glyph glyph-name="o_s" unicode="os" horiz-adv-x="1610" 
d="M1610 367h86c-97 -113 -197 -185 -285 -240c-72 -104 -188 -139 -301 -139c-244 0 -285 147 -285 272c0 121 76 195 148 195c71 0 106 -29 106 -86c0 -50 -43 -93 -98 -93c-23 0 -45 5 -55 27c0 -96 39 -153 118 -153c91 0 130 45 130 190c0 113 -23 178 -46 557
c-100 -154 -215 -244 -344 -283c-26 -385 -233 -622 -485 -622c-190 0 -328 88 -328 323c0 238 133 727 555 727c172 0 260 -106 262 -321c105 6 218 123 334 326l303 40c23 -532 45 -608 45 -745c0 -29 -2 -53 -6 -76c56 31 107 70 146 101zM612 600c-32 12 -49 43 -49 92
c0 53 19 88 58 107c-7 88 -27 119 -78 119c-146 0 -267 -373 -267 -576c0 -135 27 -166 105 -166c100 0 199 184 231 424z" />
    <glyph glyph-name="o_s_x" unicode="osx" horiz-adv-x="2318" 
d="M2318 367h86c-114 -334 -311 -379 -422 -379c-139 0 -194 90 -243 303c-105 -72 -242 -125 -330 -168c-72 -98 -188 -135 -297 -135c-244 0 -285 147 -285 272c0 121 76 195 148 195s106 -29 106 -86c0 -50 -43 -93 -98 -93c-22 0 -45 5 -55 27c0 -96 39 -153 119 -153
c90 0 129 45 129 190c0 113 -23 178 -46 557c-100 -154 -215 -244 -344 -283c-26 -385 -233 -622 -485 -622c-190 0 -328 88 -328 323c0 238 133 727 555 727c172 0 260 -106 263 -321c104 6 217 123 333 326l303 40c23 -532 46 -608 46 -745c0 -33 -3 -63 -9 -90
c84 35 183 88 254 147l-114 625h288l80 -442c123 131 195 252 195 325c0 11 0 19 -2 25c-15 -2 -25 -4 -35 -4c-72 0 -96 51 -96 114c0 64 51 97 114 97c93 0 140 -82 140 -183c0 -133 -90 -274 -293 -487l18 -102c17 -76 29 -181 121 -181c80 0 154 76 184 181zM614 600
c-32 12 -49 43 -49 92c0 53 19 88 58 107c-7 88 -27 119 -78 119c-146 0 -266 -373 -266 -576c0 -135 26 -166 104 -166c100 0 199 184 231 424z" />
    <glyph glyph-name="o_s_z" unicode="osz" horiz-adv-x="2333" 
d="M1122 1047l303 40c23 -532 45 -608 45 -745c0 -268 -192 -354 -360 -354c-244 0 -285 147 -285 272c0 121 76 195 148 195c71 0 106 -29 106 -86c0 -50 -43 -93 -98 -93c-23 0 -45 5 -55 27c0 -96 39 -153 118 -153c91 0 130 45 130 190c0 113 -23 178 -46 557
c-100 -154 -215 -244 -344 -283c-26 -385 -233 -622 -485 -622c-190 0 -328 88 -328 323c0 238 133 727 555 727c172 0 260 -106 262 -321c105 6 218 123 334 326zM612 600c-32 12 -49 43 -49 92c0 53 19 88 58 107c-7 88 -27 119 -78 119c-146 0 -267 -373 -267 -576
c0 -135 27 -166 105 -166c100 0 199 184 231 424zM1999 0h-543l522 913h-114c-64 0 -113 -2 -113 -32c0 -13 23 2 23 -45c0 -76 -56 -109 -111 -109c-47 0 -94 31 -94 90c0 84 90 207 237 207h527l-502 -866c35 -2 100 -13 156 -13c49 0 90 9 96 41c-27 2 -39 21 -39 43
c0 39 39 88 115 88c63 0 90 -43 90 -98c0 -94 -92 -219 -250 -219z" />
    <glyph glyph-name="o_x" unicode="ox" horiz-adv-x="1743" 
d="M1741 367h86c-115 -334 -311 -379 -422 -379c-150 0 -209 110 -258 379l-4 14c-94 -66 -185 -145 -185 -229c7 2 17 2 27 2c72 0 84 -54 84 -101c0 -80 -47 -112 -115 -112c-92 0 -135 57 -135 145c0 137 156 311 303 410l-57 317c-84 -100 -176 -166 -277 -197
c-32 -385 -239 -624 -491 -624c-191 0 -328 88 -328 323c0 238 142 727 561 727c172 0 261 -106 263 -321c79 8 163 82 251 205l-18 98h289l74 -406c129 115 200 209 200 289c0 11 0 19 -2 25c-14 -2 -24 -4 -35 -4c-71 0 -96 51 -96 114c0 64 51 97 115 97
c92 0 139 -82 139 -183c0 -137 -88 -266 -299 -454l25 -135c16 -76 28 -181 120 -181c80 0 154 76 185 181zM616 600c-36 10 -55 41 -55 92c0 58 25 94 64 109c-7 88 -27 117 -78 117c-146 0 -273 -373 -273 -576c0 -135 27 -166 105 -166c100 0 205 184 237 424z" />
    <glyph glyph-name="oacute_s" unicode="&#xf3;s" horiz-adv-x="1612" 
d="M602 1149h-153l186 387h215zM1612 367h86c-96 -113 -197 -185 -285 -240c-72 -104 -188 -139 -301 -139c-244 0 -285 147 -285 272c0 121 76 195 148 195s106 -29 106 -86c0 -50 -43 -93 -98 -93c-22 0 -45 5 -55 27c0 -96 39 -153 119 -153c90 0 129 45 129 190
c0 113 -23 178 -46 557c-100 -154 -215 -244 -344 -283c-26 -385 -233 -622 -485 -622c-190 0 -328 88 -328 323c0 238 133 727 555 727c172 0 260 -106 263 -321c104 6 217 123 333 326l303 40c23 -532 46 -608 46 -745c0 -29 -3 -53 -7 -76c56 31 107 70 146 101zM614 600
c-32 12 -49 43 -49 92c0 53 19 88 58 107c-7 88 -27 119 -78 119c-146 0 -266 -373 -266 -576c0 -135 26 -166 104 -166c100 0 199 184 231 424z" />
    <glyph glyph-name="oacute_s_x" unicode="&#xf3;sx" horiz-adv-x="2337" 
d="M1126 1047l304 40c22 -532 45 -608 45 -745c0 -268 -193 -354 -361 -354c-244 0 -285 147 -285 272c0 121 76 195 148 195s106 -29 106 -86c0 -50 -43 -93 -98 -93c-22 0 -45 5 -55 27c0 -96 39 -153 119 -153c90 0 129 45 129 190c0 113 -23 178 -45 557
c-101 -154 -215 -244 -345 -283c-26 -385 -233 -622 -485 -622c-190 0 -328 88 -328 323c0 238 134 727 555 727c172 0 261 -106 263 -321c104 6 217 123 333 326zM616 600c-32 12 -49 43 -49 92c0 53 19 88 58 107c-7 88 -27 119 -78 119c-146 0 -266 -373 -266 -576
c0 -135 26 -166 104 -166c100 0 199 184 231 424zM2003 0h-543l522 913h-114c-64 0 -113 -2 -113 -32c0 -13 23 2 23 -45c0 -76 -56 -109 -111 -109c-47 0 -94 31 -94 90c0 84 90 207 237 207h527l-502 -866c35 -2 100 -13 156 -13c49 0 90 9 96 41c-27 2 -39 21 -39 43
c0 39 39 88 115 88c63 0 90 -43 90 -98c0 -94 -92 -219 -250 -219zM604 1149h-153l186 387h215z" />
    <glyph glyph-name="oacute_s_z" unicode="&#xf3;sz" horiz-adv-x="2335" 
d="M1124 1047l303 40c23 -532 46 -608 46 -745c0 -268 -193 -354 -361 -354c-244 0 -285 147 -285 272c0 121 76 195 148 195s106 -29 106 -86c0 -50 -43 -93 -98 -93c-22 0 -45 5 -55 27c0 -96 39 -153 119 -153c90 0 129 45 129 190c0 113 -23 178 -46 557
c-100 -154 -215 -244 -344 -283c-26 -385 -233 -622 -485 -622c-190 0 -328 88 -328 323c0 238 133 727 555 727c172 0 260 -106 263 -321c104 6 217 123 333 326zM614 600c-32 12 -49 43 -49 92c0 53 19 88 58 107c-7 88 -27 119 -78 119c-146 0 -266 -373 -266 -576
c0 -135 26 -166 104 -166c100 0 199 184 231 424zM2001 0h-543l522 913h-114c-64 0 -113 -2 -113 -32c0 -13 23 2 23 -45c0 -76 -56 -109 -111 -109c-47 0 -94 31 -94 90c0 84 90 207 237 207h527l-502 -866c35 -2 100 -13 156 -13c49 0 90 9 96 41c-27 2 -39 21 -39 43
c0 39 39 88 115 88c63 0 90 -43 90 -98c0 -94 -92 -219 -250 -219zM602 1149h-153l186 387h215z" />
    <glyph glyph-name="oacute_x" unicode="&#xf3;x" horiz-adv-x="1745" 
d="M1743 367h86c-115 -334 -311 -379 -422 -379c-150 0 -209 110 -258 379l-4 14c-94 -66 -184 -145 -184 -229c6 2 16 2 26 2c72 0 84 -54 84 -101c0 -80 -47 -112 -115 -112c-92 0 -135 57 -135 145c0 137 156 311 303 410l-57 317c-84 -100 -176 -166 -276 -197
c-33 -385 -240 -624 -492 -624c-190 0 -328 88 -328 323c0 238 142 727 561 727c173 0 261 -106 263 -321c79 8 163 82 252 205l-19 98h289l74 -406c129 115 200 209 200 289c0 11 0 19 -2 25c-14 -2 -24 -4 -35 -4c-71 0 -96 51 -96 114c0 64 51 97 115 97
c92 0 139 -82 139 -183c0 -137 -88 -266 -299 -454l25 -135c16 -76 28 -181 121 -181c79 0 153 76 184 181zM618 600c-36 10 -55 41 -55 92c0 58 25 94 64 109c-6 88 -27 117 -78 117c-146 0 -273 -373 -273 -576c0 -135 27 -166 105 -166c100 0 205 184 237 424zM600 1149
h-154l187 387h215z" />
    <glyph glyph-name="r_x" unicode="rx" horiz-adv-x="1606" 
d="M1606 367h86c-115 -334 -308 -379 -416 -379c-150 0 -205 110 -264 379l-4 14c-95 -66 -185 -145 -185 -229c6 2 17 2 27 2c72 0 84 -54 84 -101c0 -80 -47 -112 -115 -112c-92 0 -135 57 -135 145c0 139 150 307 299 406l-119 532h289l92 -414c131 121 209 217 209 297
c0 11 0 19 -2 25c-14 -2 -25 -4 -35 -4c-71 0 -96 51 -96 114c0 64 51 97 115 97c92 0 139 -82 139 -183c0 -137 -90 -266 -305 -458l30 -131c17 -76 31 -181 121 -181c80 0 154 76 185 181zM217 0h-295l217 1024h295l-26 -127c71 64 149 127 247 127c93 0 142 -74 142 -154
c0 -71 -49 -149 -148 -149c-114 0 -59 135 -119 135c-63 0 -98 -31 -149 -78z" />
    <glyph glyph-name="r_z" unicode="rz" horiz-adv-x="1339" 
d="M1006 0h-543l520 907h-190c2 -6 2 -16 2 -30c0 -89 -54 -156 -146 -156c-114 0 -59 135 -119 135c-63 0 -98 -31 -149 -78l-164 -778h-295l217 1024h295l-26 -127c71 64 149 127 247 127h684l-501 -866c75 0 127 -25 186 -25c33 0 57 12 66 53c-27 2 -39 21 -39 43
c0 39 39 88 114 88c64 0 90 -43 90 -98c0 -94 -92 -219 -249 -219z" />
    <glyph glyph-name="s_x" unicode="sx" horiz-adv-x="1489" 
d="M1489 367h86c-115 -334 -311 -379 -422 -379c-139 0 -195 90 -244 303c-112 -80 -270 -135 -354 -180c-86 -91 -217 -123 -322 -123c-206 0 -299 137 -299 262c0 96 54 164 109 190c115 205 188 404 252 607l303 40c23 -532 45 -608 45 -745c0 -31 -4 -61 -10 -92
c84 35 184 86 256 149l-115 625h289l80 -442c123 131 194 252 194 325c0 11 0 19 -2 25c-14 -2 -24 -4 -35 -4c-71 0 -96 51 -96 114c0 64 51 97 115 97c92 0 139 -82 139 -183c0 -133 -90 -274 -293 -487l19 -102c16 -76 28 -181 121 -181c79 0 153 76 184 181zM43 293
c0 -96 35 -143 125 -143s178 47 178 190c0 106 -16 170 -39 485c-41 -133 -98 -256 -166 -387c27 -14 47 -37 47 -71c0 -50 -34 -101 -90 -101c-22 0 -45 4 -55 27z" />
    <glyph glyph-name="s_z" unicode="sz" horiz-adv-x="1524" 
d="M295 1047l303 40c23 -532 45 -608 45 -745c0 -268 -240 -354 -410 -354c-206 0 -299 137 -299 262c0 96 54 164 109 190c115 205 188 404 252 607zM43 293c0 -96 35 -143 125 -143s178 47 178 190c0 106 -16 170 -39 485c-41 -133 -98 -256 -166 -387
c27 -14 47 -37 47 -71c0 -50 -34 -101 -90 -101c-22 0 -45 4 -55 27zM1190 0h-543l522 913h-114c-64 0 -113 -2 -113 -32c0 -13 23 2 23 -45c0 -76 -56 -109 -111 -109c-47 0 -94 31 -94 90c0 84 90 207 237 207h527l-502 -866c35 -2 100 -13 156 -13c49 0 90 9 96 41
c-27 2 -39 21 -39 43c0 39 39 88 115 88c63 0 90 -43 90 -98c0 -94 -92 -219 -250 -219z" />
    <glyph glyph-name="t_x" unicode="tx" horiz-adv-x="1292" 
d="M1292 367h86c-114 -334 -311 -379 -422 -379c-131 0 -190 82 -237 280c-133 -149 -328 -280 -516 -280c-125 0 -217 73 -217 243c0 35 6 80 16 136l123 575h-68l17 82h67l62 283l303 41l-70 -324h430l80 -442c123 131 195 252 195 325c0 11 0 19 -2 25
c-15 -2 -25 -4 -35 -4c-72 0 -96 51 -96 114c0 64 51 97 114 97c92 0 140 -82 140 -183c0 -133 -91 -274 -293 -487l18 -102c17 -76 29 -181 121 -181c80 0 154 76 184 181zM696 379l-104 563h-172l-131 -614c-6 -23 -8 -45 -8 -66c0 -51 34 -74 90 -74
c104 0 235 76 325 191z" />
    <glyph glyph-name="t_z" unicode="tz" horiz-adv-x="1442" 
d="M0 328l131 614h-68l17 82h67l62 283l303 41c-6 -27 -14 -58 -20 -93c-15 -57 -31 -139 -50 -231h123l-16 -82h-123l-131 -614c-6 -27 -10 -52 -10 -72c0 -43 16 -74 71 -74c15 0 37 0 54 6c-62 -176 -146 -200 -217 -200c-146 0 -205 100 -205 231c0 35 4 72 12 109z
M1108 0h-543l522 913h-114c-64 0 -113 -2 -113 -32c0 -13 23 2 23 -45c0 -76 -56 -109 -111 -109c-47 0 -94 31 -94 90c0 84 90 207 237 207h527l-502 -866c35 -2 100 -13 156 -13c49 0 90 9 96 41c-27 2 -39 21 -39 43c0 39 39 88 115 88c63 0 90 -43 90 -98
c0 -94 -92 -219 -250 -219z" />
    <glyph glyph-name="u_v" unicode="uv" horiz-adv-x="1890" 
d="M721 0h-293l23 104c-89 -98 -177 -116 -248 -116c-123 0 -219 73 -219 245c0 37 6 82 16 134l139 657h295l-147 -696c-4 -17 -6 -33 -6 -52c0 -47 14 -90 61 -90c80 0 133 76 164 181l139 657h293zM1724 825v33c-14 -6 -28 -8 -43 -8c-59 0 -86 57 -86 115
c0 43 50 100 117 100c88 0 131 -78 131 -184c0 -320 -162 -893 -575 -893c-158 0 -254 80 -254 235c0 31 4 66 12 105l121 585l-53 27l16 84h360l-149 -696c-6 -31 -12 -54 -12 -76c0 -39 18 -66 77 -66c181 0 338 408 338 639z" />
    <glyph glyph-name="u_x" unicode="ux" horiz-adv-x="1798" 
d="M1798 367h86c-115 -334 -311 -379 -422 -379c-129 0 -190 80 -237 274c-156 -196 -316 -274 -482 -274c-114 0 -213 73 -235 196c-105 -170 -217 -196 -305 -196c-123 0 -219 75 -219 248c0 34 6 79 16 131l139 657h295l-147 -696c-4 -17 -6 -33 -6 -52
c0 -47 14 -90 61 -90c80 0 133 76 164 181l139 657h295l-147 -696c-5 -19 -7 -37 -7 -52c0 -51 21 -90 88 -90c109 0 242 90 328 193l-119 645h289l80 -442c123 131 195 252 195 325c0 11 0 19 -2 25c-15 -2 -25 -4 -35 -4c-72 0 -97 51 -97 114c0 64 52 97 115 97
c92 0 139 -82 139 -183c0 -133 -90 -274 -292 -487l18 -102c16 -76 29 -181 121 -181c80 0 153 76 184 181z" />
    <glyph glyph-name="y_p" unicode="yp" horiz-adv-x="1954" 
d="M1118 -438l-309 -74l109 516c-64 -2 -127 -8 -199 -22l-31 -146c-59 -293 -233 -348 -369 -348c-124 0 -229 66 -229 199c0 168 180 266 336 315l23 100c-89 -96 -175 -114 -246 -114c-123 0 -219 73 -219 245c0 37 6 82 16 134l139 657h295l-147 -696
c-4 -17 -6 -33 -6 -52c0 -47 14 -90 61 -90c76 0 129 72 160 168l143 670h295l-201 -940c72 16 138 29 205 39l207 977h295l-33 -154c60 51 135 88 240 88c139 0 250 -80 250 -323c0 -277 -107 -723 -504 -723c-68 0 -131 2 -189 6zM1378 786l-133 -632c31 2 60 2 90 2
c215 0 287 368 287 561c0 157 -66 170 -102 170c-47 0 -103 -35 -142 -101zM391 -170l12 59c-106 -39 -200 -92 -200 -174c0 -30 22 -67 69 -67c43 0 93 59 119 182z" />
    <glyph glyph-name="y_x" unicode="yx" horiz-adv-x="1784" 
d="M1784 367h86c-115 -334 -311 -377 -422 -377c-131 0 -191 82 -238 278c-149 -166 -342 -237 -491 -282l-31 -150c-59 -293 -233 -348 -369 -348c-124 0 -229 66 -229 199c0 174 180 250 334 299l27 118c-89 -98 -177 -114 -248 -114c-123 0 -219 71 -219 243
c0 37 6 82 16 134l139 657h295l-147 -696c-4 -17 -6 -33 -6 -52c0 -47 14 -90 61 -90c80 0 133 76 164 181l139 657h295l-201 -944c140 47 283 125 445 313l-115 631h289l80 -442c123 131 194 252 194 325c0 11 0 19 -2 25c-14 -2 -24 -4 -35 -4c-71 0 -96 51 -96 114
c0 64 51 97 115 97c92 0 139 -82 139 -183c0 -133 -90 -274 -293 -487l19 -102c16 -76 28 -181 120 -181c80 0 154 76 185 181zM391 -170l12 61c-106 -38 -200 -92 -200 -176c0 -30 22 -67 69 -67c43 0 93 59 119 182z" />
    <glyph glyph-name="y_z" unicode="yz" horiz-adv-x="1819" 
d="M432 16l21 90c-88 -100 -179 -118 -250 -118c-123 0 -219 73 -219 245c0 37 6 82 16 134l139 657h295l-147 -696c-4 -17 -6 -33 -6 -52c0 -47 14 -90 61 -90c80 0 133 76 164 181l139 657h297l-250 -1188c-59 -293 -239 -348 -373 -348c-122 0 -241 88 -241 221
c0 193 158 248 354 307zM393 -170l25 121c-129 -43 -228 -103 -228 -213c0 -31 35 -68 82 -68c41 0 95 37 121 160zM1485 0h-543l522 913h-114c-64 0 -113 -2 -113 -32c0 -13 23 2 23 -45c0 -76 -56 -109 -111 -109c-47 0 -94 31 -94 90c0 84 90 207 237 207h527l-502 -866
c35 -2 100 -13 156 -13c49 0 90 9 96 41c-27 2 -39 21 -39 43c0 39 39 88 115 88c63 0 90 -43 90 -98c0 -94 -93 -219 -250 -219z" />
    <glyph glyph-name="afii10065_afii10087" unicode="&#x430;&#x445;" horiz-adv-x="1841" 
d="M1841 367h86c-115 -334 -311 -379 -422 -379c-129 0 -190 80 -237 274c-156 -196 -316 -274 -482 -274c-114 0 -211 69 -233 192c-64 -96 -160 -192 -307 -192c-140 0 -273 86 -273 329c0 279 170 717 527 717c116 0 166 -45 166 -104v-15l22 109h295l-147 -696
c-5 -19 -7 -37 -7 -52c0 -51 21 -90 89 -90c108 0 241 90 327 193l-119 645h289l80 -442c123 131 195 252 195 325c0 11 0 19 -2 25c-15 -2 -25 -4 -35 -4c-72 0 -97 51 -97 114c0 64 52 97 115 97c92 0 139 -82 139 -183c0 -133 -90 -274 -292 -487l18 -102
c16 -76 29 -181 121 -181c80 0 153 76 184 181zM549 367l98 462c0 25 -18 78 -84 78c-174 0 -287 -368 -287 -561c0 -156 66 -160 103 -160c61 0 143 60 170 181z" />
    <glyph glyph-name="afii10065_afii10089" unicode="&#x430;&#x447;" horiz-adv-x="2034" 
d="M983 1024l-147 -696c-7 -23 -9 -45 -9 -66c0 -57 27 -76 84 -76c19 0 33 2 45 9c-55 -142 -96 -207 -204 -207c-113 0 -185 69 -201 190c-62 -94 -160 -190 -305 -190c-140 0 -273 86 -273 329c0 279 170 717 527 717c116 0 166 -45 166 -104v-15l22 109h295zM2034 367
h86c-115 -334 -303 -379 -412 -379c-123 0 -219 73 -219 245c0 37 6 82 16 134l11 51c-89 -96 -175 -115 -246 -115c-123 0 -219 74 -219 246c0 37 6 82 16 133l72 342h295l-80 -381c-4 -20 -6 -39 -6 -57c0 -47 14 -84 61 -84c80 0 141 73 164 180l72 342h294l-147 -696
c-6 -23 -8 -45 -8 -66c0 -57 26 -76 84 -76c80 0 135 76 166 181zM549 367l98 462c0 25 -18 78 -84 78c-174 0 -287 -368 -287 -561c0 -156 66 -160 103 -160c61 0 143 60 170 181z" />
    <glyph glyph-name="afii10066_afii10068" unicode="&#x431;&#x433;" horiz-adv-x="1671" 
d="M1688 367h69c-131 -209 -303 -379 -563 -379c-195 0 -317 69 -317 231c0 305 389 311 389 541c0 59 -31 96 -95 96c-94 0 -217 -98 -370 -389c-109 -205 -217 -475 -500 -475c-205 0 -328 106 -328 346c0 309 199 631 559 631c15 0 25 -2 35 -2
c-108 131 -250 215 -250 348c0 104 68 151 222 151h311c149 0 180 -10 207 99h90c-66 -314 -133 -373 -346 -373h-197c-14 0 -26 -2 -26 -25c0 -32 210 -192 217 -512c120 219 266 387 510 387c147 0 270 -67 270 -231c0 -336 -387 -350 -387 -543c0 -80 57 -108 145 -108
c121 0 223 53 355 207zM379 176c186 0 246 432 246 533c0 108 -27 135 -78 135c-197 0 -275 -410 -275 -516c0 -121 31 -152 107 -152z" />
    <glyph glyph-name="afii10066_afii10072" unicode="&#x431;&#x436;" horiz-adv-x="2583" 
d="M2583 367h86c-66 -189 -215 -379 -431 -379c-186 0 -299 127 -299 325c0 56 3 115 17 179h-117l-102 -492h-275l105 492h-117c-49 -240 -186 -504 -436 -504c-166 0 -211 96 -211 188c0 100 47 150 104 150c23 0 49 -9 72 -25c-14 -47 -21 -86 -21 -121
c0 -51 17 -84 48 -84c108 0 221 338 221 580c0 149 -64 215 -137 215c-175 0 -289 -365 -349 -518c-88 -219 -219 -381 -440 -381c-205 0 -328 106 -328 346c0 309 199 631 559 631c15 0 25 -2 35 -2c-108 131 -250 215 -250 348c0 104 68 151 222 151h311
c149 0 180 -10 207 99h90c-66 -314 -133 -373 -346 -373h-197c-14 0 -26 -2 -26 -25c0 -28 186 -192 213 -436c88 168 202 311 387 311c188 0 299 -127 299 -325c0 -31 -2 -66 -7 -103h123l86 410h275l-86 -410h114c66 217 197 428 420 428c166 0 211 -96 211 -188
c0 -100 -47 -149 -104 -149c-23 0 -49 8 -72 24c14 47 21 86 21 121c0 51 -17 84 -48 84c-108 0 -221 -338 -221 -580c0 -149 62 -215 152 -215c96 0 190 72 242 228zM379 176c186 0 246 432 246 533c0 108 -27 135 -78 135c-197 0 -275 -410 -275 -516
c0 -121 31 -152 107 -152z" />
    <glyph glyph-name="afii10066_afii10095" unicode="&#x431;&#x44d;" horiz-adv-x="1761" 
d="M1354 492h-254l26 122h246c2 27 4 52 4 78c0 139 -57 178 -162 178c-188 0 -378 -329 -520 -608c-80 -156 -219 -270 -393 -270c-205 0 -328 106 -328 346c0 309 199 631 559 631c15 0 25 -2 35 -2c-108 131 -250 215 -250 348c0 104 68 151 222 151h311
c149 0 180 -10 207 99h90c-66 -314 -133 -373 -346 -373h-197c-14 0 -26 -2 -26 -25c0 -32 227 -233 217 -508c104 187 262 383 548 383c205 0 336 -104 336 -335c0 -226 -163 -719 -592 -719c-188 0 -278 84 -278 217c0 114 55 172 119 172c22 0 49 -4 76 -29
c-19 -49 -27 -96 -27 -139c0 -76 37 -113 113 -113c116 0 219 191 264 396zM379 176c186 0 246 432 246 533c0 108 -27 135 -78 135c-197 0 -275 -410 -275 -516c0 -121 31 -152 107 -152z" />
    <glyph glyph-name="afii10066_afii10100" unicode="&#x431;&#x453;" horiz-adv-x="1671" 
d="M1688 367h69c-131 -209 -303 -379 -563 -379c-195 0 -317 69 -317 231c0 305 389 311 389 541c0 59 -31 96 -95 96c-94 0 -217 -98 -370 -389c-109 -205 -217 -475 -500 -475c-205 0 -328 106 -328 346c0 309 199 631 559 631c15 0 25 -2 35 -2
c-108 131 -250 215 -250 348c0 104 68 151 222 151h311c149 0 180 -10 207 99h90c-66 -314 -133 -373 -346 -373h-197c-14 0 -26 -2 -26 -25c0 -32 210 -192 217 -512c120 219 266 387 510 387c147 0 270 -67 270 -231c0 -336 -387 -350 -387 -543c0 -80 57 -108 145 -108
c121 0 223 53 355 207zM379 176c186 0 246 432 246 533c0 108 -27 135 -78 135c-197 0 -275 -410 -275 -516c0 -121 31 -152 107 -152zM1370 1149h-153l186 387h215z" />
    <glyph glyph-name="afii10066_afii10103" unicode="&#x431;&#x456;" horiz-adv-x="1427" 
d="M698 1192h-94c-14 0 -26 -2 -26 -25c0 -34 217 -204 217 -501c0 -299 -181 -674 -494 -674c-205 0 -328 106 -328 346c0 309 199 631 559 631c15 0 25 -2 35 -2c-108 131 -250 215 -250 348c0 104 68 151 222 151h209c149 0 180 -10 206 99h90
c-65 -314 -133 -373 -346 -373zM379 176c186 0 246 432 246 533c0 108 -27 135 -78 135c-197 0 -275 -410 -275 -516c0 -121 31 -152 107 -152zM1386 1296c0 -90 -73 -161 -163 -161s-162 71 -162 161s72 164 162 164s163 -74 163 -164zM1427 367h86
c-114 -334 -321 -379 -430 -379c-122 0 -219 73 -219 245c0 37 6 82 17 134l139 657h295l-148 -696c-6 -23 -8 -45 -8 -66c0 -57 27 -76 84 -76c80 0 154 76 184 181z" />
    <glyph glyph-name="afii10066_afii10104" unicode="&#x431;&#x457;" horiz-adv-x="1427" 
d="M662 1192h-58c-14 0 -26 -2 -26 -25c0 -34 217 -204 217 -501c0 -299 -181 -674 -494 -674c-205 0 -328 106 -328 346c0 309 199 631 559 631c15 0 25 -2 35 -2c-108 131 -250 215 -250 348c0 104 68 151 222 151h172c149 0 180 -10 207 99h90
c-66 -314 -134 -373 -346 -373zM379 176c186 0 246 432 246 533c0 108 -27 135 -78 135c-197 0 -275 -410 -275 -516c0 -121 31 -152 107 -152zM1427 367h86c-114 -334 -321 -379 -430 -379c-122 0 -219 73 -219 245c0 37 6 82 17 134l139 657h295l-148 -696
c-6 -23 -8 -45 -8 -66c0 -57 27 -76 84 -76c80 0 154 76 184 181zM1245 1298c0 -71 -57 -124 -125 -124c-71 0 -125 53 -125 124c0 68 54 125 125 125c68 0 125 -57 125 -125zM1552 1298c0 -71 -57 -124 -125 -124c-71 0 -124 53 -124 124c0 68 53 125 124 125
c68 0 125 -57 125 -125z" />
    <glyph glyph-name="afii10066_afii10105" unicode="&#x431;&#x458;" horiz-adv-x="1370" 
d="M698 1192h-94c-14 0 -26 -2 -26 -25c0 -34 217 -204 217 -501c0 -299 -181 -674 -494 -674c-205 0 -328 106 -328 346c0 309 199 631 559 631c15 0 25 -2 35 -2c-108 131 -250 215 -250 348c0 104 68 151 222 151h209c149 0 180 -10 206 99h90
c-65 -314 -133 -373 -346 -373zM1094 -16l-31 -148c-59 -293 -234 -348 -369 -348c-125 0 -229 66 -229 199c0 172 180 256 334 305l221 1032h295l-203 -950c125 43 201 114 258 293h86c-82 -271 -235 -351 -362 -383zM379 176c186 0 246 432 246 533c0 108 -27 135 -78 135
c-197 0 -275 -410 -275 -516c0 -121 31 -152 107 -152zM1368 1298c0 -90 -74 -161 -164 -161s-162 71 -162 161c0 91 72 164 162 164s164 -73 164 -164zM766 -170l12 59c-106 -39 -200 -92 -200 -174c0 -30 22 -67 69 -67c43 0 92 59 119 182z" />
    <glyph glyph-name="afii10066_afii10110" unicode="&#x431;&#x45e;" horiz-adv-x="1876" 
d="M1599 -16l-30 -148c-60 -293 -234 -348 -369 -348c-125 0 -229 66 -229 199c0 172 180 256 334 305l24 110c-88 -96 -174 -114 -246 -114c-122 0 -219 73 -219 245c0 37 6 82 17 134l139 657h295l-148 -696c-4 -17 -6 -33 -6 -52c0 -47 15 -90 62 -90
c75 0 129 72 159 168l144 670h295l-203 -950c125 43 201 114 258 293h86c-82 -271 -236 -351 -363 -383zM760 1192h-156c-14 0 -26 -2 -26 -25c0 -34 217 -204 217 -501c0 -299 -181 -674 -494 -674c-205 0 -328 106 -328 346c0 309 199 631 559 631c15 0 25 -2 35 -2
c-108 131 -250 215 -250 348c0 104 68 151 222 151h270c149 0 180 -10 207 99h90c-66 -314 -133 -373 -346 -373zM379 176c186 0 246 432 246 533c0 108 -27 135 -78 135c-197 0 -275 -410 -275 -516c0 -121 31 -152 107 -152zM1759 1473h86c-92 -271 -239 -349 -432 -349
c-170 0 -266 68 -266 176c0 89 53 150 137 150c80 0 127 -39 127 -111c0 -16 -2 -67 -49 -98c20 -6 47 -8 82 -8c115 0 244 53 315 240zM1272 -170l12 59c-106 -39 -201 -92 -201 -174c0 -30 23 -67 70 -67c43 0 92 59 119 182z" />
    <glyph glyph-name="afii10066_afii10071" unicode="&#x431;&#x451;" horiz-adv-x="1667" 
d="M739 1192h-135c-14 0 -26 -2 -26 -25c0 -34 217 -204 217 -501c0 -299 -181 -674 -494 -674c-205 0 -328 106 -328 346c0 309 199 631 559 631c15 0 25 -2 35 -2c-108 131 -250 215 -250 348c0 104 68 151 222 151h249c150 0 181 -10 207 99h90
c-65 -314 -133 -373 -346 -373zM1667 367h70c-115 -191 -293 -379 -563 -379c-195 0 -320 94 -320 325c0 236 133 729 553 729c182 0 225 -94 225 -196c0 -238 -225 -416 -471 -432c-2 -31 -4 -58 -4 -82c0 -139 49 -172 148 -172c161 0 258 92 362 207zM379 176
c186 0 246 432 246 533c0 108 -27 135 -78 135c-197 0 -275 -410 -275 -516c0 -121 31 -152 107 -152zM1178 512c155 10 297 168 297 338c0 51 -13 84 -52 84c-102 0 -206 -219 -245 -422zM1743 1298c0 -71 -57 -124 -125 -124c-72 0 -125 53 -125 124c0 68 53 125 125 125
c68 0 125 -57 125 -125zM1374 1298c0 -71 -57 -124 -125 -124c-71 0 -125 53 -125 124c0 68 54 125 125 125c68 0 125 -57 125 -125z" />
    <glyph glyph-name="afii10066_afii10075" unicode="&#x431;&#x439;" horiz-adv-x="1915" 
d="M760 1192h-156c-14 0 -26 -2 -26 -25c0 -34 217 -204 217 -501c0 -299 -181 -674 -494 -674c-205 0 -328 106 -328 346c0 309 199 631 559 631c15 0 25 -2 35 -2c-108 131 -250 215 -250 348c0 104 68 151 222 151h270c149 0 180 -10 207 99h90
c-66 -314 -133 -373 -346 -373zM379 176c186 0 246 432 246 533c0 108 -27 135 -78 135c-197 0 -275 -410 -275 -516c0 -121 31 -152 107 -152zM1759 1473h86c-92 -271 -239 -349 -432 -349c-170 0 -266 68 -266 176c0 89 53 150 137 150c80 0 127 -39 127 -111
c0 -16 -2 -67 -49 -98c20 -6 47 -8 82 -8c115 0 244 53 315 240zM1915 367h86c-115 -334 -303 -379 -412 -379c-116 0 -188 65 -203 194c-102 -168 -217 -194 -303 -194c-122 0 -219 73 -219 245c0 37 6 82 17 134l139 657h295l-148 -696c-4 -21 -6 -39 -6 -58
c0 -47 15 -84 62 -84c80 0 133 76 163 181l140 657h295l-148 -696c-6 -23 -8 -45 -8 -66c0 -57 27 -76 84 -76c80 0 135 76 166 181z" />
    <glyph glyph-name="afii10067_afii10068" unicode="&#x432;&#x433;" horiz-adv-x="1714" 
d="M1714 367h70c-131 -209 -303 -379 -563 -379c-195 0 -318 69 -318 231c0 305 389 311 389 541c0 59 -30 96 -86 96c-102 0 -225 -94 -430 -211c15 -39 23 -84 23 -135c0 -268 -181 -518 -488 -518c-235 0 -340 155 -340 368c0 295 271 1178 635 1178
c137 0 225 -78 225 -281c0 -172 -96 -366 -167 -491c22 -10 43 -27 63 -45c164 92 367 321 623 321c147 0 252 -86 252 -231c0 -336 -388 -350 -388 -543c0 -80 58 -108 146 -108c121 0 223 53 354 207zM594 575c-23 -8 -35 -12 -74 -12c-63 0 -106 37 -106 101
c0 88 61 116 143 122c72 132 143 328 143 480c0 84 -20 112 -67 112c-176 0 -357 -807 -357 -1024c0 -106 35 -178 125 -178c134 0 211 154 211 287c0 51 -6 88 -18 112z" />
    <glyph glyph-name="afii10067_afii10100" unicode="&#x432;&#x453;" horiz-adv-x="1714" 
d="M1714 367h70c-131 -209 -303 -379 -563 -379c-195 0 -318 69 -318 231c0 305 389 311 389 541c0 59 -30 96 -86 96c-102 0 -225 -94 -430 -211c15 -39 23 -84 23 -135c0 -268 -181 -518 -488 -518c-235 0 -340 155 -340 368c0 295 271 1178 635 1178
c137 0 225 -78 225 -281c0 -172 -96 -366 -167 -491c22 -10 43 -27 63 -45c164 92 367 321 623 321c147 0 252 -86 252 -231c0 -336 -388 -350 -388 -543c0 -80 58 -108 146 -108c121 0 223 53 354 207zM594 575c-23 -8 -35 -12 -74 -12c-63 0 -106 37 -106 101
c0 88 61 116 143 122c72 132 143 328 143 480c0 84 -20 112 -67 112c-176 0 -357 -807 -357 -1024c0 -106 35 -178 125 -178c134 0 211 154 211 287c0 51 -6 88 -18 112zM1397 1149h-154l187 387h215z" />
    <glyph glyph-name="afii10067_afii10072" unicode="&#x432;&#x436;" horiz-adv-x="2619" 
d="M2619 367h86c-65 -189 -215 -379 -430 -379c-186 0 -299 127 -299 325c0 56 2 115 17 179h-117l-102 -492h-275l105 492h-117c-49 -240 -187 -504 -436 -504c-166 0 -211 96 -211 188c0 100 47 150 104 150c23 0 49 -9 72 -25c-15 -47 -21 -86 -21 -121
c0 -51 17 -84 47 -84c109 0 222 338 222 580c0 158 -39 215 -111 215c-84 0 -221 -64 -379 -244c14 -39 25 -82 25 -137c0 -268 -181 -518 -488 -518c-235 0 -340 155 -340 368c0 295 271 1178 635 1178c137 0 225 -78 225 -281c0 -172 -96 -366 -167 -491
c22 -10 43 -25 61 -43c217 260 379 319 510 319c158 0 278 -127 278 -325c0 -31 -2 -66 -6 -103h123l86 410h275l-86 -410h114c66 217 197 428 420 428c166 0 211 -96 211 -188c0 -100 -47 -149 -104 -149c-23 0 -49 8 -72 24c14 47 20 86 20 121c0 51 -16 84 -47 84
c-108 0 -221 -338 -221 -580c0 -149 62 -215 152 -215c96 0 190 72 241 228zM594 575c-23 -8 -35 -12 -74 -12c-63 0 -106 37 -106 101c0 88 61 116 143 122c72 132 143 328 143 480c0 84 -20 112 -67 112c-176 0 -357 -807 -357 -1024c0 -106 35 -178 125 -178
c134 0 211 154 211 287c0 51 -6 88 -18 112z" />
    <glyph glyph-name="afii10067_afii10073" unicode="&#x432;&#x437;" horiz-adv-x="1688" 
d="M1688 367h86c-82 -279 -248 -357 -375 -390c-6 -309 -160 -489 -387 -489c-125 0 -230 66 -230 199c0 166 168 252 322 301c-4 145 -53 217 -148 217h-63l27 123h59c147 0 252 157 252 372c0 80 -21 156 -105 156c-98 0 -213 -94 -358 -203c20 -45 31 -92 31 -143
c0 -268 -181 -518 -488 -518c-235 0 -340 155 -340 368c0 295 271 1178 635 1178c137 0 225 -78 225 -281c0 -172 -96 -366 -167 -491c18 -8 34 -21 51 -37c106 90 286 313 522 313c207 0 303 -139 303 -325c0 -268 -235 -436 -317 -453c63 -22 141 -96 168 -205
c147 43 231 111 297 308zM594 575c-23 -8 -35 -12 -74 -12c-63 0 -106 37 -106 101c0 88 61 116 143 122c72 132 143 328 143 480c0 84 -20 112 -67 112c-176 0 -357 -807 -357 -1024c0 -106 35 -178 125 -178c134 0 211 154 211 287c0 51 -6 88 -18 112zM1098 -111
c-107 -36 -203 -92 -203 -174c0 -39 23 -67 70 -67c59 0 116 112 133 241z" />
    <glyph glyph-name="afii10067_afii10087" unicode="&#x432;&#x445;" horiz-adv-x="1743" 
d="M1743 367h86c-109 -318 -299 -379 -418 -379c-123 0 -209 104 -250 356l-282 -344h-148l414 467l-33 229c-22 138 -43 170 -74 170c-55 0 -98 -37 -272 -211c22 -47 33 -96 33 -145c0 -268 -181 -518 -488 -518c-235 0 -340 155 -340 368c0 295 271 1178 635 1178
c137 0 225 -78 225 -281c0 -172 -96 -366 -167 -491c18 -8 34 -21 51 -37c153 137 274 305 456 305c162 0 197 -139 207 -243l23 -183c129 142 194 240 201 322c-15 -2 -25 -4 -35 -4c-72 0 -97 51 -97 114c0 72 66 101 140 101c76 0 114 -97 114 -187
c0 -131 -102 -247 -309 -471l17 -118c16 -134 55 -179 127 -179c79 0 153 76 184 181zM594 575c-23 -8 -35 -12 -74 -12c-63 0 -106 37 -106 101c0 88 61 116 143 122c72 132 143 328 143 480c0 84 -20 112 -67 112c-176 0 -357 -807 -357 -1024c0 -106 35 -178 125 -178
c134 0 211 154 211 287c0 51 -6 88 -18 112z" />
    <glyph glyph-name="afii10068_afii10073" unicode="&#x433;&#x437;" horiz-adv-x="1720" 
d="M1720 367h86c-82 -279 -247 -357 -374 -390c-7 -309 -160 -489 -388 -489c-124 0 -229 66 -229 199c0 166 168 252 322 301c-4 145 -54 217 -148 217h-63l26 123h60c147 0 252 157 252 352c0 80 -23 176 -115 176c-129 0 -207 -141 -344 -410
c-131 -253 -250 -458 -551 -458c-172 0 -297 69 -297 231c0 305 434 311 434 541c0 59 -31 96 -94 96c-88 0 -158 -63 -221 -213h-99c82 234 205 399 447 399c145 0 276 -67 276 -231c0 -336 -432 -350 -432 -543c0 -80 60 -108 125 -108c154 0 246 147 334 321
c147 285 242 561 557 561c174 0 289 -118 289 -325c0 -268 -236 -436 -318 -453c64 -22 142 -96 168 -205c148 43 232 111 297 308zM1130 -111c-106 -36 -202 -92 -202 -174c0 -39 22 -67 69 -67c60 0 117 112 133 241z" />
    <glyph glyph-name="afii10068_afii10087" unicode="&#x433;&#x445;" horiz-adv-x="1516" 
d="M1516 367h86c-115 -334 -308 -379 -416 -379c-142 0 -203 102 -256 340c-195 -185 -406 -340 -668 -340c-180 0 -305 69 -305 231c0 305 434 311 434 541c0 59 -31 96 -94 96c-88 0 -158 -63 -221 -213h-99c82 234 205 399 447 399c145 0 276 -67 276 -231
c0 -336 -432 -350 -432 -543c0 -80 58 -108 146 -108c168 0 334 135 491 276l-131 588h289l92 -414c131 121 209 217 209 297c0 11 0 19 -2 25c-14 -2 -25 -4 -35 -4c-72 0 -96 51 -96 114c0 64 51 97 115 97c92 0 139 -82 139 -183c0 -137 -90 -266 -305 -458l30 -131
c17 -76 31 -181 121 -181c80 0 154 76 185 181z" />
    <glyph glyph-name="afii10068_afii10089" unicode="&#x433;&#x447;" horiz-adv-x="1802" 
d="M1802 367h86c-114 -334 -303 -379 -411 -379c-123 0 -220 73 -220 245c0 37 7 82 17 134l10 51c-88 -96 -174 -115 -246 -115c-90 0 -164 37 -198 125c-121 -231 -334 -440 -566 -440c-202 0 -317 69 -317 231c0 305 434 311 434 541c0 59 -31 96 -94 96
c-88 0 -158 -63 -221 -213h-99c82 234 205 399 447 399c145 0 276 -67 276 -231c0 -336 -432 -350 -432 -543c0 -80 56 -108 146 -108c137 0 344 213 415 497l7 25l71 342h295l-80 -381c-4 -20 -6 -39 -6 -57c0 -47 14 -84 62 -84c79 0 141 73 163 180l72 342h295l-147 -696
c-7 -23 -9 -45 -9 -66c0 -57 27 -76 84 -76c80 0 136 76 166 181z" />
    <glyph glyph-name="afii10100_afii10073" unicode="&#x453;&#x437;" horiz-adv-x="1720" 
d="M1720 367h86c-82 -279 -247 -357 -374 -390c-7 -309 -160 -489 -388 -489c-124 0 -229 66 -229 199c0 166 168 252 322 301c-4 145 -54 217 -148 217h-63l26 123h60c147 0 252 157 252 352c0 80 -23 176 -115 176c-129 0 -207 -141 -344 -410
c-131 -253 -250 -458 -551 -458c-172 0 -297 69 -297 231c0 305 434 311 434 541c0 59 -31 96 -94 96c-88 0 -158 -63 -221 -213h-99c82 234 205 399 447 399c145 0 276 -67 276 -231c0 -336 -432 -350 -432 -543c0 -80 60 -108 125 -108c154 0 246 147 334 321
c147 285 242 561 557 561c174 0 289 -118 289 -325c0 -268 -236 -436 -318 -453c64 -22 142 -96 168 -205c148 43 232 111 297 308zM1130 -111c-106 -36 -202 -92 -202 -174c0 -39 22 -67 69 -67c60 0 117 112 133 241zM573 1149h-153l186 387h215z" />
    <glyph glyph-name="afii10100_afii10087" unicode="&#x453;&#x445;" horiz-adv-x="1516" 
d="M1516 367h86c-115 -334 -308 -379 -416 -379c-142 0 -203 102 -256 340c-195 -185 -406 -340 -668 -340c-180 0 -305 69 -305 231c0 305 434 311 434 541c0 59 -31 96 -94 96c-88 0 -158 -63 -221 -213h-99c82 234 205 399 447 399c145 0 276 -67 276 -231
c0 -336 -432 -350 -432 -543c0 -80 58 -108 146 -108c168 0 334 135 491 276l-131 588h289l92 -414c131 121 209 217 209 297c0 11 0 19 -2 25c-14 -2 -25 -4 -35 -4c-72 0 -96 51 -96 114c0 64 51 97 115 97c92 0 139 -82 139 -183c0 -137 -90 -266 -305 -458l30 -131
c17 -76 31 -181 121 -181c80 0 154 76 185 181zM573 1149h-153l186 387h215z" />
    <glyph glyph-name="afii10100_afii10089" unicode="&#x453;&#x447;" horiz-adv-x="1802" 
d="M1802 367h86c-114 -334 -303 -379 -411 -379c-123 0 -220 73 -220 245c0 37 7 82 17 134l10 51c-88 -96 -174 -115 -246 -115c-90 0 -164 37 -198 125c-121 -231 -334 -440 -566 -440c-202 0 -317 69 -317 231c0 305 434 311 434 541c0 59 -31 96 -94 96
c-88 0 -158 -63 -221 -213h-99c82 234 205 399 447 399c145 0 276 -67 276 -231c0 -336 -432 -350 -432 -543c0 -80 56 -108 146 -108c137 0 344 213 415 497l78 367h295l-80 -381c-4 -20 -6 -39 -6 -57c0 -47 14 -84 62 -84c79 0 141 76 163 180l72 342h295l-147 -696
c-7 -23 -9 -45 -9 -66c0 -57 27 -76 84 -76c80 0 136 76 166 181zM573 1149h-153l186 387h215z" />
    <glyph glyph-name="afii10069_afii10089" unicode="&#x434;&#x447;" horiz-adv-x="2068" 
d="M2068 367h86c-114 -334 -303 -379 -411 -379c-123 0 -219 73 -219 245c0 37 6 82 16 134l10 51c-88 -96 -174 -115 -245 -115c-74 0 -138 27 -179 84c-65 -278 -235 -367 -364 -403l-31 -148c-59 -293 -233 -348 -369 -348c-124 0 -229 66 -229 199
c0 172 180 256 334 305l25 108c-60 -63 -140 -112 -246 -112c-140 0 -273 86 -273 329c0 279 170 717 527 717c116 0 166 -45 166 -104v-12l22 106h295l-203 -950c135 49 228 139 271 352l123 598h294l-79 -381c-5 -20 -7 -39 -7 -57c0 -47 15 -84 62 -84
c80 0 141 76 164 180l71 342h295l-147 -696c-6 -23 -8 -45 -8 -66c0 -57 26 -76 84 -76c79 0 135 76 165 181zM543 346l104 485c0 25 -18 76 -84 76c-174 0 -287 -368 -287 -561c0 -156 66 -160 103 -160c55 0 137 56 164 160zM434 -170l12 59c-106 -39 -200 -92 -200 -174
c0 -30 22 -67 69 -67c43 0 93 59 119 182z" />
    <glyph glyph-name="afii10069_afii10105" unicode="&#x434;&#x458;" horiz-adv-x="1528" 
d="M1253 -6l-32 -158c-60 -293 -236 -348 -371 -348c-115 0 -184 49 -217 121c-80 -96 -182 -121 -271 -121c-124 0 -229 66 -229 199c0 163 148 239 330 278l29 137c-60 -63 -140 -114 -246 -114c-140 0 -273 86 -273 329c0 279 170 717 527 717c116 0 166 -45 166 -104
v-15l22 109h295l-217 -1016c33 2 63 4 94 10l105 11l213 995h295l-201 -940c123 41 215 119 256 283h86c-66 -238 -191 -330 -361 -373zM545 352l4 15l98 462c0 25 -18 78 -84 78c-174 0 -287 -368 -287 -561c0 -156 66 -160 103 -160c57 0 139 54 166 166zM1526 1298
c0 -90 -74 -161 -164 -161s-162 71 -162 161c0 91 72 164 162 164s164 -73 164 -164zM924 -170l24 117c-30 -2 -61 -4 -92 -10l-106 -11l-19 -90c-10 -51 -26 -92 -43 -131c23 -24 51 -35 90 -35c72 0 119 37 146 160zM434 -170l10 47c-116 -31 -198 -78 -198 -162
c0 -32 22 -67 69 -67c43 0 93 59 119 182z" />
    <glyph glyph-name="afii10071_afii10073" unicode="&#x451;&#x437;" horiz-adv-x="1794" 
d="M1794 367h86c-82 -279 -248 -357 -375 -390c-6 -309 -159 -489 -387 -489c-125 0 -229 66 -229 199c0 166 168 252 321 301c-4 145 -53 217 -147 217h-64l27 123h59c148 0 252 157 252 352c0 80 -20 176 -125 176c-122 0 -206 -84 -305 -324
c-110 -264 -262 -544 -614 -544c-195 0 -320 94 -320 325c0 236 133 729 553 729c183 0 226 -94 226 -196c0 -238 -226 -416 -471 -432c-2 -31 -5 -58 -5 -82c0 -139 50 -172 148 -172c229 0 317 184 403 389c117 264 199 493 496 493c197 0 324 -118 324 -325
c0 -268 -236 -436 -318 -453c64 -22 141 -96 168 -205c148 43 232 111 297 308zM297 512c156 10 297 168 297 338c0 51 -12 84 -51 84c-103 0 -207 -219 -246 -422zM862 1298c0 -71 -57 -124 -125 -124c-71 0 -125 53 -125 124c0 68 54 125 125 125c68 0 125 -57 125 -125z
M494 1298c0 -71 -58 -124 -125 -124c-72 0 -125 53 -125 124c0 68 53 125 125 125c67 0 125 -57 125 -125zM1204 -111c-106 -36 -203 -92 -203 -174c0 -39 23 -67 70 -67c59 0 117 112 133 241z" />
    <glyph glyph-name="afii10070_afii10089" unicode="&#x435;&#x447;" horiz-adv-x="1821" 
d="M1821 367h86c-115 -334 -303 -379 -412 -379c-123 0 -219 73 -219 245c0 37 6 82 16 134l11 51c-89 -96 -175 -115 -246 -115c-90 0 -164 37 -199 125c-115 -217 -323 -440 -565 -440c-195 0 -320 94 -320 325c0 236 133 729 553 729c183 0 226 -94 226 -196
c0 -238 -226 -416 -471 -432c-2 -31 -5 -58 -5 -82c0 -139 52 -172 140 -172c157 0 379 235 438 522l72 342h295l-80 -381c-4 -20 -6 -39 -6 -57c0 -47 14 -84 61 -84c80 0 141 76 164 180l72 342h294l-147 -696c-6 -23 -8 -45 -8 -66c0 -57 26 -76 84 -76
c80 0 135 76 166 181zM297 512c156 10 297 168 297 338c0 51 -12 84 -51 84c-103 0 -207 -219 -246 -422z" />
    <glyph glyph-name="afii10071_afii10089" unicode="&#x451;&#x447;" horiz-adv-x="1821" 
d="M1821 367h86c-115 -334 -303 -379 -412 -379c-123 0 -219 73 -219 245c0 37 6 82 16 134l11 51c-89 -96 -175 -115 -246 -115c-90 0 -164 37 -199 125c-115 -217 -323 -440 -565 -440c-195 0 -320 94 -320 325c0 236 133 729 553 729c183 0 226 -94 226 -196
c0 -238 -226 -416 -471 -432c-2 -31 -5 -58 -5 -82c0 -139 52 -172 140 -172c219 0 399 342 438 522l72 342h295l-80 -381c-4 -20 -6 -39 -6 -57c0 -47 14 -84 61 -84c80 0 141 76 164 180l72 342h294l-147 -696c-6 -23 -8 -45 -8 -66c0 -57 26 -76 84 -76
c80 0 135 76 166 181zM297 512c156 10 297 168 297 338c0 51 -12 84 -51 84c-103 0 -207 -219 -246 -422zM494 1298c0 -71 -58 -124 -125 -124c-72 0 -125 53 -125 124c0 68 53 125 125 125c67 0 125 -57 125 -125zM862 1298c0 -71 -57 -124 -125 -124
c-71 0 -125 53 -125 124c0 68 54 125 125 125c68 0 125 -57 125 -125z" />
    <glyph glyph-name="afii10072_afii10089" unicode="&#x436;&#x447;" horiz-adv-x="2851" 
d="M2841 367h86c-115 -334 -304 -379 -412 -379c-123 0 -219 73 -219 245c0 37 6 82 16 134l10 51c-88 -96 -174 -115 -245 -115c-88 0 -160 35 -195 115c-82 -195 -237 -430 -481 -430c-187 0 -299 127 -299 325c0 56 2 115 16 179h-117l-102 -492h-274l104 492h-115
c-49 -240 -186 -504 -446 -504c-184 0 -244 108 -244 217c0 114 56 172 121 172c23 0 51 -6 74 -29c-19 -49 -27 -94 -27 -135c0 -88 41 -117 74 -117c115 0 223 338 223 580c0 149 -43 215 -125 215c-80 0 -119 -55 -158 -154h-106c55 187 147 305 340 305
c188 0 299 -127 299 -325c0 -35 -2 -68 -6 -103h123l86 410h274l-86 -410h115c65 217 196 428 420 428c166 0 211 -96 211 -188c0 -100 -47 -149 -105 -149c-22 0 -49 8 -72 24c15 47 21 86 21 121c0 51 -16 84 -47 84c-109 0 -221 -338 -221 -580c0 -149 61 -215 151 -215
c135 0 312 269 371 547l72 338h295l-80 -381c-4 -20 -7 -39 -7 -57c0 -47 15 -84 62 -84c80 0 139 71 162 176l73 346h295l-147 -696c-6 -23 -8 -45 -8 -66c0 -57 26 -76 84 -76c80 0 135 76 166 181z" />
    <glyph glyph-name="afii10074_afii10089" unicode="&#x438;&#x447;" horiz-adv-x="2068" 
d="M2068 367h86c-114 -334 -303 -379 -411 -379c-123 0 -219 73 -219 245c0 37 6 82 16 134l10 51c-88 -96 -174 -115 -245 -115c-74 0 -140 27 -179 86c-69 -221 -200 -401 -417 -401c-117 0 -189 65 -203 194c-103 -168 -217 -194 -303 -194c-123 0 -219 73 -219 245
c0 37 6 82 16 134l139 657h295l-147 -696c-4 -21 -6 -39 -6 -58c0 -47 14 -84 61 -84c80 0 133 76 164 181l139 657h295l-147 -696c-7 -23 -9 -45 -9 -66c0 -57 27 -76 84 -76c166 0 211 400 236 504l70 334h294l-79 -381c-5 -20 -7 -39 -7 -57c0 -47 15 -84 62 -84
c80 0 141 73 164 180l71 342h295l-147 -696c-6 -23 -8 -45 -8 -66c0 -57 26 -76 84 -76c79 0 135 76 165 181z" />
    <glyph glyph-name="afii10075_afii10089" unicode="&#x439;&#x447;" horiz-adv-x="2068" 
d="M2068 367h86c-114 -334 -303 -379 -411 -379c-123 0 -219 73 -219 245c0 37 6 82 16 134l10 51c-88 -96 -174 -115 -245 -115c-74 0 -140 27 -179 86c-69 -221 -200 -401 -417 -401c-117 0 -189 65 -203 194c-103 -168 -217 -194 -303 -194c-123 0 -219 73 -219 245
c0 37 6 82 16 134l139 657h295l-147 -696c-4 -21 -6 -39 -6 -58c0 -47 14 -84 61 -84c80 0 133 76 164 181l139 657h295l-147 -696c-7 -23 -9 -45 -9 -66c0 -57 27 -76 84 -76c162 0 211 389 234 500l72 338h294l-79 -381c-5 -20 -7 -39 -7 -57c0 -47 15 -84 62 -84
c80 0 139 71 162 176l73 346h295l-147 -696c-6 -23 -8 -45 -8 -66c0 -57 26 -76 84 -76c79 0 135 76 165 181zM879 1473h86c-93 -271 -240 -349 -433 -349c-170 0 -266 68 -266 176c0 89 53 150 137 150c80 0 127 -39 127 -111c0 -16 -2 -67 -49 -98c21 -6 47 -8 82 -8
c115 0 244 53 316 240z" />
    <glyph glyph-name="afii10070_afii10073" unicode="&#x435;&#x437;" horiz-adv-x="1794" 
d="M1794 367h86c-82 -279 -248 -357 -375 -390c-6 -309 -159 -489 -387 -489c-125 0 -229 66 -229 199c0 166 168 252 321 301c-4 145 -53 217 -147 217h-64l27 123h59c148 0 252 157 252 352c0 80 -20 176 -125 176c-122 0 -206 -84 -305 -324
c-110 -264 -262 -544 -614 -544c-195 0 -320 94 -320 325c0 236 133 729 553 729c183 0 226 -94 226 -196c0 -238 -226 -416 -471 -432c-2 -31 -5 -58 -5 -82c0 -139 50 -172 148 -172c229 0 317 184 403 389c117 264 199 493 496 493c197 0 324 -118 324 -325
c0 -268 -236 -436 -318 -453c64 -22 141 -96 168 -205c148 43 232 111 297 308zM297 512c156 10 297 168 297 338c0 51 -12 84 -51 84c-103 0 -207 -219 -246 -422zM1204 -111c-106 -36 -203 -92 -203 -174c0 -39 23 -67 70 -67c59 0 117 112 133 241z" />
    <glyph glyph-name="afii10076_afii10089" unicode="&#x43a;&#x447;" horiz-adv-x="2081" 
d="M2095 367h86c-115 -334 -303 -379 -412 -379c-122 0 -219 73 -219 245c0 37 6 82 17 134l10 51c-88 -96 -174 -115 -246 -115c-80 0 -147 31 -186 96c-98 -336 -258 -411 -406 -411c-166 0 -247 88 -247 227c0 68 24 147 24 195c0 65 -27 98 -78 98
c-39 0 -67 -25 -131 -76l-90 -432h-295l219 1024h295l-88 -406c291 291 352 424 512 424c96 0 141 -59 141 -135c0 -82 -47 -133 -129 -133c-81 0 -114 57 -112 105c-92 -56 -156 -148 -242 -234c31 6 62 8 86 8c148 0 195 -67 195 -190c0 -64 -25 -129 -25 -201
c0 -51 29 -76 88 -76c76 0 174 39 256 439l82 399h295l-80 -381c-4 -20 -6 -39 -6 -57c0 -47 14 -84 61 -84c80 0 142 73 164 180l72 342h295l-148 -696c-6 -23 -8 -45 -8 -66c0 -57 27 -76 84 -76c80 0 135 76 166 181z" />
    <glyph glyph-name="afii10109_afii10089" unicode="&#x45c;&#x447;" horiz-adv-x="2081" 
d="M2095 367h86c-115 -334 -303 -379 -412 -379c-122 0 -219 73 -219 245c0 37 6 82 17 134l10 51c-88 -96 -174 -115 -246 -115c-80 0 -147 31 -186 96c-98 -342 -262 -411 -408 -411c-164 0 -245 88 -245 227c0 68 24 147 24 195c0 65 -27 98 -78 98
c-39 0 -67 -25 -131 -76l-90 -432h-295l219 1024h295l-88 -406c291 291 352 424 512 424c96 0 141 -59 141 -135c0 -82 -47 -133 -129 -133c-81 0 -114 57 -112 105c-92 -56 -156 -148 -242 -234c31 6 62 8 86 8c148 0 195 -67 195 -190c0 -64 -25 -129 -25 -201
c0 -51 29 -76 88 -76c76 0 174 39 256 439l82 399h295l-80 -381c-4 -20 -6 -39 -6 -57c0 -47 14 -84 61 -84c80 0 142 76 164 180l72 342h295l-148 -696c-6 -23 -8 -45 -8 -66c0 -57 27 -76 84 -76c80 0 135 76 166 181zM629 1149h-154l187 387h215z" />
    <glyph glyph-name="afii10077_afii10089" unicode="&#x43b;&#x447;" horiz-adv-x="2173" 
d="M2173 367h86c-115 -334 -303 -379 -412 -379c-123 0 -219 73 -219 245c0 37 6 82 17 134l10 51c-88 -96 -174 -115 -246 -115c-74 0 -137 27 -178 84c-88 -278 -254 -399 -383 -399c-166 0 -242 104 -242 217c0 57 15 147 45 278l90 406c-141 0 -198 -109 -258 -393
c-71 -330 -114 -508 -336 -508c-155 0 -225 110 -225 235c0 96 47 160 127 160c64 0 107 -43 107 -107c0 -67 -39 -100 -82 -94c6 -30 16 -65 80 -65c137 0 149 190 198 399c99 426 201 508 406 508h289l-109 -508c-31 -131 -49 -209 -49 -244c0 -57 26 -86 82 -86
c129 0 178 232 227 461l80 377h295l-80 -381c-4 -20 -6 -39 -6 -57c0 -47 14 -84 61 -84c80 0 142 76 164 180l72 342h295l-148 -696c-6 -23 -8 -45 -8 -66c0 -57 27 -76 84 -76c80 0 135 76 166 181z" />
    <glyph glyph-name="afii10078_afii10089" unicode="&#x43c;&#x447;" horiz-adv-x="2613" 
d="M2613 367h86c-114 -334 -303 -379 -411 -379c-123 0 -220 73 -220 245c0 37 7 82 17 134l10 51c-88 -96 -174 -115 -246 -115c-73 0 -137 27 -178 84c-88 -278 -254 -399 -383 -399c-166 0 -241 104 -241 217c0 57 14 147 45 278l30 138l-303 -621h-287l-36 625l-27 -129
c-66 -326 -109 -508 -322 -508c-155 0 -225 127 -225 235c0 96 47 154 127 154c64 0 107 -43 107 -107c0 -67 -39 -100 -82 -94c-2 -31 14 -78 80 -78c143 0 168 207 211 418l108 508h287l43 -786l381 786h303l-109 -508c-30 -131 -49 -209 -49 -244c0 -57 27 -86 82 -86
c129 0 178 232 227 461l80 377h295l-80 -381c-4 -20 -6 -39 -6 -57c0 -47 15 -84 62 -84c79 0 141 73 163 180l72 342h295l-147 -696c-7 -23 -9 -45 -9 -66c0 -57 27 -76 84 -76c80 0 136 76 166 181z" />
    <glyph glyph-name="afii10079_afii10089" unicode="&#x43d;&#x447;" horiz-adv-x="2071" 
d="M2071 367h86c-115 -334 -304 -379 -412 -379c-123 0 -219 73 -219 245c0 37 6 82 16 134l10 51c-88 -96 -174 -115 -245 -115c-74 0 -140 27 -179 86c-79 -256 -221 -401 -385 -401c-165 0 -241 104 -241 217c0 55 20 157 47 287h-227l-105 -492h-295l217 1024h295
l-88 -410h229l93 410h274l-108 -508c-31 -131 -50 -209 -50 -244c0 -57 27 -86 82 -86c127 0 168 185 230 459l80 379h294l-79 -381c-5 -20 -7 -39 -7 -57c0 -47 15 -84 62 -84c80 0 141 76 164 180l71 342h295l-147 -696c-6 -23 -8 -45 -8 -66c0 -57 26 -76 84 -76
c80 0 135 76 166 181z" />
    <glyph glyph-name="afii10080_afii10068" unicode="&#x43e;&#x433;" horiz-adv-x="1647" 
d="M1667 367h70c-131 -209 -303 -379 -563 -379c-195 0 -318 69 -318 231c0 305 434 311 434 541c0 59 -30 96 -94 96c-109 0 -252 -156 -405 -248h-3c-32 -379 -237 -616 -489 -616c-190 0 -328 88 -328 323c0 238 142 727 561 727c175 0 263 -108 263 -327v-2
c120 104 292 329 528 329c145 0 276 -67 276 -231c0 -336 -432 -350 -432 -543c0 -80 58 -108 146 -108c121 0 223 53 354 207zM618 602c-43 10 -55 45 -55 86c0 57 25 94 64 111c-6 88 -23 119 -78 119c-146 0 -273 -373 -273 -576c0 -135 27 -166 105 -166
c100 0 205 186 237 426z" />
    <glyph glyph-name="afii10080_afii10100" unicode="&#x43e;&#x453;" horiz-adv-x="1647" 
d="M1667 367h70c-131 -209 -303 -379 -563 -379c-195 0 -318 69 -318 231c0 305 434 311 434 541c0 59 -30 96 -94 96c-109 0 -252 -156 -405 -248h-3c-32 -379 -237 -616 -489 -616c-190 0 -328 88 -328 323c0 238 142 727 561 727c175 0 263 -108 263 -327v-2
c120 104 292 329 528 329c145 0 276 -67 276 -231c0 -336 -432 -350 -432 -543c0 -80 58 -108 146 -108c121 0 223 53 354 207zM618 602c-43 10 -55 45 -55 86c0 57 25 94 64 111c-6 88 -23 119 -78 119c-146 0 -273 -373 -273 -576c0 -135 27 -166 105 -166
c100 0 205 186 237 426zM1452 1149h-154l187 387h215z" />
    <glyph glyph-name="afii10096_afii10068" unicode="&#x44e;&#x433;" horiz-adv-x="2150" 
d="M2150 367h70c-131 -209 -303 -379 -563 -379c-195 0 -318 69 -318 231c0 305 435 311 435 541c0 59 -31 96 -95 96c-108 0 -252 -156 -405 -248h-2c-33 -379 -238 -616 -490 -616c-190 0 -327 88 -327 323c0 52 6 111 18 177h-154l-102 -492h-295l217 1024h295l-86 -410
h160c72 213 231 428 508 428c174 0 262 -108 262 -327v-2c121 104 293 329 528 329c146 0 277 -67 277 -231c0 -336 -432 -350 -432 -543c0 -80 57 -108 145 -108c121 0 223 53 354 207zM1102 602c-43 10 -55 45 -55 86c0 57 24 94 63 111c-6 88 -23 119 -78 119
c-145 0 -272 -373 -272 -576c0 -135 26 -166 104 -166c101 0 205 186 238 426z" />
    <glyph glyph-name="afii10096_afii10100" unicode="&#x44e;&#x453;" horiz-adv-x="2150" 
d="M2150 367h70c-131 -209 -303 -379 -563 -379c-195 0 -318 69 -318 231c0 305 435 311 435 541c0 59 -31 96 -95 96c-108 0 -252 -156 -405 -248h-2c-33 -379 -238 -616 -490 -616c-190 0 -327 88 -327 323c0 52 6 111 18 177h-154l-102 -492h-295l217 1024h295l-86 -410
h160c72 213 231 428 508 428c174 0 262 -108 262 -327v-2c121 104 293 329 528 329c146 0 277 -67 277 -231c0 -336 -432 -350 -432 -543c0 -80 57 -108 145 -108c121 0 223 53 354 207zM1102 602c-43 10 -55 45 -55 86c0 57 24 94 63 111c-6 88 -23 119 -78 119
c-145 0 -272 -373 -272 -576c0 -135 26 -166 104 -166c101 0 205 186 238 426zM1935 1149h-153l186 387h215z" />
    <glyph glyph-name="afii10080_afii10072" unicode="&#x43e;&#x436;" horiz-adv-x="2603" 
d="M2603 367h86c-66 -189 -215 -379 -430 -379c-186 0 -299 127 -299 325c0 56 2 115 16 179h-116l-103 -492h-274l104 492h-117c-49 -240 -186 -504 -436 -504c-198 0 -252 108 -252 217c0 114 54 172 125 172c25 0 45 -6 70 -29c-19 -49 -27 -96 -27 -139
c0 -76 35 -113 74 -113c117 0 223 338 223 580c0 158 -39 215 -110 215c-84 0 -183 -96 -346 -283h-3c-32 -379 -237 -616 -489 -616c-190 0 -328 88 -328 323c0 238 142 727 561 727c168 0 256 -102 263 -309c190 275 295 309 426 309c153 0 276 -120 276 -325
c0 -31 -2 -66 -6 -103h123l86 410h274l-86 -410h115c65 217 197 428 420 428c166 0 211 -96 211 -188c0 -100 -47 -149 -105 -149c-22 0 -49 8 -71 24c14 47 20 86 20 121c0 51 -16 84 -47 84c-109 0 -221 -338 -221 -580c0 -149 61 -215 151 -215c97 0 191 72 242 228z
M618 602c-43 10 -55 45 -55 86c0 57 25 94 64 111c-6 88 -23 119 -78 119c-146 0 -273 -373 -273 -576c0 -135 27 -166 105 -166c100 0 205 186 237 426z" />
    <glyph glyph-name="afii10096_afii10072" unicode="&#x44e;&#x436;" horiz-adv-x="3086" 
d="M3086 367h86c-65 -189 -215 -379 -430 -379c-186 0 -299 127 -299 325c0 56 2 115 17 179h-117l-102 -492h-275l105 492h-117c-49 -240 -187 -504 -436 -504c-199 0 -252 108 -252 217c0 114 53 172 125 172c24 0 45 -6 69 -29c-18 -49 -26 -96 -26 -139
c0 -76 34 -113 73 -113c117 0 224 338 224 580c0 158 -39 215 -111 215c-84 0 -182 -96 -346 -283h-2c-33 -379 -238 -616 -490 -616c-190 0 -327 88 -327 323c0 52 6 111 18 177h-154l-102 -492h-295l217 1024h295l-86 -410h160c72 213 231 428 508 428
c168 0 256 -102 262 -309c190 275 295 309 426 309c154 0 276 -120 276 -325c0 -31 -2 -66 -6 -103h123l86 410h275l-86 -410h114c66 217 197 428 420 428c166 0 211 -96 211 -188c0 -100 -47 -149 -104 -149c-23 0 -50 8 -72 24c14 47 20 86 20 121c0 51 -16 84 -47 84
c-108 0 -221 -338 -221 -580c0 -149 62 -215 152 -215c96 0 190 72 241 228zM1102 602c-43 10 -55 45 -55 86c0 57 24 94 63 111c-6 88 -23 119 -78 119c-145 0 -272 -373 -272 -576c0 -135 26 -166 104 -166c101 0 205 186 238 426z" />
    <glyph glyph-name="afii10080_afii10073" unicode="&#x43e;&#x437;" horiz-adv-x="1714" 
d="M1714 367h86c-82 -279 -248 -357 -375 -390c-6 -309 -159 -489 -387 -489c-125 0 -229 66 -229 199c0 166 168 252 321 301c-4 145 -53 217 -147 217h-63l26 123h60c147 0 251 157 251 352c0 80 -24 176 -116 176c-115 0 -219 -133 -350 -248h-3
c-32 -379 -237 -616 -489 -616c-190 0 -328 88 -328 323c0 238 142 727 561 727c170 0 259 -106 263 -317c143 160 256 317 469 317c174 0 303 -118 303 -325c0 -268 -236 -436 -318 -453c64 -22 142 -96 168 -205c148 43 232 111 297 308zM618 602c-43 10 -55 45 -55 86
c0 57 25 94 64 111c-6 88 -23 119 -78 119c-146 0 -273 -373 -273 -576c0 -135 27 -166 105 -166c100 0 205 186 237 426zM1124 -111c-106 -36 -202 -92 -202 -174c0 -39 22 -67 69 -67c60 0 117 112 133 241z" />
    <glyph glyph-name="afii10096_afii10073" unicode="&#x44e;&#x437;" horiz-adv-x="2198" 
d="M2198 367h86c-82 -279 -248 -357 -375 -390c-6 -309 -160 -489 -387 -489c-125 0 -230 66 -230 199c0 166 168 252 322 301c-4 145 -53 217 -148 217h-63l27 123h59c147 0 252 157 252 352c0 80 -25 176 -117 176c-115 0 -219 -133 -350 -248h-2
c-33 -379 -238 -616 -490 -616c-190 0 -327 88 -327 323c0 52 6 111 18 177h-154l-102 -492h-295l217 1024h295l-86 -410h160c72 213 231 428 508 428c170 0 258 -106 262 -317c143 160 256 317 469 317c174 0 303 -118 303 -325c0 -268 -235 -436 -317 -453
c63 -22 141 -96 168 -205c147 43 231 111 297 308zM1102 602c-43 10 -55 45 -55 86c0 57 24 94 63 111c-6 88 -23 119 -78 119c-145 0 -272 -373 -272 -576c0 -135 26 -166 104 -166c101 0 205 186 238 426zM1608 -111c-107 -36 -203 -92 -203 -174c0 -39 22 -67 70 -67
c59 0 116 112 133 241z" />
    <glyph glyph-name="afii10080_afii10077" unicode="&#x43e;&#x43b;" horiz-adv-x="2032" 
d="M2032 367h86c-86 -252 -213 -379 -381 -379c-166 0 -242 104 -242 217c0 57 14 147 45 278l90 406c-143 0 -196 -113 -258 -393c-69 -326 -108 -508 -336 -508c-129 0 -192 71 -215 159c-139 -86 -358 -155 -522 -155c-190 0 -328 88 -328 323c0 238 142 727 561 727
c175 0 263 -108 263 -327c0 -248 -70 -439 -177 -568c68 23 142 54 193 86c6 91 51 150 127 150c63 0 106 -43 106 -107c0 -67 -38 -100 -81 -94c2 -30 16 -65 79 -65c134 0 154 190 199 399c88 426 209 508 393 508h301l-108 -508c-31 -131 -49 -209 -49 -244
c0 -57 26 -86 82 -86c82 0 116 56 172 181zM381 176c121 0 248 264 248 576c0 114 -17 166 -80 166c-146 0 -273 -373 -273 -576c0 -135 27 -166 105 -166z" />
    <glyph glyph-name="afii10096_afii10077" unicode="&#x44e;&#x43b;" horiz-adv-x="2515" 
d="M864 176c121 0 248 264 248 576c0 114 -16 166 -80 166c-145 0 -272 -373 -272 -576c0 -135 26 -166 104 -166zM2515 367h86c-86 -252 -213 -379 -381 -379c-166 0 -242 104 -242 217c0 57 15 147 45 278l91 406c-144 0 -197 -113 -259 -393
c-69 -326 -108 -508 -335 -508c-129 0 -193 71 -215 159c-140 -86 -359 -155 -523 -155c-190 0 -327 88 -327 323c0 52 6 111 18 177h-154l-102 -492h-295l217 1024h295l-86 -410h160c72 213 231 428 508 428c174 0 262 -108 262 -327c0 -248 -70 -439 -176 -568
c67 23 141 54 192 86c6 91 52 150 127 150c64 0 107 -43 107 -107c0 -67 -39 -100 -82 -94c2 -30 16 -65 80 -65c133 0 153 190 198 399c88 426 209 508 394 508h301l-109 -508c-31 -131 -49 -209 -49 -244c0 -57 27 -86 82 -86c82 0 117 56 172 181z" />
    <glyph glyph-name="afii10080_afii10106" unicode="&#x43e;&#x459;" horiz-adv-x="2415" 
d="M1516 367l114 522c-143 0 -196 -113 -258 -393c-69 -326 -108 -508 -336 -508c-129 0 -194 69 -217 157c-139 -86 -356 -153 -520 -153c-190 0 -328 88 -328 323c0 238 142 727 561 727c175 0 263 -108 263 -327c0 -248 -70 -439 -177 -568c68 23 142 54 193 86
c6 89 51 150 127 150c63 0 106 -43 106 -107c0 -67 -38 -100 -81 -94c2 -30 16 -65 79 -65c134 0 154 190 199 399c88 426 209 508 393 508h301l-71 -332c96 39 149 41 204 41c164 0 265 -100 265 -272s-146 -473 -531 -473c-186 0 -301 98 -301 262c0 39 4 78 15 117z
M381 176c121 0 248 264 248 576c0 114 -17 166 -80 166c-146 0 -273 -373 -273 -576c0 -135 27 -166 105 -166zM1833 545l-51 -242c-6 -16 -6 -43 -6 -57c0 -56 28 -84 88 -84c106 0 200 164 200 287c0 79 -36 133 -110 133c-29 0 -96 -19 -121 -37z" />
    <glyph glyph-name="afii10096_afii10106" unicode="&#x44e;&#x459;" horiz-adv-x="2898" 
d="M1999 367l115 522c-144 0 -197 -113 -259 -393c-69 -326 -108 -508 -335 -508c-129 0 -195 69 -217 157c-140 -86 -357 -153 -521 -153c-190 0 -327 88 -327 323c0 52 6 111 18 177h-154l-102 -492h-295l217 1024h295l-86 -410h160c72 213 231 428 508 428
c174 0 262 -108 262 -327c0 -248 -70 -439 -176 -568c67 23 141 54 192 86c6 89 52 150 127 150c64 0 107 -43 107 -107c0 -67 -39 -100 -82 -94c2 -30 16 -65 80 -65c133 0 153 190 198 399c88 426 209 508 394 508h301l-72 -332c96 39 150 41 205 41
c164 0 264 -100 264 -272s-145 -473 -530 -473c-187 0 -301 98 -301 262c0 39 4 78 14 117zM864 176c121 0 248 264 248 576c0 114 -16 166 -80 166c-145 0 -272 -373 -272 -576c0 -135 26 -166 104 -166zM2316 545l-51 -242c-6 -16 -6 -43 -6 -57c0 -56 29 -84 88 -84
c107 0 201 164 201 287c0 79 -37 133 -111 133c-29 0 -96 -19 -121 -37z" />
    <glyph glyph-name="afii10080_afii10078" unicode="&#x43e;&#x43c;" horiz-adv-x="2472" 
d="M2472 367h86c-86 -252 -213 -379 -381 -379c-166 0 -242 104 -242 217c0 55 15 145 43 272l33 146l-303 -623h-287l-37 625l-26 -129c-66 -326 -109 -508 -322 -508c-121 0 -188 71 -215 159c-139 -86 -358 -155 -522 -155c-190 0 -328 88 -328 323
c0 238 142 727 561 727c175 0 263 -108 263 -327c0 -248 -70 -439 -177 -568c68 23 142 54 193 86c2 91 47 144 127 144c63 0 106 -43 106 -107c0 -67 -38 -100 -81 -94c-2 -31 14 -78 79 -78c148 0 168 207 211 418l109 508h287l43 -786l381 786h303l-109 -508
c-31 -131 -49 -209 -49 -244c0 -57 27 -86 82 -86c82 0 117 56 172 181zM381 176c121 0 248 264 248 576c0 114 -17 166 -80 166c-146 0 -273 -373 -273 -576c0 -135 27 -166 105 -166z" />
    <glyph glyph-name="afii10096_afii10078" unicode="&#x44e;&#x43c;" horiz-adv-x="2955" 
d="M2955 367h86c-86 -252 -213 -379 -381 -379c-166 0 -241 104 -241 217c0 55 14 145 43 272l32 146l-303 -623h-286l-37 625l-27 -129c-65 -326 -108 -508 -321 -508c-121 0 -189 71 -215 159c-140 -86 -359 -155 -523 -155c-190 0 -327 88 -327 323c0 52 6 111 18 177
h-154l-102 -492h-295l217 1024h295l-86 -410h160c72 213 231 428 508 428c174 0 262 -108 262 -327c0 -248 -70 -439 -176 -568c67 23 141 54 192 86c2 91 47 144 127 144c64 0 107 -43 107 -107c0 -67 -39 -100 -82 -94c-2 -31 14 -78 80 -78c147 0 168 207 211 418
l108 508h287l43 -786l381 786h303l-109 -508c-30 -131 -49 -209 -49 -244c0 -57 27 -86 82 -86c82 0 117 56 172 181zM864 176c121 0 248 264 248 576c0 114 -16 166 -80 166c-145 0 -272 -373 -272 -576c0 -135 26 -166 104 -166z" />
    <glyph glyph-name="afii10096_afii10087" unicode="&#x44e;&#x445;" horiz-adv-x="2228" 
d="M2226 367h86c-114 -334 -311 -379 -422 -379c-149 0 -209 110 -258 379l-4 14c-94 -66 -184 -145 -184 -229c6 2 16 2 26 2c72 0 84 -54 84 -101c0 -80 -47 -112 -114 -112c-92 0 -135 57 -135 145c0 137 155 311 303 410l-58 317c-84 -100 -176 -166 -276 -197
c-33 -385 -240 -624 -492 -624c-190 0 -327 88 -327 323c0 52 6 111 18 177h-154l-102 -492h-295l217 1024h295l-86 -410h160c72 213 231 428 508 428c172 0 260 -106 262 -321c80 8 164 82 252 205l-19 98h289l74 -406c129 115 201 209 201 289c0 11 0 19 -2 25
c-15 -2 -25 -4 -35 -4c-72 0 -96 51 -96 114c0 64 51 97 114 97c92 0 139 -82 139 -183c0 -137 -88 -266 -299 -454l25 -135c16 -76 29 -181 121 -181c80 0 153 76 184 181zM1102 600c-37 10 -55 41 -55 92c0 58 24 94 63 109c-6 88 -27 117 -78 117
c-145 0 -272 -373 -272 -576c0 -135 26 -166 104 -166c101 0 205 184 238 424z" />
    <glyph glyph-name="afii10080_afii10095" unicode="&#x43e;&#x44d;" horiz-adv-x="1776" 
d="M1368 492h-254l27 122h245c3 27 5 52 5 78c0 139 -54 178 -168 178c-123 0 -293 -182 -432 -262h-3c-32 -379 -237 -616 -489 -616c-190 0 -328 88 -328 323c0 238 142 727 561 727c175 0 263 -108 263 -327v-2c100 71 288 329 561 329c205 0 338 -104 338 -335
c0 -226 -164 -719 -592 -719c-189 0 -279 84 -279 217c0 114 56 172 119 172c23 0 49 -4 76 -29c-19 -49 -27 -96 -27 -139c0 -76 37 -113 113 -113c117 0 219 191 264 396zM618 602c-43 10 -55 45 -55 86c0 57 25 94 64 111c-6 88 -23 119 -78 119
c-146 0 -273 -373 -273 -576c0 -135 27 -166 105 -166c100 0 205 186 237 426z" />
    <glyph glyph-name="afii10096_afii10095" unicode="&#x44e;&#x44d;" horiz-adv-x="2259" 
d="M1851 492h-254l27 122h246c2 27 4 52 4 78c0 139 -53 178 -168 178c-123 0 -293 -182 -432 -262h-2c-33 -379 -238 -616 -490 -616c-190 0 -327 88 -327 323c0 52 6 111 18 177h-154l-102 -492h-295l217 1024h295l-86 -410h160c72 213 231 428 508 428
c174 0 262 -108 262 -327v-2c100 71 289 329 561 329c205 0 338 -104 338 -335c0 -226 -164 -719 -592 -719c-188 0 -278 84 -278 217c0 114 55 172 118 172c23 0 50 -4 76 -29c-18 -49 -26 -96 -26 -139c0 -76 36 -113 112 -113c117 0 219 191 264 396zM1102 602
c-43 10 -55 45 -55 86c0 57 24 94 63 111c-6 88 -23 119 -78 119c-145 0 -272 -373 -272 -576c0 -135 26 -166 104 -166c101 0 205 186 238 426z" />
    <glyph glyph-name="afii10081_afii10089" unicode="&#x43f;&#x447;" horiz-adv-x="2068" 
d="M2068 367h86c-114 -334 -303 -379 -411 -379c-123 0 -219 73 -219 245c0 37 6 82 16 134l10 51c-88 -96 -174 -115 -245 -115c-74 0 -138 27 -179 86c-79 -262 -204 -401 -387 -401c-180 0 -241 114 -241 231c0 139 92 391 92 522c0 70 -25 105 -74 105
c-74 0 -129 -84 -160 -189l-139 -657h-295l217 1024h295l-22 -106c88 98 176 114 239 114c131 0 228 -67 228 -231c0 -166 -99 -414 -99 -529c0 -51 19 -86 82 -86c137 0 172 191 232 463l80 375h294l-79 -381c-5 -20 -7 -39 -7 -57c0 -47 15 -84 62 -84
c80 0 141 76 164 180l71 342h295l-147 -696c-6 -23 -8 -45 -8 -66c0 -57 26 -76 84 -76c79 0 135 76 165 181z" />
    <glyph glyph-name="afii10083_afii10073" unicode="&#x441;&#x437;" horiz-adv-x="1794" 
d="M1794 367h86c-82 -279 -248 -357 -375 -390c-6 -309 -159 -489 -387 -489c-125 0 -229 66 -229 199c0 166 168 252 321 301c-4 145 -53 217 -147 217h-64l27 123h59c148 0 252 157 252 352c0 80 -20 176 -125 176c-122 0 -206 -84 -305 -324
c-110 -264 -262 -544 -614 -544c-195 0 -320 94 -320 325c0 238 136 729 551 729c181 0 228 -96 228 -188c0 -100 -50 -149 -109 -149c-22 0 -47 8 -72 24c17 45 25 86 25 121c0 51 -18 84 -57 84c-129 0 -263 -375 -263 -602c0 -139 50 -172 148 -172
c229 0 317 184 403 389c117 264 199 493 496 493c197 0 324 -118 324 -325c0 -268 -236 -436 -318 -453c64 -22 141 -96 168 -205c148 43 232 111 297 308zM1204 -111c-106 -36 -203 -92 -203 -174c0 -39 23 -67 70 -67c59 0 117 112 133 241z" />
    <glyph glyph-name="afii10085_afii10105" unicode="&#x443;&#x458;" horiz-adv-x="1485" 
d="M1210 -6l-32 -158c-60 -293 -236 -348 -371 -348c-115 0 -184 49 -217 121c-80 -96 -182 -121 -271 -121c-124 0 -229 66 -229 199c0 163 148 239 330 278l31 139c-89 -98 -177 -116 -248 -116c-123 0 -219 73 -219 245c0 37 6 82 16 134l139 657h295l-147 -696
c-4 -17 -6 -33 -6 -52c0 -47 14 -90 61 -90c80 0 133 76 164 181l139 657h295l-217 -1016l199 21l213 995h295l-201 -940c123 41 215 119 256 283h86c-66 -238 -191 -330 -361 -373zM1483 1298c0 -90 -74 -161 -164 -161s-162 71 -162 161c0 91 72 164 162 164
s164 -73 164 -164zM881 -170l24 117l-198 -21l-19 -90c-10 -51 -26 -92 -43 -131c23 -24 51 -35 90 -35c72 0 119 37 146 160zM391 -170l10 47c-116 -31 -198 -78 -198 -162c0 -32 22 -67 69 -67c43 0 93 59 119 182z" />
    <glyph glyph-name="afii10101_afii10073" unicode="&#x454;&#x437;" horiz-adv-x="1794" 
d="M1794 367h86c-82 -279 -248 -357 -375 -390c-6 -309 -159 -489 -387 -489c-125 0 -229 66 -229 199c0 166 168 252 321 301c-4 145 -53 217 -147 217h-64l27 123h59c148 0 252 157 252 352c0 80 -20 176 -125 176c-122 0 -206 -84 -305 -324
c-110 -264 -262 -544 -614 -544c-195 0 -320 94 -320 325c0 238 136 729 551 729c181 0 228 -96 228 -188c0 -100 -50 -149 -109 -149c-22 0 -47 8 -72 24c17 45 25 86 25 121c0 51 -18 84 -57 84c-82 0 -166 -152 -215 -320h243l-26 -122h-248c-10 -58 -17 -113 -17 -160
c0 -139 50 -172 148 -172c229 0 317 184 403 389c117 264 199 493 496 493c197 0 324 -118 324 -325c0 -268 -236 -436 -318 -453c64 -22 141 -96 168 -205c148 43 232 111 297 308zM1204 -111c-106 -36 -203 -92 -203 -174c0 -39 23 -67 70 -67c59 0 117 112 133 241z" />
    <glyph glyph-name="afii10101_afii10087" unicode="&#x454;&#x445;" horiz-adv-x="1546" 
d="M1546 367h86c-114 -334 -313 -379 -415 -379c-140 0 -203 84 -246 282c-174 -174 -428 -282 -647 -282c-199 0 -365 88 -365 336c0 221 133 718 551 718c180 0 227 -94 227 -190c0 -104 -53 -147 -108 -147c-27 0 -49 8 -72 24c16 43 25 82 25 121c0 49 -17 84 -56 84
c-82 0 -170 -158 -219 -320h260l-26 -122h-265c-10 -50 -14 -95 -14 -134c0 -153 92 -202 207 -202c147 0 342 80 479 233l-117 635h289l80 -442c123 131 195 252 195 325c0 11 0 19 -2 25c-15 -2 -23 -4 -37 -4c-72 0 -94 55 -94 106c0 72 47 105 110 105
c96 0 144 -80 144 -178c0 -134 -86 -271 -293 -494l18 -100c16 -76 29 -181 121 -181c80 0 154 76 184 181z" />
    <glyph glyph-name="afii10083_afii10089" unicode="&#x441;&#x447;" horiz-adv-x="1821" 
d="M1821 367h86c-115 -334 -303 -379 -412 -379c-123 0 -219 73 -219 245c0 37 6 82 16 134l11 51c-89 -96 -175 -115 -246 -115c-90 0 -164 37 -199 125c-115 -217 -323 -440 -565 -440c-195 0 -320 94 -320 325c0 238 136 729 551 729c181 0 228 -96 228 -188
c0 -100 -50 -149 -109 -149c-22 0 -47 8 -72 24c17 45 25 86 25 121c0 51 -18 84 -57 84c-129 0 -263 -375 -263 -602c0 -139 52 -172 140 -172c155 0 377 229 436 518l74 346h295l-80 -381c-4 -20 -6 -39 -6 -57c0 -47 14 -84 61 -84c80 0 141 73 164 180l72 342h294
l-147 -696c-6 -23 -8 -45 -8 -66c0 -57 26 -76 84 -76c80 0 135 76 166 181z" />
    <glyph glyph-name="afii10101_afii10089" unicode="&#x454;&#x447;" horiz-adv-x="1821" 
d="M1821 367h86c-115 -334 -303 -379 -412 -379c-123 0 -219 73 -219 245c0 37 6 82 16 134l11 51c-89 -96 -175 -115 -246 -115c-90 0 -164 37 -199 125c-115 -217 -323 -440 -565 -440c-195 0 -320 94 -320 325c0 238 136 729 551 729c181 0 228 -96 228 -188
c0 -100 -50 -149 -109 -149c-22 0 -47 8 -72 24c17 45 25 86 25 121c0 51 -18 84 -57 84c-82 0 -166 -152 -215 -320h243l-26 -122h-248c-10 -58 -17 -113 -17 -160c0 -139 52 -172 140 -172c162 0 379 239 440 530l70 334h295l-80 -381c-4 -20 -6 -39 -6 -57
c0 -47 14 -84 61 -84c80 0 141 73 164 180l72 342h294l-147 -696c-6 -23 -8 -45 -8 -66c0 -57 26 -76 84 -76c80 0 135 76 166 181z" />
    <glyph glyph-name="afii10084_afii10089" unicode="&#x442;&#x447;" horiz-adv-x="2574" 
d="M2574 367h86c-114 -334 -303 -379 -411 -379c-123 0 -219 73 -219 245c0 37 6 82 16 134l10 51c-88 -96 -174 -115 -246 -115c-73 0 -137 27 -178 86c-80 -262 -205 -401 -387 -401c-180 0 -241 114 -241 231c0 139 92 391 92 522c0 70 -25 105 -74 105
c-74 0 -129 -84 -160 -189l-139 -657h-295l150 707c4 16 6 32 6 51c0 47 -15 90 -62 90c-80 0 -135 -86 -166 -191l-139 -657h-295l217 1024h295l-22 -106c88 98 178 116 250 116c108 0 188 -47 210 -176c99 152 211 174 285 174c131 0 227 -67 227 -231
c0 -166 -98 -414 -98 -529c0 -51 19 -86 82 -86c139 0 176 199 242 504l69 334h295l-80 -381c-4 -20 -6 -39 -6 -57c0 -47 15 -84 62 -84c80 0 141 76 164 180l71 342h295l-147 -696c-6 -23 -9 -45 -9 -66c0 -57 27 -76 84 -76c80 0 136 76 166 181z" />
    <glyph glyph-name="afii10083_afii10092" unicode="&#x441;&#x44a;" horiz-adv-x="1722" 
d="M1425 1024l-61 -98c-43 -72 -96 -168 -127 -256c63 41 139 63 213 63c121 0 240 -76 240 -256c0 -299 -252 -489 -539 -489c-174 0 -309 84 -309 264c0 18 -2 37 4 55c-137 -164 -318 -319 -545 -319c-207 0 -328 96 -328 325c0 238 136 729 551 729
c181 0 228 -96 228 -188c0 -100 -50 -149 -109 -149c-22 0 -47 8 -72 24c17 45 25 86 25 121c0 51 -18 84 -57 84c-129 0 -263 -375 -263 -602c0 -139 46 -172 158 -172c191 0 359 205 533 440c71 113 166 217 247 313h-100c-63 0 -113 -2 -113 -32c0 -13 23 2 23 -45
c0 -76 -55 -109 -111 -109c-47 0 -94 31 -94 90c0 105 90 207 238 207h368zM1200 547c-55 -144 -67 -211 -67 -281c0 -69 26 -104 81 -104c121 0 207 184 207 307c0 96 -53 113 -100 113s-88 -13 -121 -35z" />
    <glyph glyph-name="afii10110_afii10105" unicode="&#x45e;&#x458;" horiz-adv-x="1485" 
d="M1210 -6l-32 -158c-60 -293 -236 -348 -371 -348c-115 0 -184 49 -217 121c-80 -96 -182 -121 -271 -121c-124 0 -229 66 -229 199c0 163 148 239 330 278l31 139c-89 -98 -177 -116 -248 -116c-123 0 -219 73 -219 245c0 37 6 82 16 134l139 657h295l-147 -696
c-4 -17 -6 -33 -6 -52c0 -47 14 -90 61 -90c80 0 133 76 164 181l139 657h295l-217 -1016c33 2 63 4 94 10l105 11l213 995h295l-201 -940c123 41 215 119 256 283h86c-66 -238 -191 -330 -361 -373zM879 1473h86c-93 -271 -240 -349 -433 -349c-170 0 -266 68 -266 176
c0 89 53 150 137 150c80 0 127 -39 127 -111c0 -16 -2 -67 -49 -98c21 -6 47 -8 82 -8c115 0 244 53 316 240zM1483 1298c0 -90 -74 -161 -164 -161s-162 71 -162 161c0 91 72 164 162 164s164 -73 164 -164zM881 -170l24 117c-31 -2 -61 -4 -92 -10l-106 -11l-19 -90
c-10 -51 -26 -92 -43 -131c23 -24 51 -35 90 -35c72 0 119 37 146 160zM391 -170l10 47c-116 -31 -198 -78 -198 -162c0 -32 22 -67 69 -67c43 0 93 59 119 182z" />
    <glyph glyph-name="afii10085_afii10089" unicode="&#x443;&#x447;" horiz-adv-x="2025" 
d="M2025 367h86c-114 -334 -303 -379 -411 -379c-123 0 -219 73 -219 245c0 37 6 82 16 134l10 51c-88 -96 -174 -115 -245 -115c-74 0 -138 27 -179 84c-65 -278 -235 -367 -364 -403l-31 -148c-59 -293 -233 -348 -369 -348c-124 0 -229 66 -229 199
c0 172 180 256 334 305l25 110c-89 -96 -175 -114 -246 -114c-123 0 -219 73 -219 245c0 37 6 82 16 134l139 657h295l-147 -696c-4 -17 -6 -33 -6 -52c0 -47 14 -90 61 -90c76 0 129 72 160 168l143 670h295l-203 -950c135 49 228 139 271 352l122 598h295l-79 -381
c-5 -20 -7 -39 -7 -57c0 -47 15 -84 62 -84c80 0 139 71 162 176l73 346h295l-147 -696c-6 -23 -8 -45 -8 -66c0 -57 26 -76 84 -76c79 0 135 76 165 181zM391 -170l12 59c-106 -39 -200 -92 -200 -174c0 -30 22 -67 69 -67c43 0 93 59 119 182z" />
    <glyph glyph-name="afii10110_afii10089" unicode="&#x45e;&#x447;" horiz-adv-x="2025" 
d="M2025 367h86c-114 -334 -303 -379 -411 -379c-123 0 -219 73 -219 245c0 37 6 82 16 134l10 51c-88 -96 -174 -115 -245 -115c-74 0 -138 27 -179 84c-65 -278 -235 -367 -364 -403l-31 -148c-59 -293 -233 -348 -369 -348c-124 0 -229 66 -229 199
c0 172 180 256 334 305l25 110c-89 -96 -175 -114 -246 -114c-123 0 -219 73 -219 245c0 37 6 82 16 134l139 657h295l-147 -696c-4 -17 -6 -33 -6 -52c0 -47 14 -90 61 -90c76 0 129 72 160 168l143 670h295l-203 -950c135 49 228 139 271 352l122 598h295l-79 -381
c-5 -20 -7 -39 -7 -57c0 -47 15 -84 62 -84c80 0 141 73 164 180l71 342h295l-147 -696c-6 -23 -8 -45 -8 -66c0 -57 26 -76 84 -76c79 0 135 76 165 181zM879 1473h86c-93 -271 -240 -349 -433 -349c-170 0 -266 68 -266 176c0 89 53 150 137 150c80 0 127 -39 127 -111
c0 -16 -2 -67 -49 -98c21 -6 47 -8 82 -8c115 0 244 53 316 240zM391 -170l12 59c-106 -39 -200 -92 -200 -174c0 -30 22 -67 69 -67c43 0 93 59 119 182z" />
    <glyph glyph-name="afii10087_afii10089" unicode="&#x445;&#x447;" horiz-adv-x="2103" 
d="M2103 367h86c-114 -334 -303 -379 -411 -379c-123 0 -219 73 -219 245c0 37 6 82 16 134l10 51c-88 -96 -174 -115 -246 -115c-73 0 -139 27 -178 86c-76 -244 -203 -401 -403 -401c-142 0 -230 104 -271 356l-282 -344h-148l414 467l-33 229c-22 138 -43 170 -78 170
c-79 0 -202 -161 -274 -499h-86c66 303 207 667 483 667c164 0 211 -139 222 -243l18 -156c115 129 172 219 178 295c-14 -2 -24 -4 -35 -4c-71 0 -96 51 -96 114c0 72 66 101 139 101c76 0 115 -97 115 -187c0 -129 -94 -239 -285 -446l19 -143c16 -134 55 -179 127 -179
c141 0 188 189 243 453l80 385h295l-80 -381c-4 -20 -6 -39 -6 -57c0 -47 15 -84 62 -84c80 0 141 76 163 180l72 342h295l-147 -696c-7 -23 -9 -45 -9 -66c0 -57 27 -76 84 -76c80 0 136 76 166 181z" />
    <glyph glyph-name="afii10087_afii10092" unicode="&#x445;&#x44a;" horiz-adv-x="2060" 
d="M1714 1024l-61 -98c-43 -72 -97 -168 -127 -256c63 41 139 63 213 63c121 0 239 -76 239 -256c0 -299 -252 -489 -538 -489c-170 0 -299 75 -310 241c-108 -149 -235 -241 -382 -241c-138 0 -220 104 -261 356l-282 -344h-148l414 467l-33 229c-22 138 -43 170 -78 170
c-79 0 -202 -161 -274 -499h-86c66 303 207 667 483 667c164 0 211 -139 222 -243l18 -156c115 129 172 219 178 295c-14 -2 -24 -4 -35 -4c-71 0 -96 51 -96 114c0 72 66 101 139 101c76 0 115 -97 115 -187c0 -129 -94 -239 -285 -446l19 -143c16 -134 55 -179 127 -179
c121 0 262 217 321 330c76 141 193 281 297 397h-100c-64 0 -113 -2 -113 -32c0 -13 23 2 23 -45c0 -76 -56 -109 -111 -109c-47 0 -94 31 -94 90c0 105 90 207 238 207h368zM1489 547c-55 -144 -68 -211 -68 -281c0 -69 27 -104 82 -104c121 0 207 184 207 307
c0 96 -53 113 -100 113s-88 -13 -121 -35z" />
    <glyph glyph-name="afii10089_afii10089" unicode="&#x447;&#x447;" horiz-adv-x="2068" 
d="M2068 367h86c-114 -334 -303 -379 -411 -379c-123 0 -219 73 -219 245c0 37 6 82 16 134l10 51c-88 -96 -174 -115 -245 -115c-74 0 -140 27 -179 86c-69 -221 -200 -401 -417 -401c-125 0 -220 82 -220 239c0 27 3 84 17 140l10 51c-88 -96 -174 -115 -246 -115
c-123 0 -219 74 -219 246c0 37 6 82 17 133l71 342h295l-80 -381c-4 -20 -6 -39 -6 -57c0 -47 14 -84 62 -84c79 0 133 76 163 180l72 342h295l-147 -696c-7 -23 -9 -45 -9 -66c0 -57 27 -76 84 -76c166 0 211 400 236 504l70 334h294l-79 -381c-5 -20 -7 -39 -7 -57
c0 -47 15 -84 62 -84c80 0 141 73 164 180l71 342h295l-147 -696c-6 -23 -8 -45 -8 -66c0 -57 26 -76 84 -76c79 0 135 76 165 181z" />
    <glyph glyph-name="afii10090_afii10089" unicode="&#x448;&#x447;" horiz-adv-x="2574" 
d="M2574 367h86c-114 -334 -303 -379 -411 -379c-123 0 -219 73 -219 245c0 37 6 82 16 134l10 51c-88 -96 -174 -115 -246 -115c-73 0 -139 27 -178 86c-69 -221 -200 -401 -418 -401c-116 0 -188 65 -202 194c-103 -168 -217 -194 -303 -194c-117 0 -189 65 -203 194
c-103 -168 -217 -194 -303 -194c-123 0 -219 73 -219 245c0 37 6 82 16 134l139 657h295l-147 -696c-4 -21 -6 -39 -6 -58c0 -47 14 -84 61 -84c80 0 133 76 164 181l139 657h295l-147 -696c-5 -21 -7 -39 -7 -58c0 -47 15 -84 62 -84c80 0 133 76 164 181l139 657h295
l-148 -696c-6 -23 -8 -45 -8 -66c0 -57 27 -76 84 -76c166 0 211 400 236 504l69 334h295l-80 -381c-4 -20 -6 -39 -6 -57c0 -47 15 -84 62 -84c80 0 141 76 164 180l71 342h295l-147 -696c-6 -23 -9 -45 -9 -66c0 -57 27 -76 84 -76c80 0 136 76 166 181z" />
    <glyph glyph-name="afii10093_afii10089" unicode="&#x44b;&#x447;" horiz-adv-x="2370" 
d="M2370 367h86c-115 -334 -304 -379 -412 -379c-123 0 -219 73 -219 245c0 37 6 82 16 134l10 51c-88 -96 -174 -115 -245 -115c-74 0 -136 25 -176 82c-60 -213 -183 -391 -386 -397c-170 10 -237 112 -237 223c0 51 8 98 113 577c-74 -47 -150 -90 -230 -133
c33 -51 49 -120 49 -204c0 -172 -137 -463 -458 -463c-187 0 -293 98 -293 262c0 39 4 78 14 117l135 657h283l-152 -721c-6 -16 -6 -43 -6 -57c0 -56 31 -84 92 -84c113 0 219 151 219 340c0 35 -10 59 -30 78c-15 -11 -37 -19 -60 -19c-41 0 -90 25 -90 88
c0 64 60 94 115 94c31 0 59 -4 84 -12c203 92 330 189 526 293h127l-108 -508c-31 -131 -50 -209 -50 -244c0 -57 27 -86 82 -86c166 0 211 400 236 504l70 334h294l-79 -381c-4 -20 -7 -39 -7 -57c0 -47 15 -84 62 -84c80 0 141 76 164 180l71 342h295l-147 -696
c-6 -23 -8 -45 -8 -66c0 -57 26 -76 84 -76c80 0 135 76 166 181z" />
    <glyph glyph-name="afii10103_afii10089" unicode="&#x456;&#x447;" horiz-adv-x="1563" 
d="M1563 367h86c-115 -334 -303 -379 -412 -379c-123 0 -219 73 -219 245c0 37 6 82 16 134l10 51c-88 -96 -174 -115 -245 -115c-74 0 -140 27 -178 86c-70 -221 -201 -401 -418 -401c-140 0 -219 94 -219 241c0 33 8 97 16 138l139 657h295l-147 -696
c-6 -23 -8 -45 -8 -66c0 -57 26 -76 83 -76c166 0 211 400 236 504l70 334h295l-80 -381c-4 -20 -6 -39 -6 -57c0 -47 14 -84 61 -84c80 0 141 76 164 180l72 342h294l-147 -696c-6 -23 -8 -45 -8 -66c0 -57 26 -76 84 -76c80 0 135 76 166 181zM506 1296
c0 -90 -74 -161 -164 -161s-162 71 -162 161s72 164 162 164s164 -74 164 -164z" />
    <glyph glyph-name="afii10104_afii10089" unicode="&#x457;&#x447;" horiz-adv-x="1563" 
d="M1563 367h86c-115 -334 -303 -379 -412 -379c-123 0 -219 73 -219 245c0 37 6 82 16 134l10 51c-88 -96 -174 -115 -245 -115c-74 0 -140 27 -178 86c-70 -221 -201 -401 -418 -401c-140 0 -219 94 -219 241c0 33 8 97 16 138l139 657h295l-147 -696
c-6 -23 -8 -45 -8 -66c0 -57 26 -76 83 -76c166 0 211 400 236 504l70 334h295l-80 -381c-4 -20 -6 -39 -6 -57c0 -47 14 -84 61 -84c80 0 141 73 164 180l72 342h294l-147 -696c-6 -23 -8 -45 -8 -66c0 -57 26 -76 84 -76c80 0 135 76 166 181zM651 1298
c0 -71 -57 -124 -125 -124c-71 0 -125 53 -125 124c0 68 54 125 125 125c68 0 125 -57 125 -125zM283 1298c0 -71 -58 -124 -125 -124c-72 0 -125 53 -125 124c0 68 53 125 125 125c67 0 125 -57 125 -125z" />
    <glyph glyph-name="afii10104_afii10104" unicode="&#x457;&#x457;" horiz-adv-x="1112" 
d="M1094 367h86c-115 -334 -322 -379 -430 -379c-107 0 -193 53 -215 182c-113 -156 -250 -182 -332 -182c-123 0 -219 73 -219 245c0 37 6 82 16 134l139 657h295l-147 -696c-6 -23 -8 -45 -8 -66c0 -57 26 -76 83 -76c80 0 154 76 185 181l139 657h295l-147 -696
c-7 -23 -9 -45 -9 -66c0 -57 27 -76 84 -76c80 0 154 76 185 181zM1198 1298c0 -71 -57 -124 -125 -124c-72 0 -125 53 -125 124c0 68 53 125 125 125c68 0 125 -57 125 -125zM893 1298c0 -71 -57 -124 -125 -124c-72 0 -125 53 -125 124c0 68 53 125 125 125
c68 0 125 -57 125 -125zM588 1298c0 -71 -58 -124 -125 -124c-72 0 -125 53 -125 124c0 68 53 125 125 125c67 0 125 -57 125 -125zM283 1298c0 -71 -58 -124 -125 -124c-72 0 -125 53 -125 124c0 68 53 125 125 125c67 0 125 -57 125 -125z" />
    <glyph glyph-name="afii10108_afii10105" unicode="&#x45b;&#x458;" horiz-adv-x="1479" 
d="M1204 -6l-33 -158c-59 -293 -235 -348 -370 -348c-113 0 -183 47 -217 119c-76 -96 -172 -119 -260 -119c-123 0 -224 66 -224 199c0 168 148 241 330 280c121 565 131 604 131 633c0 70 -24 105 -74 105c-73 0 -129 -84 -161 -189l-109 -516h-295l217 1024h-110l22 111
h113l55 258l303 41l-63 -299h256l-25 -111h-256l-53 -248c88 98 178 115 242 115c131 0 227 -68 227 -232c0 -47 0 -32 -131 -651c33 2 61 4 92 10l104 11l213 995h295l-198 -940c123 43 213 119 254 283h86c-66 -238 -191 -330 -361 -373zM1477 1298
c0 -90 -74 -161 -164 -161s-162 71 -162 161c0 91 72 164 162 164s164 -73 164 -164zM874 -170l25 117c-31 -2 -61 -4 -92 -10l-107 -11l-18 -90c-14 -51 -25 -94 -41 -133c18 -22 53 -33 88 -33c72 0 119 37 145 160zM401 -170l11 49c-117 -31 -199 -76 -199 -164
c0 -32 23 -67 70 -67c43 0 92 59 118 182z" />
    <glyph glyph-name="afii10108_afii10089" unicode="&#x45b;&#x447;" horiz-adv-x="2028" 
d="M2013 367h86c-114 -334 -303 -379 -411 -379c-123 0 -220 73 -220 245c0 37 7 82 17 134l10 51c-88 -96 -174 -115 -246 -115c-73 0 -137 27 -178 84c-65 -278 -233 -367 -362 -403l-33 -148c-66 -293 -215 -348 -357 -348c-120 0 -219 66 -219 199
c0 180 187 268 340 311c121 549 121 575 121 602c0 70 -24 105 -74 105c-73 0 -129 -84 -161 -189l-109 -516h-295l217 1024h-110l22 111h113l55 258l303 41l-63 -299h256l-25 -111h-256l-53 -248c88 98 178 115 242 115c131 0 227 -68 227 -232c0 -43 -10 -96 -119 -581
c131 49 221 139 264 348l123 598h295l-80 -381c-4 -20 -6 -39 -6 -57c0 -47 14 -84 62 -84c79 0 141 76 163 180l72 342h295l-147 -696c-7 -23 -9 -45 -9 -66c0 -57 27 -76 84 -76c80 0 135 76 166 181zM403 -170c5 27 9 49 15 68c-105 -39 -203 -95 -203 -183
c0 -30 23 -67 70 -67c43 0 92 59 118 182z" />
    <glyph glyph-name="afii10105_afii10105" unicode="&#x458;&#x458;" horiz-adv-x="983" 
d="M709 -6l-33 -158c-60 -293 -236 -348 -371 -348c-115 0 -184 49 -217 121c-80 -96 -182 -121 -270 -121c-125 0 -230 66 -230 199c0 163 152 239 332 278l223 1059h295l-217 -1016c33 2 64 4 94 10l105 11l213 995h295l-201 -940c123 41 215 119 256 283h86
c-65 -238 -190 -330 -360 -373zM981 1298c0 -90 -74 -161 -164 -161s-162 71 -162 161c0 91 72 164 162 164s164 -73 164 -164zM489 1298c0 -90 -73 -161 -163 -161s-162 71 -162 161c0 91 72 164 162 164s163 -73 163 -164zM379 -170l24 117c-30 -2 -61 -4 -92 -10
l-106 -11l-19 -90c-10 -51 -26 -92 -43 -131c23 -24 52 -35 90 -35c72 0 119 37 146 160zM-111 -170l11 47c-115 -31 -199 -78 -199 -162c0 -32 23 -67 70 -67c43 0 92 59 118 182z" />
    <glyph glyph-name="afii10105_afii10089" unicode="&#x458;&#x447;" horiz-adv-x="1522" 
d="M1522 367h86c-115 -334 -303 -379 -412 -379c-123 0 -219 73 -219 245c0 37 6 82 16 134l11 51c-89 -96 -175 -115 -246 -115c-74 0 -137 27 -178 84c-66 -278 -236 -367 -365 -403l-31 -148c-59 -293 -233 -348 -368 -348c-125 0 -230 66 -230 199
c0 170 181 256 336 305l219 1032h295l-203 -950c136 49 228 139 271 352l123 598h295l-80 -381c-4 -20 -6 -39 -6 -57c0 -47 14 -84 61 -84c80 0 141 73 164 180l72 342h294l-147 -696c-6 -23 -8 -45 -8 -66c0 -57 26 -76 84 -76c80 0 135 76 166 181zM489 1298
c0 -90 -73 -161 -163 -161s-162 71 -162 161c0 91 72 164 162 164s163 -73 163 -164zM-113 -170l13 59c-107 -39 -201 -92 -201 -174c0 -30 22 -67 70 -67c43 0 92 59 118 182z" />
    <glyph glyph-name="afii10073_afii10073" unicode="&#x437;&#x437;" horiz-adv-x="1720" 
d="M1720 367h86c-82 -279 -247 -357 -374 -390c-7 -311 -160 -489 -388 -489c-124 0 -229 66 -229 199c0 166 168 252 322 301c-7 149 -52 217 -148 217h-63l26 123h60c147 0 252 157 252 352c0 80 -21 176 -125 176c-133 0 -217 -145 -316 -397
c-121 -305 -272 -471 -590 -471c-206 0 -299 137 -299 262c0 96 54 164 109 190c115 205 188 404 252 607l303 40c23 -532 45 -608 45 -745c0 -27 -2 -53 -8 -80c22 25 67 113 106 209c142 344 215 571 508 571c197 0 324 -118 324 -325c0 -268 -236 -436 -318 -453
c64 -24 142 -96 168 -205c148 43 238 111 297 308zM43 293c0 -96 35 -143 125 -143s178 47 178 190c0 106 -16 170 -39 485c-41 -133 -98 -256 -166 -387c27 -14 47 -37 47 -71c0 -50 -34 -101 -90 -101c-22 0 -45 4 -55 27zM1130 -111c-106 -36 -202 -92 -202 -174
c0 -39 22 -67 69 -67c60 0 117 112 133 241z" />
    <glyph glyph-name="afii10073_afii10087" unicode="&#x437;&#x445;" horiz-adv-x="1489" 
d="M1489 367h86c-115 -334 -311 -379 -422 -379c-139 0 -195 90 -244 303c-112 -80 -270 -135 -354 -180c-86 -91 -217 -123 -322 -123c-206 0 -299 137 -299 262c0 96 54 164 109 190c115 205 188 404 252 607l303 40c23 -532 45 -608 45 -745c0 -31 -4 -61 -10 -92
c84 35 184 86 256 149l-115 625h289l80 -442c123 131 194 252 194 325c0 11 0 19 -2 25c-14 -2 -24 -4 -35 -4c-71 0 -96 51 -96 114c0 64 51 97 115 97c92 0 139 -82 139 -183c0 -133 -90 -274 -293 -487l19 -102c16 -76 28 -181 121 -181c79 0 153 76 184 181zM43 293
c0 -96 35 -143 125 -143s178 47 178 190c0 106 -16 170 -39 485c-41 -133 -98 -256 -166 -387c27 -14 47 -37 47 -71c0 -50 -34 -101 -90 -101c-22 0 -45 4 -55 27z" />
    <glyph glyph-name="afii10073_afii10089" unicode="&#x437;&#x447;" horiz-adv-x="1862" 
d="M1862 367h86c-115 -334 -303 -379 -412 -379c-123 0 -219 73 -219 245c0 37 6 82 16 134l10 51c-88 -96 -174 -115 -245 -115c-97 0 -172 43 -205 141c-82 -192 -242 -307 -369 -362c-84 -68 -198 -94 -291 -94c-206 0 -299 137 -299 262c0 96 54 164 109 190
c115 205 188 404 252 607l303 40c23 -532 45 -608 45 -745c0 -31 -4 -61 -10 -92c125 92 237 311 264 442l70 332h295l-80 -381c-4 -20 -6 -39 -6 -57c0 -47 14 -84 61 -84c80 0 141 76 164 180l72 342h294l-147 -696c-6 -23 -8 -45 -8 -66c0 -57 26 -76 84 -76
c80 0 135 76 166 181zM43 293c0 -96 35 -143 125 -143s178 47 178 190c0 106 -16 170 -39 485c-41 -133 -98 -256 -166 -387c27 -14 47 -37 47 -71c0 -50 -34 -101 -90 -101c-22 0 -45 4 -55 27z" />
    <glyph glyph-name="afii10193_afii10089" unicode="&#x45f;&#x447;" horiz-adv-x="2068" 
d="M2068 367h86c-114 -334 -303 -379 -411 -379c-123 0 -219 73 -219 245c0 37 6 82 16 134l10 51c-88 -96 -174 -115 -245 -115c-74 0 -140 27 -179 86c-69 -221 -200 -401 -417 -401c-117 0 -189 65 -203 194c-103 -168 -217 -194 -303 -194c-123 0 -219 73 -219 245
c0 37 6 82 16 134l139 657h295l-147 -696c-4 -21 -6 -39 -6 -58c0 -47 14 -84 61 -84c80 0 133 76 164 181l139 657h295l-147 -696c-7 -23 -9 -45 -9 -66c0 -57 27 -76 84 -76c166 0 211 400 236 504l70 334h294l-79 -381c-5 -20 -7 -39 -7 -57c0 -47 15 -84 62 -84
c80 0 141 76 164 180l71 342h295l-147 -696c-6 -23 -8 -45 -8 -66c0 -57 26 -76 84 -76c79 0 135 76 165 181zM485 -512h-104c16 16 27 45 27 63c0 80 -99 99 -99 220c0 79 37 157 109 229h104c-16 -16 -26 -43 -26 -61c0 -68 100 -111 100 -230c-2 -76 -47 -153 -111 -221z
" />
    <glyph glyph-name="afii10095_afii10073" unicode="&#x44d;&#x437;" horiz-adv-x="1714" 
d="M1714 367h86c-82 -279 -248 -357 -375 -390c-6 -309 -159 -489 -387 -489c-125 0 -229 66 -229 199c0 166 168 252 321 301c-4 145 -53 217 -147 217h-63l26 123h60c147 0 251 157 251 352c0 80 -24 176 -116 176c-117 0 -219 -133 -355 -248
c-38 -246 -206 -620 -583 -620c-189 0 -279 84 -279 217c0 114 56 172 119 172c23 0 49 -4 76 -29c-19 -49 -27 -96 -27 -139c0 -76 37 -113 113 -113c125 0 239 191 284 396h-274l27 122h266c2 27 4 52 4 78c0 123 -55 178 -178 178c-88 0 -146 -45 -197 -133h-104
c76 181 184 305 424 305c198 0 331 -98 338 -317c143 160 256 317 469 317c174 0 303 -118 303 -325c0 -268 -236 -436 -318 -453c64 -22 142 -96 168 -205c148 43 232 111 297 308zM1124 -111c-106 -36 -202 -92 -202 -174c0 -39 22 -67 69 -67c60 0 117 112 133 241z" />
    <glyph glyph-name="afii10097_afii10089" unicode="&#x44f;&#x447;" horiz-adv-x="2109" 
d="M2109 367h86c-114 -334 -303 -379 -411 -379c-123 0 -219 73 -219 245c0 37 6 82 16 134l10 51c-88 -96 -174 -115 -245 -115c-74 0 -136 25 -177 82c-65 -219 -182 -397 -389 -397c-155 0 -235 80 -235 227c0 33 4 68 12 104l25 115c-37 -8 -76 -12 -117 -12
c-66 -279 -121 -434 -313 -434c-154 0 -230 108 -230 231c0 96 47 164 127 164c64 0 107 -43 107 -107c0 -67 -39 -100 -82 -94c2 -30 20 -65 80 -65c96 0 131 121 174 315c-115 25 -195 98 -195 238c0 190 131 354 539 354h311l-149 -696c-7 -23 -9 -45 -9 -66
c0 -57 27 -76 84 -76c166 0 209 389 236 504l69 334h295l-79 -381c-5 -20 -7 -39 -7 -57c0 -47 15 -84 62 -84c80 0 141 76 164 180l71 342h295l-147 -696c-6 -23 -8 -45 -8 -66c0 -57 26 -76 84 -76c79 0 135 76 165 181zM600 522l84 391h-49c-162 0 -244 -98 -244 -237
c0 -121 66 -158 148 -158c24 0 45 -2 61 4z" />
    <glyph glyph-name="afii10022_afii10073" unicode="&#x415;&#x437;" horiz-adv-x="1925" 
d="M1925 367h86c-82 -279 -248 -357 -375 -390c-6 -309 -159 -489 -387 -489c-125 0 -229 66 -229 199c0 166 168 252 321 301c-4 145 -53 217 -147 217h-64l27 123h60c147 0 251 157 251 352c0 80 -20 176 -125 176c-122 0 -206 -84 -305 -324
c-127 -313 -295 -569 -647 -569c-264 0 -377 170 -377 361c0 215 142 469 379 530c-88 64 -125 154 -125 246c0 211 187 440 449 440c164 0 293 -88 293 -256c0 -123 -70 -213 -152 -213c-37 0 -70 19 -96 55c49 17 90 107 90 179c0 84 -57 114 -113 114
c-123 0 -209 -145 -209 -289c0 -120 60 -235 207 -274c-219 -49 -366 -301 -366 -489c0 -115 55 -207 194 -207c217 0 295 168 393 389c117 264 199 493 496 493c197 0 324 -118 324 -325c0 -268 -236 -436 -318 -453c64 -22 142 -96 168 -205c148 43 232 111 297 308z
M1335 -111c-106 -36 -202 -92 -202 -174c0 -39 22 -67 69 -67c60 0 117 112 133 241z" />
    <glyph glyph-name="afii10022_afii10087" unicode="&#x415;&#x445;" horiz-adv-x="1632" 
d="M1632 367h86c-114 -334 -311 -379 -422 -379c-131 0 -188 80 -235 270c-148 -174 -428 -291 -658 -291c-213 0 -389 101 -389 357c0 215 142 469 379 530c-88 64 -125 154 -125 246c0 211 187 440 449 440c164 0 293 -88 293 -256c0 -123 -70 -213 -152 -213
c-37 0 -70 19 -96 55c49 17 90 107 90 179c0 84 -57 114 -113 114c-123 0 -209 -145 -209 -289c0 -120 60 -235 207 -274c-219 -49 -366 -301 -366 -489c0 -148 88 -209 209 -209c149 0 335 92 454 227l-102 561h289l65 -364c123 131 195 252 195 325c0 11 0 19 -2 25
c-15 -2 -25 -4 -35 -4c-72 0 -96 51 -96 114c0 64 51 97 114 97c92 0 140 -82 140 -183c0 -133 -91 -274 -293 -487l18 -102c16 -76 29 -181 121 -181c80 0 154 76 184 181z" />
    <glyph glyph-name="afii10023_afii10073" unicode="&#x401;&#x437;" horiz-adv-x="1925" 
d="M1925 367h86c-82 -279 -248 -357 -375 -390c-6 -309 -159 -489 -387 -489c-125 0 -229 66 -229 199c0 166 168 252 321 301c-4 145 -53 217 -147 217h-64l27 123h60c147 0 251 157 251 352c0 80 -20 176 -125 176c-122 0 -206 -84 -305 -324
c-127 -313 -295 -569 -647 -569c-264 0 -377 170 -377 361c0 215 142 469 379 530c-88 64 -125 154 -125 246c0 211 187 440 449 440c164 0 293 -88 293 -256c0 -123 -70 -213 -152 -213c-37 0 -70 19 -96 55c49 17 90 107 90 179c0 84 -57 114 -113 114
c-123 0 -209 -145 -209 -289c0 -120 60 -235 207 -274c-219 -49 -366 -301 -366 -489c0 -115 55 -207 194 -207c217 0 295 168 393 389c117 264 199 493 496 493c197 0 324 -118 324 -325c0 -268 -236 -436 -318 -453c64 -22 142 -96 168 -205c148 43 232 111 297 308z
M1335 -111c-106 -36 -202 -92 -202 -174c0 -39 22 -67 69 -67c60 0 117 112 133 241zM737 1810c0 -71 -57 -124 -125 -124c-71 0 -125 53 -125 124c0 68 54 125 125 125c68 0 125 -57 125 -125zM1106 1810c0 -71 -57 -124 -125 -124c-72 0 -125 53 -125 124
c0 68 53 125 125 125c68 0 125 -57 125 -125z" />
    <glyph glyph-name="afii10023_afii10087" unicode="&#x401;&#x445;" horiz-adv-x="1632" 
d="M1632 367h86c-114 -334 -311 -379 -422 -379c-131 0 -188 80 -235 270c-148 -174 -428 -291 -658 -291c-213 0 -389 101 -389 357c0 215 142 469 379 530c-88 64 -125 154 -125 246c0 211 187 440 449 440c164 0 293 -88 293 -256c0 -123 -70 -213 -152 -213
c-37 0 -70 19 -96 55c49 17 90 107 90 179c0 84 -57 114 -113 114c-123 0 -209 -145 -209 -289c0 -120 60 -235 207 -274c-219 -49 -366 -301 -366 -489c0 -148 88 -209 209 -209c149 0 335 92 454 227l-102 561h289l65 -364c123 131 195 252 195 325c0 11 0 19 -2 25
c-15 -2 -25 -4 -35 -4c-72 0 -96 51 -96 114c0 64 51 97 114 97c92 0 140 -82 140 -183c0 -133 -91 -274 -293 -487l18 -102c16 -76 29 -181 121 -181c80 0 154 76 184 181zM737 1810c0 -71 -57 -124 -125 -124c-71 0 -125 53 -125 124c0 68 54 125 125 125
c68 0 125 -57 125 -125zM1106 1810c0 -71 -57 -124 -125 -124c-72 0 -125 53 -125 124c0 68 53 125 125 125c68 0 125 -57 125 -125z" />
    <glyph glyph-name="afii10035_afii10073" unicode="&#x421;&#x437;" horiz-adv-x="1993" 
d="M1993 367h86c-82 -279 -248 -357 -375 -390c-6 -309 -160 -489 -387 -489c-125 0 -230 66 -230 199c0 166 168 252 322 301c-4 145 -53 217 -147 217h-64l27 123h59c148 0 252 157 252 352c0 80 -20 176 -125 176c-121 0 -211 -82 -305 -324
c-131 -352 -375 -565 -619 -565c-303 0 -448 135 -448 504c0 371 178 1065 715 1065c190 0 342 -78 342 -274c0 -109 -39 -189 -144 -189c-32 0 -78 6 -116 53c49 25 94 109 94 189c0 65 -33 125 -125 125c-227 0 -426 -539 -426 -957c0 -188 47 -319 246 -319
c166 0 280 117 401 385c117 264 199 493 496 493c196 0 323 -118 323 -325c0 -268 -235 -436 -317 -453c63 -22 141 -96 168 -205c147 43 231 111 297 308zM1403 -111c-107 -36 -203 -92 -203 -174c0 -39 23 -67 70 -67c59 0 116 112 133 241z" />
    <glyph glyph-name="afii10035_afii10087" unicode="&#x421;&#x445;" horiz-adv-x="1667" 
d="M1667 367h86c-115 -334 -311 -379 -422 -379c-131 0 -188 78 -235 272c-183 -215 -480 -293 -629 -293c-287 0 -428 135 -428 504c0 371 178 1065 715 1065c190 0 342 -78 342 -274c0 -109 -39 -189 -144 -189c-32 0 -78 6 -116 53c49 25 94 109 94 189
c0 65 -33 125 -125 125c-227 0 -426 -539 -426 -957c0 -188 47 -319 246 -319c172 0 336 98 444 223l-102 559h288l66 -364c123 131 195 252 195 325c0 11 0 19 -3 25c-14 -2 -24 -4 -34 -4c-72 0 -97 51 -97 114c0 64 52 97 115 97c92 0 139 -82 139 -183
c0 -133 -90 -274 -293 -487l19 -102c16 -76 29 -181 121 -181c80 0 153 76 184 181z" />
    <glyph glyph-name="afii10053_afii10073" unicode="&#x404;&#x437;" horiz-adv-x="1993" 
d="M1993 367h86c-82 -279 -248 -357 -375 -390c-6 -309 -160 -489 -387 -489c-125 0 -230 66 -230 199c0 166 168 252 322 301c-4 145 -53 217 -147 217h-64l27 123h59c148 0 252 157 252 352c0 80 -20 176 -125 176c-121 0 -211 -82 -305 -324
c-131 -352 -375 -565 -619 -565c-303 0 -448 135 -448 504c0 371 178 1065 715 1065c190 0 342 -78 342 -274c0 -109 -39 -189 -144 -189c-32 0 -78 6 -116 53c49 25 94 109 94 189c0 65 -33 125 -125 125c-150 0 -289 -240 -365 -518h391l-32 -152h-393
c-17 -96 -27 -195 -27 -287c0 -188 47 -319 246 -319c166 0 280 117 401 385c117 264 199 493 496 493c196 0 323 -118 323 -325c0 -268 -235 -436 -317 -453c63 -22 141 -96 168 -205c147 43 231 111 297 308zM1403 -111c-107 -36 -203 -92 -203 -174c0 -39 23 -67 70 -67
c59 0 116 112 133 241z" />
    <glyph glyph-name="afii10053_afii10087" unicode="&#x404;&#x445;" horiz-adv-x="1667" 
d="M1667 367h86c-115 -334 -311 -379 -422 -379c-131 0 -188 78 -235 272c-183 -215 -480 -293 -629 -293c-287 0 -428 135 -428 504c0 371 178 1065 715 1065c190 0 342 -78 342 -274c0 -109 -39 -189 -144 -189c-32 0 -78 6 -116 53c49 25 94 109 94 189
c0 65 -33 125 -125 125c-150 0 -289 -240 -365 -518h391l-32 -152h-393c-17 -96 -27 -195 -27 -287c0 -188 47 -319 246 -319c172 0 336 98 444 223l-102 559h288l66 -364c123 131 195 252 195 325c0 11 0 19 -3 25c-14 -2 -24 -4 -34 -4c-72 0 -97 51 -97 114
c0 64 52 97 115 97c92 0 139 -82 139 -183c0 -133 -90 -274 -293 -487l19 -102c16 -76 29 -181 121 -181c80 0 153 76 184 181z" />
    <glyph glyph-name="afii10070_afii10087" unicode="&#x435;&#x445;" horiz-adv-x="1561" 
d="M1561 367h86c-115 -334 -314 -379 -416 -379c-137 0 -197 78 -246 284c-164 -170 -418 -284 -647 -284c-199 0 -365 86 -365 334c0 223 133 720 553 720c183 0 226 -94 226 -196c0 -238 -226 -416 -473 -432c-3 -19 -3 -39 -3 -56c0 -153 91 -202 205 -202
c148 0 344 80 482 233l-117 635h289l79 -442c123 131 195 252 195 325c0 11 0 19 -2 25c-14 -2 -23 -4 -37 -4c-72 0 -94 55 -94 106c0 72 47 105 110 105c97 0 144 -80 144 -178c0 -134 -86 -271 -293 -494l18 -100c17 -76 29 -181 121 -181c80 0 154 76 185 181zM295 512
c158 6 299 168 299 338c0 51 -12 84 -51 84c-103 0 -209 -232 -248 -422z" />
    <glyph glyph-name="afii10071_afii10087" unicode="&#x451;&#x445;" horiz-adv-x="1561" 
d="M1561 367h86c-115 -334 -314 -379 -416 -379c-137 0 -197 78 -246 284c-164 -170 -418 -284 -647 -284c-199 0 -365 86 -365 334c0 223 133 720 553 720c183 0 226 -94 226 -196c0 -238 -226 -416 -473 -432c-3 -19 -3 -39 -3 -56c0 -153 91 -202 205 -202
c148 0 344 80 482 233l-117 635h289l79 -442c123 131 195 252 195 325c0 11 0 19 -2 25c-14 -2 -23 -4 -37 -4c-72 0 -94 55 -94 106c0 72 47 105 110 105c97 0 144 -80 144 -178c0 -134 -86 -271 -293 -494l18 -100c17 -76 29 -181 121 -181c80 0 154 76 185 181zM295 512
c158 6 299 168 299 338c0 51 -12 84 -51 84c-103 0 -209 -232 -248 -422zM494 1298c0 -71 -58 -124 -125 -124c-72 0 -125 53 -125 124c0 68 53 125 125 125c67 0 125 -57 125 -125zM862 1298c0 -71 -57 -124 -125 -124c-71 0 -125 53 -125 124c0 68 54 125 125 125
c68 0 125 -57 125 -125z" />
    <glyph glyph-name="afii10080_afii10087" unicode="&#x43e;&#x445;" horiz-adv-x="1741" 
d="M1741 367h86c-115 -334 -311 -379 -422 -379c-150 0 -209 110 -258 379l-4 14c-94 -66 -185 -145 -185 -229c7 2 17 2 27 2c72 0 84 -54 84 -101c0 -80 -47 -112 -115 -112c-92 0 -135 57 -135 145c0 137 156 311 303 410l-57 317c-84 -100 -176 -166 -277 -197
c-32 -385 -239 -624 -491 -624c-191 0 -328 88 -328 323c0 238 142 727 561 727c172 0 261 -106 263 -321c79 8 163 82 251 205l-18 98h289l74 -406c129 115 200 209 200 289c0 11 0 19 -2 25c-14 -2 -24 -4 -35 -4c-71 0 -96 51 -96 114c0 64 51 97 115 97
c92 0 139 -82 139 -183c0 -137 -88 -266 -299 -454l25 -135c16 -76 28 -181 120 -181c80 0 154 76 185 181zM616 600c-36 10 -55 41 -55 92c0 58 25 94 64 109c-7 88 -27 117 -78 117c-146 0 -273 -373 -273 -576c0 -135 27 -166 105 -166c100 0 205 184 237 424z" />
    <glyph glyph-name="afii10082_afii10073" unicode="&#x440;&#x437;" horiz-adv-x="1823" 
d="M1823 367h86c-82 -279 -248 -357 -375 -390c-6 -309 -160 -489 -387 -489c-125 0 -229 66 -229 199c0 166 167 252 321 301c-4 145 -53 217 -147 217h-64l27 123h59c148 0 252 157 252 352c0 80 -25 176 -117 176c-110 0 -221 -133 -346 -242
c-22 -272 -147 -626 -500 -626c-104 0 -151 35 -174 73l-106 -499l-309 -74l342 1612h295l-33 -154c59 51 135 88 239 88c136 0 244 -76 250 -305c137 154 256 313 465 313c174 0 303 -118 303 -325c0 -268 -235 -436 -317 -453c63 -22 141 -96 168 -205
c147 43 231 111 297 308zM383 786l-121 -573c8 -23 31 -47 78 -47c215 0 287 360 287 551c0 157 -66 170 -103 170c-47 0 -102 -35 -141 -101zM1233 -111c-107 -36 -203 -92 -203 -174c0 -39 23 -67 70 -67c59 0 117 112 133 241z" />
    <glyph glyph-name="afii10083_afii10087" unicode="&#x441;&#x445;" horiz-adv-x="1546" 
d="M1546 367h86c-114 -334 -313 -379 -415 -379c-140 0 -203 84 -246 282c-174 -174 -428 -282 -647 -282c-199 0 -365 88 -365 336c0 221 133 718 551 718c180 0 227 -94 227 -190c0 -104 -53 -147 -108 -147c-27 0 -49 8 -72 24c16 43 25 82 25 121c0 49 -17 84 -56 84
c-131 0 -264 -389 -264 -576c0 -153 92 -202 207 -202c147 0 342 80 479 233l-117 635h289l80 -442c123 131 195 252 195 325c0 11 0 19 -2 25c-15 -2 -23 -4 -37 -4c-72 0 -94 55 -94 106c0 72 47 105 110 105c96 0 144 -80 144 -178c0 -134 -86 -271 -293 -494l18 -100
c16 -76 29 -181 121 -181c80 0 154 76 184 181z" />
    <glyph glyph-name="afii10086_afii10073" unicode="&#x444;&#x437;" horiz-adv-x="2351" 
d="M2351 367h86c-82 -279 -248 -357 -375 -390c-6 -309 -159 -489 -387 -489c-125 0 -229 66 -229 199c0 166 168 252 321 301c-4 145 -53 217 -147 217h-64l27 123h59c148 0 252 157 252 352c0 80 -24 176 -116 176c-115 0 -219 -133 -351 -248h-2
c-26 -334 -170 -620 -507 -620c-82 0 -138 24 -166 73l-107 -499l-289 -74l136 612c-70 -75 -150 -112 -238 -112c-172 0 -283 100 -283 329c0 154 43 308 129 461c82 148 226 256 398 256c112 0 168 -37 168 -112l102 471l283 41l-111 -488c68 60 147 88 240 88
c161 0 245 -102 250 -309h2c143 160 256 317 469 317c174 0 303 -118 303 -325c0 -268 -236 -436 -318 -453c64 -22 142 -96 168 -205c148 43 232 111 297 308zM905 786l-121 -573c11 -31 56 -47 97 -47c184 0 288 274 288 551c0 114 -47 170 -114 170
c-56 0 -111 -33 -150 -101zM537 332l108 506c-8 47 -39 69 -90 69c-49 0 -98 -35 -145 -102c-48 -70 -80 -146 -103 -230c-65 -256 -22 -346 6 -370c43 -43 174 -15 224 127zM1761 -111c-106 -36 -202 -92 -202 -174c0 -39 22 -67 69 -67c60 0 117 112 133 241z" />
    <glyph glyph-name=".notdef" horiz-adv-x="1659" 
d="M0 -512l547 2560h1112l-549 -2560h-1110zM612 1966l-516 -2396h948l517 2396h-949zM961 1094c0 75 -33 118 -89 118c-57 0 -100 -45 -100 -108c0 -43 25 -84 62 -103v-8c-31 -30 -68 -41 -99 -41c-57 0 -94 45 -94 111c0 123 117 219 270 219c144 0 228 -70 228 -182
c0 -226 -340 -271 -340 -514h-86c0 256 248 303 248 508zM809 389c0 -51 -33 -82 -82 -82c-51 0 -82 31 -82 82c0 49 31 82 82 82c49 0 82 -33 82 -82z" />
    <glyph glyph-name="space" unicode=" " horiz-adv-x="444" 
 />
    <glyph glyph-name="exclam" unicode="!" horiz-adv-x="526" 
d="M375 473h-174l156 1024l315 43zM392 152c0 -91 -72 -164 -162 -164s-164 73 -164 164c0 90 74 161 164 161s162 -71 162 -161z" />
    <glyph glyph-name="numbersign" unicode="#" horiz-adv-x="1350" 
d="M210 850l31 158h211l75 371h150l-76 -371h265l75 371h150l-76 -371h199l-31 -158h-200l-51 -252h194l-31 -158h-195l-77 -382h-149l77 382h-265l-77 -382h-149l77 382h-215l31 158h216l51 252h-210zM569 850l-51 -252h265l51 252h-265z" />
    <glyph glyph-name="ampersand" unicode="&#x26;" horiz-adv-x="1397" 
d="M1162 558c-30 -8 -57 -11 -83 -12c-40 -352 -289 -583 -633 -583c-258 0 -417 139 -417 365c0 229 168 460 379 522v8c-87 72 -117 143 -117 260c0 225 203 422 448 422c187 0 320 -119 320 -283c0 -112 -64 -190 -156 -190c-51 0 -94 23 -125 63c49 31 84 99 84 170
c0 76 -41 123 -106 123c-111 0 -211 -139 -211 -295c0 -137 78 -235 207 -268v-8c-197 -37 -367 -254 -367 -467c0 -141 76 -225 201 -225c179 0 361 157 402 386c-30 -1 -60 -4 -94 -13c-72 -25 -131 -65 -161 -110l-5 -1c-19 22 -30 48 -38 73c-35 119 52 221 164 257
c89 27 191 20 274 38c65 22 138 73 168 115h5c22 -22 36 -48 44 -75c34 -115 -61 -232 -183 -272z" />
    <glyph glyph-name="parenleft" unicode="(" horiz-adv-x="895" 
d="M1062 1563l27 -82c-322 -191 -549 -705 -549 -1239c0 -260 53 -494 154 -668l-68 -59c-205 206 -319 499 -319 821c0 520 299 1005 755 1227z" />
    <glyph glyph-name="parenright" unicode=")" horiz-adv-x="846" 
d="M-113 -485l-27 82c322 190 549 704 549 1239c0 260 -53 493 -154 667l68 60c205 -207 319 -500 319 -822c0 -520 -299 -1005 -755 -1226z" />
    <glyph glyph-name="asterisk" unicode="*" horiz-adv-x="1055" 
d="M634 1550l-51 -297c80 98 143 137 200 137c62 0 103 -49 103 -116c0 -9 -2 -19 -4 -27l-265 -86c201 -37 246 -86 246 -152c0 -45 -14 -75 -74 -125l-206 183c20 -74 34 -135 34 -185c0 -86 -36 -129 -110 -129c-23 0 -51 7 -86 17l51 297c-80 -99 -139 -133 -195 -133
c-61 0 -102 49 -102 116c0 9 0 19 2 27l260 84c-203 35 -248 84 -248 149c0 46 17 76 76 125l207 -182c-22 74 -35 135 -35 184c0 86 37 129 109 129c24 0 53 -6 88 -16z" />
    <glyph glyph-name="comma" unicode="," horiz-adv-x="442" 
d="M84 -258c-12 8 -18 20 -18 35c0 73 106 110 106 186c0 14 -8 29 -27 41c-55 35 -96 82 -96 150c0 90 72 163 162 163s139 -65 139 -155c0 -121 -98 -305 -266 -420z" />
    <glyph glyph-name="hyphen" unicode="-" horiz-adv-x="594" 
d="M451 455h-412l37 161h409z" />
    <glyph glyph-name="period" unicode="." horiz-adv-x="539" 
d="M389 154c0 -91 -74 -162 -164 -162s-162 71 -162 162c0 90 72 163 162 163s164 -73 164 -163z" />
    <glyph glyph-name="slash" unicode="/" horiz-adv-x="637" 
d="M170 -512h-147l434 2048h147z" />
    <glyph glyph-name="zero" unicode="0" horiz-adv-x="1118" 
d="M456 -21c-321 0 -413 227 -413 512c0 566 281 1056 697 1056c270 0 394 -197 394 -493c0 -398 -174 -1075 -678 -1075zM737 1425c-194 0 -388 -530 -388 -985c0 -154 23 -306 134 -306c202 0 373 517 373 992c0 160 -37 299 -119 299z" />
    <glyph glyph-name="one" unicode="1" horiz-adv-x="649" 
d="M338 0h-295l270 1278h-194l24 94c113 0 273 12 521 160z" />
    <glyph glyph-name="two" unicode="2" horiz-adv-x="1008" 
d="M883 354l6 -4c17 -47 26 -90 26 -127c0 -148 -130 -248 -274 -248c-130 0 -266 82 -419 82c-70 0 -143 -15 -227 -59h-8c-8 33 -12 65 -12 96c4 386 684 635 684 1075c0 147 -45 253 -153 253c-96 0 -162 -75 -162 -166c0 -99 45 -172 98 -204v-8
c-47 -43 -104 -69 -155 -69c-80 0 -148 75 -148 212c0 164 150 350 430 350c232 0 398 -139 398 -374c0 -392 -588 -578 -751 -882c45 12 84 15 125 15c135 0 250 -46 342 -46c70 0 130 25 200 104z" />
    <glyph glyph-name="three" unicode="3" horiz-adv-x="1053" 
d="M739 854c181 -59 258 -190 258 -338c0 -248 -227 -526 -577 -526c-119 0 -408 33 -408 348c0 172 84 293 248 293c76 0 143 -25 160 -105c-158 -10 -180 -139 -180 -221c0 -122 82 -186 175 -186c123 0 265 111 265 350c0 154 -82 322 -272 387c229 66 350 256 350 399
c0 97 -51 168 -156 168c-98 0 -162 -63 -162 -159c0 -56 21 -129 78 -146c-51 -47 -106 -69 -156 -69c-81 0 -147 61 -147 174c0 186 186 311 424 311c252 0 381 -141 381 -299c0 -137 -92 -285 -281 -381z" />
    <glyph glyph-name="four" unicode="4" horiz-adv-x="975" 
d="M383 0l153 441c-85 24 -172 55 -268 55c-69 0 -147 -6 -221 -43h-8l-43 80v10c229 275 448 566 448 836c0 43 -6 86 -16 127c31 9 70 13 102 13c127 0 195 -78 195 -177c0 -198 -307 -520 -510 -682l2 -6c45 18 117 37 182 37c63 0 142 -17 213 -30l166 478h131
l-101 -476c44 17 88 48 130 97l6 -4c23 -39 33 -76 33 -112c0 -109 -94 -198 -220 -222l-89 -422h-285z" />
    <glyph glyph-name="five" unicode="5" horiz-adv-x="1059" 
d="M404 -10c-241 0 -373 108 -373 298c0 172 108 287 265 287c85 0 132 -34 146 -104c-111 -13 -184 -84 -184 -190c0 -97 61 -154 157 -154c160 0 271 158 271 378c0 191 -83 296 -225 296c-76 0 -161 -30 -268 -93l-28 20l159 775c119 -14 235 -27 343 -27
c116 0 231 15 357 58c2 -23 4 -45 4 -68c0 -131 -61 -237 -235 -237c-109 0 -261 41 -342 51l-82 -371c86 42 172 64 254 64c222 0 362 -162 362 -422c0 -335 -233 -561 -581 -561z" />
    <glyph glyph-name="six" unicode="6" horiz-adv-x="1023" 
d="M676 931c187 0 314 -133 314 -354c0 -304 -246 -587 -539 -587c-286 0 -418 156 -418 540c0 559 317 1004 715 1004c180 0 297 -93 297 -232c0 -104 -65 -188 -150 -188c-45 0 -88 26 -104 65c44 23 67 72 67 119c0 59 -35 115 -107 115c-168 0 -341 -286 -401 -676l7 2
c49 127 168 192 319 192zM332 448c0 -216 64 -298 162 -298c114 0 235 181 235 421c0 157 -69 215 -164 215c-167 0 -233 -133 -233 -338z" />
    <glyph glyph-name="seven" unicode="7" horiz-adv-x="950" 
d="M1064 1526l4 -8c0 -182 -603 -818 -603 -1276c0 -72 15 -148 37 -212c-49 -26 -99 -38 -144 -38c-125 0 -205 94 -205 248c0 423 602 879 602 1032c-50 -15 -90 -27 -137 -27c-91 0 -169 45 -267 45c-81 0 -138 -31 -202 -106l-6 2c-18 41 -27 85 -27 125
c0 145 116 238 282 238c139 0 231 -66 390 -66c73 0 168 14 276 43z" />
    <glyph glyph-name="eight" unicode="8" horiz-adv-x="1022" 
d="M-4 378c0 193 117 334 389 453c-98 102 -184 210 -184 344c0 207 189 375 441 375c220 0 383 -114 387 -284c0 -137 -98 -259 -301 -370c127 -118 259 -244 263 -433c0 -257 -229 -470 -530 -475c-269 0 -461 152 -465 390zM687 385c-2 139 -107 251 -218 363
c-130 -89 -203 -221 -203 -368c0 -153 81 -251 195 -251c130 0 226 117 226 256zM491 1248c1 -105 67 -189 151 -271c103 90 167 214 167 321c0 95 -52 154 -136 154c-107 0 -182 -87 -182 -204z" />
    <glyph glyph-name="nine" unicode="9" horiz-adv-x="1001" 
d="M370 617c-188 0 -315 133 -315 354c0 305 265 566 572 566c252 0 381 -183 381 -539c0 -560 -299 -1004 -684 -1004c-181 0 -297 92 -297 232c0 104 63 190 147 190c49 0 92 -27 105 -66c-43 -24 -67 -72 -67 -117c0 -52 32 -100 103 -100c171 0 330 291 380 678l-7 -2
c-49 -127 -168 -192 -318 -192zM715 1143c0 95 -14 259 -150 259c-142 0 -250 -219 -250 -425c0 -149 60 -211 144 -211c187 0 256 156 256 377z" />
    <glyph glyph-name="colon" unicode=":" horiz-adv-x="547" 
d="M410 276c0 -90 -74 -161 -164 -161s-162 71 -162 161c0 91 72 164 162 164s164 -73 164 -164zM512 768c0 -90 -74 -162 -164 -162s-162 72 -162 162s72 164 162 164s164 -74 164 -164z" />
    <glyph glyph-name="semicolon" unicode=";" horiz-adv-x="565" 
d="M518 678c0 -90 -74 -162 -164 -162s-161 72 -161 162s71 164 161 164s164 -74 164 -164zM129 -225c-12 8 -18 20 -18 35c0 73 106 110 106 186c0 14 -8 29 -27 41c-55 35 -96 82 -96 149c0 90 72 164 162 164s139 -65 139 -155c0 -121 -98 -306 -266 -420z" />
    <glyph glyph-name="equal" unicode="=" horiz-adv-x="1055" 
d="M911 647h-755l49 230h753zM821 207h-755l49 229h753z" />
    <glyph glyph-name="question" unicode="?" horiz-adv-x="903" 
d="M603 1270c0 119 -51 186 -137 186c-90 0 -158 -72 -158 -168c0 -69 39 -135 98 -162v-8c-49 -45 -106 -69 -155 -69c-88 0 -148 69 -148 172c0 194 183 342 424 342c221 0 357 -107 357 -283c0 -352 -533 -424 -533 -805h-135c0 404 387 473 387 795zM421 164
c0 -90 -72 -164 -162 -164s-164 74 -164 164s74 162 164 162s162 -72 162 -162z" />
    <glyph glyph-name="at" unicode="@" horiz-adv-x="1410" 
d="M962 33c0 -172 -292 -241 -474 -241c-277 0 -507 122 -507 520c0 508 376 942 851 942c287 0 499 -159 499 -470s-212 -591 -440 -591c-90 0 -150 44 -155 128c-73 -96 -149 -148 -236 -148c-103 0 -165 72 -165 210c0 242 190 514 373 514c42 0 70 -15 108 -56l33 51
l155 -15l-95 -361c-15 -56 -28 -105 -28 -141c0 -29 8 -64 40 -64c80 0 229 219 229 468c0 212 -108 326 -303 326c-358 0 -680 -382 -680 -781c0 -258 114 -367 333 -367c166 0 320 69 407 183c30 -15 55 -49 55 -107zM696 377l103 387c-16 15 -29 20 -44 20
c-100 0 -222 -223 -222 -385c0 -60 17 -86 55 -86c39 0 88 27 108 64z" />
    <glyph glyph-name="A" unicode="A" horiz-adv-x="1368" 
d="M1096 0h-295l157 743c-104 48 -184 66 -274 74c-154 -334 -266 -723 -266 -936c0 -65 14 -96 28 -114c-108 0 -274 4 -274 217c0 182 121 520 301 833c-129 -8 -213 -35 -240 -106c11 0 27 -33 27 -64c0 -49 -51 -80 -115 -80c-71 0 -127 39 -127 119
c0 139 179 252 418 252c27 0 64 -2 107 -6c207 328 473 604 712 604c48 0 113 -6 162 -29zM977 834l119 557c-123 -66 -254 -256 -369 -486c82 -16 170 -39 250 -71z" />
    <glyph glyph-name="B" unicode="B" horiz-adv-x="1313" 
d="M500 0h-295l278 1303l303 40l-96 -454h12c162 0 295 178 295 332c0 114 -75 221 -270 221c-240 0 -512 -162 -512 -498c0 -104 29 -123 29 -139c-138 0 -219 49 -219 188c0 283 356 543 743 543c301 0 436 -158 436 -326c0 -123 -71 -249 -205 -325
c175 -33 242 -176 242 -330c0 -197 -104 -590 -448 -590c-88 0 -203 27 -203 152c0 35 8 73 26 119c52 -56 91 -74 138 -74c149 0 202 213 202 368c0 142 -45 261 -194 261c-17 0 -55 0 -94 -7z" />
    <glyph glyph-name="C" unicode="C" horiz-adv-x="1018" 
d="M1024 369l47 -21c-110 -274 -395 -381 -584 -381c-303 0 -448 135 -448 504c0 371 178 1065 715 1065c190 0 342 -78 342 -274c0 -109 -39 -189 -144 -189c-32 0 -78 6 -116 53c49 25 94 109 94 189c0 65 -33 125 -125 125c-227 0 -426 -539 -426 -957
c0 -188 47 -319 246 -319c161 0 303 76 399 205z" />
    <glyph glyph-name="D" unicode="D" horiz-adv-x="1358" 
d="M487 0h-294l278 1303l303 40l-246 -1148c37 -27 76 -41 117 -41c244 0 393 487 393 901c0 278 -120 387 -299 387c-305 0 -536 -187 -536 -498c0 -104 28 -123 28 -139c-137 0 -219 51 -219 190c0 281 346 541 762 541c397 0 547 -276 547 -590
c0 -469 -264 -973 -567 -973c-80 0 -162 33 -250 109z" />
    <glyph glyph-name="E" unicode="E" horiz-adv-x="940" 
d="M944 369l47 -21c-108 -239 -352 -385 -600 -385c-264 0 -377 170 -377 361c0 215 142 469 379 530c-88 64 -125 154 -125 246c0 211 187 440 449 440c164 0 293 -88 293 -256c0 -123 -70 -213 -152 -213c-37 0 -70 19 -96 55c49 17 90 107 90 179c0 84 -57 114 -113 114
c-123 0 -209 -145 -209 -289c0 -120 60 -235 207 -274c-219 -49 -366 -301 -366 -489c0 -115 55 -207 194 -207c125 0 303 71 379 209z" />
    <glyph glyph-name="F" unicode="F" horiz-adv-x="940" 
d="M475 0h-295l295 1368c-158 -6 -266 -96 -266 -424c0 -104 29 -123 29 -139c-142 0 -220 51 -220 199c0 272 193 532 699 532c82 0 209 -25 340 -25c63 0 127 7 184 25c-27 -84 -37 -213 -194 -246c-97 0 -191 17 -287 39l-86 -407h299l-33 -152h-299z" />
    <glyph glyph-name="G" unicode="G" horiz-adv-x="1184" 
d="M876 858l242 -2l-150 -688c-88 -408 -241 -592 -495 -592c-199 0 -332 113 -332 279c0 159 121 284 276 284c105 0 174 -55 174 -141c0 -31 -8 -59 -22 -78c-25 33 -70 53 -117 53c-82 0 -139 -59 -139 -147c0 -86 55 -148 133 -148c94 0 164 86 201 252l102 453h-8
c-74 -102 -182 -160 -307 -160c-242 0 -396 203 -396 518c0 457 326 809 748 809c233 0 377 -108 377 -282c0 -117 -64 -195 -156 -195c-51 0 -98 23 -129 64c49 32 88 114 88 188c0 82 -49 129 -137 129c-244 0 -475 -358 -475 -737c0 -205 67 -316 190 -316
c148 0 262 158 332 457z" />
    <glyph glyph-name="H" unicode="H" horiz-adv-x="1362" 
d="M1096 0h-295l164 770h-301l-164 -770h-295l297 1393c-180 -76 -287 -230 -287 -449c0 -104 29 -123 29 -139c-142 0 -219 51 -219 199c0 272 376 532 718 532c31 0 56 -2 82 -4l-131 -610h301l131 610h295z" />
    <glyph glyph-name="I" unicode="I" horiz-adv-x="768" 
d="M487 0h-294l296 1391c-180 -74 -286 -226 -286 -447c0 -104 28 -123 28 -139c-141 0 -219 51 -219 199c0 272 377 532 719 532c31 0 55 -2 82 -4z" />
    <glyph glyph-name="J" unicode="J" horiz-adv-x="1098" 
d="M541 -70l321 1463c-180 -74 -289 -228 -289 -449c0 -104 29 -123 29 -139c-141 0 -219 51 -219 199c0 272 377 532 719 532h82l-307 -1454c-66 -313 -203 -506 -539 -506c-197 0 -303 117 -303 289c0 139 88 274 250 274c82 0 200 -6 200 -137c0 -25 -4 -51 -12 -82
c-51 43 -82 53 -123 53c-96 0 -143 -75 -143 -151c0 -107 80 -144 139 -144c92 0 146 39 195 252z" />
    <glyph glyph-name="K" unicode="K" horiz-adv-x="1231" 
d="M487 0h-294l296 1393c-180 -76 -286 -230 -286 -449c0 -104 28 -123 28 -139c-141 0 -219 51 -219 199c0 272 377 532 719 532c31 0 55 -2 82 -4l-133 -627c131 174 463 623 465 621h215l-569 -656c26 0 49 2 71 2c199 0 254 -94 254 -219c0 -170 -100 -387 -100 -518
c0 -63 31 -117 80 -135c-88 -25 -154 -35 -203 -35c-133 0 -160 72 -160 137c0 138 109 383 109 539c0 82 -31 139 -123 139c-19 0 -43 -2 -68 -8z" />
    <glyph glyph-name="L" unicode="L" horiz-adv-x="776" 
d="M184 -49l305 1419c-180 -74 -286 -225 -286 -446c0 -105 28 -123 28 -140c-141 0 -219 52 -219 199c0 272 377 533 719 533c31 0 55 -3 82 -5l-315 -1470c213 -49 428 -264 688 -264c55 0 112 8 172 33c-23 -197 -101 -322 -213 -322c-293 0 -551 465 -914 465
c-16 0 -30 0 -47 -2z" />
    <glyph glyph-name="M" unicode="M" horiz-adv-x="1612" 
d="M1432 0h-295l131 920l-385 -920h-281l41 924l-342 -924h-164l520 1407c-204 -68 -325 -225 -325 -461c0 -108 28 -123 28 -141c-133 0 -219 49 -219 186c0 262 340 545 652 545c53 0 104 -10 155 -29l-47 -1079l451 1079h295z" />
    <glyph glyph-name="N" unicode="N" horiz-adv-x="1368" 
d="M1272 1532h199l-334 -1532h-283l-237 1016l-234 -1016h-194l308 1403c-188 -66 -284 -211 -284 -410c0 -88 21 -164 55 -209c-174 0 -256 70 -256 222c0 292 280 538 622 538c64 0 105 -8 162 -28l247 -1096z" />
    <glyph glyph-name="O" unicode="O" horiz-adv-x="1362" 
d="M883 1343c-187 -112 -359 -636 -359 -952c0 -139 35 -237 119 -237c207 0 428 516 428 929c0 238 -47 359 -262 359c-313 0 -590 -201 -590 -527c0 -79 21 -94 21 -110c-131 0 -207 47 -207 172c0 287 393 559 825 559c359 0 485 -219 485 -524
c0 -396 -219 -1024 -755 -1024c-215 0 -367 112 -367 411c0 332 187 961 555 961c35 0 68 -2 107 -17z" />
    <glyph glyph-name="P" unicode="P" horiz-adv-x="1174" 
d="M487 0h-294l278 1303l303 40l-145 -684c207 17 358 285 358 504c0 152 -74 279 -254 279c-334 0 -530 -185 -530 -498c0 -104 28 -123 28 -139c-141 0 -219 51 -219 199c0 272 377 532 719 532c336 0 483 -193 483 -403c0 -261 -223 -549 -591 -549h-11z" />
    <glyph glyph-name="Q" unicode="Q" horiz-adv-x="1362" 
d="M1253 -55c-55 -142 -123 -176 -211 -176c-182 0 -225 127 -264 247c-59 -18 -123 -28 -190 -28c-215 0 -367 112 -367 411c0 332 187 961 555 961c35 0 68 -2 107 -17c-187 -112 -359 -636 -359 -952c0 -33 -2 -61 4 -88c50 12 93 19 127 19c72 0 121 -23 164 -56
c137 176 252 522 252 817c0 238 -47 359 -262 359c-313 0 -590 -201 -590 -527c0 -79 21 -94 21 -110c-131 0 -207 47 -207 172c0 287 393 559 825 559c359 0 485 -219 485 -524c0 -287 -118 -703 -391 -906c60 -88 127 -165 256 -165c15 0 29 2 45 4zM721 176
c-25 41 -59 70 -117 70c-18 0 -39 -2 -59 -8c18 -56 51 -84 98 -84c25 0 53 6 78 22z" />
    <glyph glyph-name="R" unicode="R" horiz-adv-x="1231" 
d="M487 0h-294l278 1303l303 40l-100 -473h16c170 0 291 201 291 357c0 114 -66 215 -225 215c-332 0 -553 -187 -553 -498c0 -104 28 -123 28 -139c-141 0 -219 51 -219 199c0 272 377 532 719 532c322 0 465 -160 465 -328c0 -125 -80 -266 -221 -350
c108 -31 141 -108 141 -205c0 -170 -100 -387 -100 -518c0 -63 31 -117 80 -135c-88 -25 -154 -35 -203 -35c-133 0 -160 72 -160 137c0 138 109 383 109 539c0 82 -31 139 -123 139c-19 0 -41 -2 -68 -8z" />
    <glyph glyph-name="S" unicode="S" horiz-adv-x="1167" 
d="M1132 1260c0 -115 -63 -193 -155 -193c-52 0 -95 23 -125 64c51 37 84 104 84 174c0 88 -56 143 -146 143c-110 0 -186 -86 -186 -207c0 -271 448 -429 448 -810c0 -268 -239 -468 -551 -468c-260 0 -432 143 -432 359c0 182 125 323 283 323c96 0 166 -51 182 -135
c-143 0 -233 -82 -233 -209c0 -119 76 -195 194 -195c144 0 250 109 250 256c0 298 -436 492 -436 810c0 215 195 375 459 375c221 0 364 -113 364 -287z" />
    <glyph glyph-name="T" unicode="T" horiz-adv-x="985" 
d="M616 0h-294l290 1356h-24c-217 0 -385 -84 -385 -414c0 -104 28 -123 28 -139c-141 0 -219 51 -219 198c0 273 193 533 699 533c247 0 323 -47 524 -47c96 0 182 20 238 43c-7 -180 -93 -260 -256 -260c-101 0 -206 22 -318 45z" />
    <glyph glyph-name="U" unicode="U" horiz-adv-x="1466" 
d="M728 -14c-271 0 -410 135 -410 393c0 67 10 139 29 215l209 831c-242 -65 -373 -245 -373 -429c0 -66 17 -134 53 -196c-155 0 -246 79 -246 219c0 273 365 525 770 525c46 0 78 -2 115 -10l-250 -946c-22 -84 -35 -162 -35 -221c0 -129 54 -195 160 -195
c151 0 257 139 318 422l204 946h289l-200 -946c-85 -401 -302 -608 -633 -608z" />
    <glyph glyph-name="V" unicode="V" horiz-adv-x="1260" 
d="M836 0h-295l-33 1399c-191 -72 -305 -228 -305 -455c0 -104 28 -123 28 -139c-141 0 -219 51 -219 199c0 272 377 532 719 532c31 0 55 -2 82 -4l18 -1260l431 1254h143z" />
    <glyph glyph-name="W" unicode="W" horiz-adv-x="1970" 
d="M1544 0h-295l-24 1042l-389 -1042h-295l-33 1399c-191 -72 -305 -228 -305 -455c0 -104 28 -123 28 -139c-141 0 -219 51 -219 199c0 272 377 532 719 532c31 0 55 -2 82 -4l18 -1260l431 1254h260l18 -1254l430 1254h144z" />
    <glyph glyph-name="X" unicode="X" horiz-adv-x="1270" 
d="M1130 0h-325l-109 512l-297 -512h-125l385 680l-151 719c-191 -72 -305 -228 -305 -455c0 -104 28 -123 28 -139c-141 0 -219 51 -219 199c0 272 377 532 719 532c31 0 55 -2 82 -4l88 -426l238 420h143l-344 -596z" />
    <glyph glyph-name="Y" unicode="Y" horiz-adv-x="1270" 
d="M897 0h-328l136 631l-197 768c-191 -72 -305 -228 -305 -455c0 -104 28 -123 28 -139c-141 0 -219 51 -219 199c0 272 377 532 719 532c31 0 55 -2 82 -4l178 -733l303 727h136l-398 -895z" />
    <glyph glyph-name="Z" unicode="Z" horiz-adv-x="1110" 
d="M762 0h-739l716 1425c-43 0 -112 5 -184 5c-96 0 -188 -9 -188 -46c14 0 34 -16 34 -65c0 -90 -71 -117 -120 -117c-80 0 -105 64 -105 121c0 104 88 213 252 213h702l-706 -1403c55 0 129 -4 197 -4c96 0 186 6 213 45c-15 0 -37 14 -37 64c0 88 67 118 123 118
c75 0 104 -61 104 -118c0 -105 -100 -238 -262 -238z" />
    <glyph glyph-name="bracketleft" unicode="[" horiz-adv-x="819" 
d="M446 -375l-24 -117h-437l430 2032h437l-23 -117h-227l-383 -1798h227z" />
    <glyph glyph-name="backslash" unicode="\" horiz-adv-x="741" 
d="M668 -512h-148l-434 2048h147z" />
    <glyph glyph-name="bracketright" unicode="]" horiz-adv-x="819" 
d="M284 1423l24 117h437l-430 -2032h-437l23 117h227l383 1798h-227z" />
    <glyph glyph-name="asciicircum" unicode="^" horiz-adv-x="862" 
d="M702 1149h-65l-123 164l-321 -164h-91l435 387h43z" />
    <glyph glyph-name="underscore" unicode="_" horiz-adv-x="909" 
d="M793 0h-719l37 162h716z" />
    <glyph glyph-name="grave" unicode="`" horiz-adv-x="412" 
d="M211 1149l-162 387h215l60 -387h-113z" />
    <glyph glyph-name="a" unicode="a" horiz-adv-x="1077" 
d="M1077 367h86c-114 -334 -303 -379 -411 -379c-115 0 -187 65 -201 188c-66 -92 -158 -188 -305 -188c-140 0 -273 86 -273 329c0 279 170 717 527 717c116 0 166 -45 166 -104v-15l22 109h295l-147 -696c-7 -23 -9 -45 -9 -66c0 -59 29 -88 84 -88c80 0 136 88 166 193z
M549 367l98 462c0 25 -18 78 -84 78c-174 0 -287 -368 -287 -561c0 -156 66 -160 103 -160c61 0 143 60 170 181z" />
    <glyph glyph-name="b" unicode="b" horiz-adv-x="909" 
d="M0 367l219 1026l303 41l-98 -461c84 51 127 57 168 57c143 0 242 -90 242 -350c0 -240 -127 -692 -562 -692c-188 0 -286 98 -286 262c0 39 4 78 14 117zM397 848l-112 -520c-4 -17 -6 -33 -6 -47c0 -64 36 -95 108 -95c133 0 240 287 240 502c0 100 -35 197 -109 197
c-29 0 -98 -8 -121 -37z" />
    <glyph glyph-name="c" unicode="c" horiz-adv-x="786" 
d="M786 367h70c-115 -191 -293 -379 -563 -379c-195 0 -320 94 -320 325c0 238 136 729 551 729c181 0 228 -96 228 -188c0 -100 -50 -149 -109 -149c-22 0 -47 8 -72 24c17 45 25 86 25 121c0 51 -18 84 -57 84c-129 0 -263 -375 -263 -602c0 -139 50 -172 148 -172
c162 0 258 92 362 207z" />
    <glyph glyph-name="d" unicode="d" horiz-adv-x="1075" 
d="M1075 367h86c-114 -334 -303 -367 -411 -367c-113 0 -185 61 -201 176c-60 -92 -158 -188 -303 -188c-140 0 -273 86 -273 329c0 279 170 717 527 717c116 0 166 -45 166 -104v-8l100 471l303 41l-235 -1106c-7 -23 -9 -45 -9 -66c0 -57 27 -76 84 -76
c80 0 135 76 166 181zM547 356v11l100 469c-6 24 -20 71 -84 71c-174 0 -287 -368 -287 -561c0 -156 66 -160 103 -160c57 0 141 56 168 170z" />
    <glyph glyph-name="e" unicode="e" horiz-adv-x="786" 
d="M786 367h70c-115 -191 -293 -379 -563 -379c-195 0 -320 94 -320 325c0 236 133 729 553 729c183 0 226 -94 226 -196c0 -238 -226 -416 -471 -432c-2 -31 -5 -58 -5 -82c0 -139 50 -172 148 -172c162 0 258 92 362 207zM297 512c156 10 297 168 297 338
c0 51 -12 84 -51 84c-103 0 -207 -219 -246 -422z" />
    <glyph glyph-name="f" unicode="f" horiz-adv-x="547" 
d="M-74 16l248 1170c59 293 240 348 373 348c123 0 241 -88 241 -221c0 -31 -2 -60 -6 -84h-96c2 22 4 37 4 55c0 47 -37 70 -78 70c-43 0 -116 -31 -143 -168l-35 -162h150l-15 -82h-151l-236 -1106c-59 -293 -233 -348 -366 -348c-123 0 -242 88 -242 221
c0 189 158 248 352 307zM-115 -170l27 119c-129 -43 -225 -101 -225 -211c0 -31 34 -68 82 -68c43 0 90 37 116 160z" />
    <glyph glyph-name="g" unicode="g" horiz-adv-x="1038" 
d="M762 -16l-31 -148c-59 -293 -233 -348 -369 -348c-124 0 -229 66 -229 199c0 172 180 256 334 305l25 108c-60 -63 -140 -112 -246 -112c-140 0 -273 86 -273 329c0 279 170 717 527 717c116 0 166 -45 166 -104v-12l22 106h295l-203 -950c125 43 201 114 258 293h86
c-82 -271 -235 -351 -362 -383zM543 346l104 485c0 25 -18 76 -84 76c-174 0 -287 -368 -287 -561c0 -156 66 -160 103 -160c55 0 137 56 164 160zM434 -170l12 59c-106 -39 -200 -92 -200 -174c0 -30 22 -67 69 -67c43 0 93 59 119 182z" />
    <glyph glyph-name="h" unicode="h" 
d="M1034 367h86c-114 -336 -272 -379 -381 -379c-180 0 -241 114 -241 231c0 139 92 391 92 522c0 70 -25 105 -74 105c-74 0 -129 -84 -160 -189l-139 -657h-295l297 1393l303 41l-110 -516c88 98 176 114 239 114c131 0 228 -67 228 -231c0 -166 -99 -414 -99 -529
c0 -51 19 -86 82 -86c88 0 129 74 172 181z" />
    <glyph glyph-name="i" unicode="i" horiz-adv-x="547" 
d="M506 1296c0 -90 -74 -161 -164 -161s-162 71 -162 161s72 164 162 164s164 -74 164 -164zM547 367h86c-115 -334 -322 -379 -430 -379c-123 0 -219 73 -219 245c0 37 6 82 16 134l139 657h295l-147 -696c-6 -23 -8 -45 -8 -66c0 -57 26 -76 83 -76c80 0 154 76 185 181z
" />
    <glyph glyph-name="j" unicode="j" horiz-adv-x="492" 
d="M215 -16l-31 -148c-59 -293 -233 -348 -368 -348c-125 0 -230 66 -230 199c0 170 181 256 336 305l219 1032h295l-203 -950c125 43 201 114 259 293h86c-82 -271 -236 -351 -363 -383zM489 1298c0 -90 -73 -161 -163 -161s-162 71 -162 161c0 91 72 164 162 164
s163 -73 163 -164zM-113 -170l13 59c-107 -39 -201 -92 -201 -174c0 -30 22 -67 70 -67c43 0 92 59 118 182z" />
    <glyph glyph-name="k" unicode="k" horiz-adv-x="1061" 
d="M1061 367h86c-115 -344 -285 -379 -377 -379c-170 0 -258 84 -258 233c0 31 4 68 12 107l17 80c6 26 8 53 8 75c0 60 -19 99 -74 99c-47 0 -94 -29 -151 -76l-107 -506h-295l297 1393l303 41l-153 -721l395 311h203l-410 -285c23 6 45 9 68 9c153 0 225 -109 225 -240
c0 -25 -2 -51 -8 -78l-23 -102c-6 -23 -10 -43 -10 -66c0 -41 16 -76 80 -76c88 0 129 74 172 181z" />
    <glyph glyph-name="l" unicode="l" horiz-adv-x="547" 
d="M547 367h86c-115 -334 -322 -379 -430 -379c-123 0 -219 73 -219 245c0 37 6 82 16 134l219 1026l303 41l-235 -1106c-6 -23 -8 -45 -8 -66c0 -57 26 -76 83 -76c80 0 154 76 185 181z" />
    <glyph glyph-name="m" unicode="m" horiz-adv-x="1540" 
d="M1540 367h86c-115 -336 -272 -379 -381 -379c-180 0 -241 114 -241 231c0 139 92 391 92 522c0 70 -25 105 -74 105c-74 0 -129 -84 -160 -189l-139 -657h-295l150 707c4 16 6 32 6 51c0 47 -15 90 -62 90c-80 0 -135 -86 -166 -191l-139 -657h-295l217 1024h295
l-22 -106c88 98 178 116 250 116c108 0 188 -47 210 -176c99 152 211 174 285 174c131 0 227 -67 227 -231c0 -166 -98 -414 -98 -529c0 -51 19 -86 82 -86c88 0 129 74 172 181z" />
    <glyph glyph-name="n" unicode="n" 
d="M1034 367h86c-114 -336 -272 -379 -381 -379c-180 0 -241 114 -241 231c0 139 92 391 92 522c0 70 -25 105 -74 105c-74 0 -129 -84 -160 -189l-139 -657h-295l217 1024h295l-22 -106c88 98 176 114 239 114c131 0 228 -67 228 -231c0 -166 -99 -414 -99 -529
c0 -51 19 -86 82 -86c88 0 129 74 172 181z" />
    <glyph glyph-name="o" unicode="o" horiz-adv-x="899" 
d="M1133 834l18 -56c-80 -84 -213 -145 -363 -170c-32 -379 -237 -616 -489 -616c-190 0 -328 88 -328 323c0 238 142 727 561 727c175 0 263 -108 263 -327v-2c6 -2 12 -2 22 -2c96 0 227 61 316 123zM618 602c-43 10 -55 45 -55 86c0 57 25 94 64 111
c-6 88 -23 119 -78 119c-146 0 -273 -373 -273 -576c0 -135 27 -166 105 -166c100 0 205 186 237 426z" />
    <glyph glyph-name="p" unicode="p" horiz-adv-x="958" 
d="M123 -438l-309 -74l342 1612h295l-33 -154c59 51 135 88 239 88c140 0 250 -80 250 -323c0 -277 -106 -723 -504 -723c-104 0 -151 35 -174 73zM383 786l-121 -573c8 -23 31 -47 78 -47c215 0 287 360 287 551c0 157 -66 170 -103 170c-47 0 -102 -35 -141 -101z" />
    <glyph glyph-name="q" unicode="q" horiz-adv-x="995" 
d="M670 -438l-310 -74l129 612c-59 -63 -139 -112 -243 -112c-140 0 -273 86 -273 329c0 279 170 717 527 717c116 0 166 -45 166 -104v-4l20 98h295zM539 332l108 506c-6 24 -24 69 -84 69c-174 0 -287 -368 -287 -561c0 -156 66 -160 103 -160c55 0 127 50 160 146z" />
    <glyph glyph-name="r" unicode="r" horiz-adv-x="770" 
d="M217 0h-295l217 1024h295l-26 -127c71 64 149 127 247 127c93 0 142 -74 142 -154c0 -71 -49 -149 -148 -149c-114 0 -59 135 -119 135c-63 0 -98 -31 -149 -78z" />
    <glyph glyph-name="s" unicode="s" horiz-adv-x="782" 
d="M782 367h86c-106 -123 -217 -201 -313 -256c-86 -91 -217 -123 -322 -123c-206 0 -299 137 -299 262c0 96 54 164 109 190c115 205 188 404 252 607l303 40c23 -532 45 -608 45 -745c0 -31 -2 -55 -8 -78c59 35 108 68 147 103zM43 293c0 -96 35 -143 125 -143
s178 47 178 190c0 106 -16 170 -39 485c-41 -133 -98 -256 -166 -387c27 -14 47 -37 47 -71c0 -50 -34 -101 -90 -101c-22 0 -45 4 -55 27z" />
    <glyph glyph-name="t" unicode="t" horiz-adv-x="547" 
d="M547 367h86c-115 -334 -322 -379 -430 -379c-123 0 -219 73 -219 245c0 37 6 82 16 134l123 575h-68l17 82h67l62 283l303 41l-70 -324h123l-16 -82h-123l-131 -614c-6 -23 -8 -45 -8 -66c0 -57 26 -76 83 -76c80 0 154 76 185 181z" />
    <glyph glyph-name="u" unicode="u" 
d="M1034 367h86c-114 -334 -303 -379 -411 -379c-117 0 -189 65 -203 194c-103 -168 -217 -194 -303 -194c-123 0 -219 73 -219 245c0 37 6 82 16 134l139 657h295l-147 -696c-4 -21 -6 -39 -6 -58c0 -47 14 -84 61 -84c80 0 133 76 164 181l139 657h295l-147 -696
c-7 -23 -9 -45 -9 -66c0 -57 27 -76 84 -76c80 0 136 76 166 181z" />
    <glyph glyph-name="v" unicode="v" horiz-adv-x="848" 
d="M-8 328l147 696h295l-147 -696c-6 -31 -11 -56 -11 -74c0 -41 21 -68 70 -68c201 0 354 459 354 684c-6 -14 -49 -20 -65 -20c-49 0 -74 57 -74 104c0 64 39 111 127 111c98 0 129 -88 129 -178c0 -328 -166 -899 -584 -899c-155 0 -251 78 -251 241c0 23 2 60 10 99z
" />
    <glyph glyph-name="w" unicode="w" horiz-adv-x="1354" 
d="M506 367l139 657h295l-147 -696c-7 -31 -11 -56 -11 -74c0 -41 21 -68 70 -68c201 0 354 459 354 684c-6 -14 -49 -20 -65 -20c-49 0 -74 57 -74 104c0 64 39 111 127 111c98 0 129 -88 129 -178c0 -328 -166 -899 -584 -899c-133 0 -221 57 -245 172
c-99 -148 -211 -172 -291 -172c-123 0 -219 73 -219 245c0 37 6 82 16 134l139 657h295l-147 -696c-4 -17 -6 -33 -6 -52c0 -47 14 -90 61 -90c80 0 133 76 164 181z" />
    <glyph glyph-name="x" unicode="x" horiz-adv-x="1069" 
d="M1069 367h86c-108 -318 -299 -379 -418 -379c-123 0 -209 104 -250 356l-282 -344h-148l414 467l-33 229c-22 138 -43 170 -78 170c-79 0 -202 -161 -274 -499h-86c66 303 207 667 483 667c164 0 211 -139 222 -243l18 -156c115 129 172 219 178 295
c-14 -2 -24 -4 -35 -4c-71 0 -96 51 -96 114c0 72 66 101 139 101c76 0 115 -97 115 -187c0 -129 -94 -239 -285 -446l19 -143c16 -134 55 -179 127 -179c80 0 153 76 184 181z" />
    <glyph glyph-name="y" unicode="y" horiz-adv-x="995" 
d="M719 -16l-31 -148c-59 -293 -233 -348 -369 -348c-124 0 -229 66 -229 199c0 172 180 256 334 305l25 110c-89 -96 -175 -114 -246 -114c-123 0 -219 73 -219 245c0 37 6 82 16 134l139 657h295l-147 -696c-4 -17 -6 -33 -6 -52c0 -47 14 -90 61 -90c76 0 129 72 160 168
l143 670h295l-203 -950c125 43 201 114 258 293h86c-82 -271 -235 -351 -362 -383zM391 -170l12 59c-106 -39 -200 -92 -200 -174c0 -30 22 -67 69 -67c43 0 93 59 119 182z" />
    <glyph glyph-name="z" unicode="z" horiz-adv-x="877" 
d="M543 0h-543l522 913h-114c-64 0 -113 -2 -113 -32c0 -13 22 2 22 -45c0 -76 -55 -109 -110 -109c-47 0 -94 31 -94 90c0 84 90 207 237 207h527l-502 -866c35 -2 100 -13 155 -13c50 0 91 9 97 41c-27 2 -39 21 -39 43c0 39 39 88 114 88c64 0 91 -43 91 -98
c0 -94 -93 -219 -250 -219z" />
    <glyph glyph-name="braceleft" unicode="{" horiz-adv-x="721" 
d="M820 1540l-18 -102c-195 0 -221 -66 -269 -658c-12 -139 -57 -194 -204 -256c84 -39 114 -82 114 -159c0 -148 -108 -402 -108 -584c0 -119 47 -191 131 -201l-19 -92h-59c-180 0 -293 94 -293 244c0 176 146 493 146 665c0 56 -21 74 -84 74h-64l21 104h65
c96 0 135 66 141 248c23 549 115 717 412 717h88z" />
    <glyph glyph-name="bar" unicode="|" horiz-adv-x="1090" 
d="M639 -512h-190v2050h190v-2050z" />
    <glyph glyph-name="braceright" unicode="}" horiz-adv-x="721" 
d="M-134 -512l19 102c194 0 221 66 268 658c12 139 57 194 205 256c-84 39 -115 82 -115 160c0 147 109 401 109 583c0 119 -48 191 -132 201l19 92h59c181 0 293 -94 293 -244c0 -176 -145 -493 -145 -665c0 -56 20 -74 84 -74h63l-20 -104h-66c-96 0 -135 -66 -141 -248
c-23 -549 -115 -717 -412 -717h-88z" />
    <glyph glyph-name="asciitilde" unicode="~" horiz-adv-x="883" 
d="M909 1372l13 -2c-21 -96 -174 -205 -330 -205c-137 0 -230 76 -344 76c-51 0 -96 -18 -135 -53l-13 4c66 131 187 201 342 201c148 0 220 -68 338 -68c51 0 99 16 129 47z" />
    <glyph glyph-name="afii10023" unicode="&#x401;" horiz-adv-x="940" 
d="M944 369l47 -21c-108 -239 -352 -385 -600 -385c-264 0 -377 170 -377 361c0 215 142 469 379 530c-88 64 -125 154 -125 246c0 211 187 440 449 440c164 0 293 -88 293 -256c0 -123 -70 -213 -152 -213c-37 0 -70 19 -96 55c49 17 90 107 90 179c0 84 -57 114 -113 114
c-123 0 -209 -145 -209 -289c0 -120 60 -235 207 -274c-219 -49 -366 -301 -366 -489c0 -115 55 -207 194 -207c125 0 303 71 379 209zM737 1810c0 -71 -57 -124 -125 -124c-71 0 -125 53 -125 124c0 68 54 125 125 125c68 0 125 -57 125 -125zM1106 1810
c0 -71 -57 -124 -125 -124c-72 0 -125 53 -125 124c0 68 53 125 125 125c68 0 125 -57 125 -125z" />
    <glyph glyph-name="afii10051" unicode="&#x402;" horiz-adv-x="1485" 
d="M629 0h-295l291 1356h-25c-217 0 -385 -84 -385 -414c0 -104 29 -123 29 -139c-142 0 -219 51 -219 198c0 273 192 533 698 533c248 0 324 -47 524 -47c96 0 183 20 238 43c-6 -180 -92 -260 -256 -260c-101 0 -205 22 -318 45l-100 -463c104 66 211 78 276 78
c138 0 254 -88 254 -293c0 -109 -26 -234 -53 -348c-88 -371 -272 -713 -547 -713c-172 0 -227 127 -172 242c33 -35 68 -45 107 -45c145 0 237 159 325 520c23 80 52 242 52 334c0 112 -52 143 -111 143c-68 0 -119 -25 -160 -55z" />
    <glyph glyph-name="afii10052" unicode="&#x403;" horiz-adv-x="877" 
d="M481 0h-295l295 1368c-164 -6 -266 -96 -266 -424c0 -104 29 -123 29 -139c-142 0 -219 51 -219 199c0 272 178 532 710 532c88 0 219 -25 357 -25c67 0 135 7 194 25c-33 -86 -35 -246 -205 -246c-104 0 -209 19 -313 41zM907 1661h-153l186 387h215z" />
    <glyph glyph-name="afii10053" unicode="&#x404;" horiz-adv-x="1018" 
d="M1024 369l47 -21c-110 -274 -395 -381 -584 -381c-303 0 -448 135 -448 504c0 371 178 1065 715 1065c190 0 342 -78 342 -274c0 -109 -39 -189 -144 -189c-32 0 -78 6 -116 53c49 25 94 109 94 189c0 65 -33 125 -125 125c-150 0 -289 -240 -365 -518h391l-32 -152h-393
c-17 -96 -27 -195 -27 -287c0 -188 47 -319 246 -319c161 0 303 76 399 205z" />
    <glyph glyph-name="afii10054" unicode="&#x405;" horiz-adv-x="1112" 
d="M797 1126c55 33 92 109 92 177c0 71 -37 137 -152 137c-114 0 -188 -64 -188 -187c0 -301 461 -342 461 -784c0 -344 -279 -512 -576 -512c-235 0 -434 100 -434 352c0 221 158 336 301 336c72 0 174 -29 180 -135c-110 0 -239 -51 -239 -193c0 -102 65 -196 196 -196
c140 0 238 100 238 272c0 350 -420 475 -420 776c0 213 209 367 473 367c96 0 330 -23 330 -246c0 -121 -64 -207 -168 -207c-39 0 -70 15 -94 43z" />
    <glyph glyph-name="afii10055" unicode="&#x406;" horiz-adv-x="766" 
d="M500 0h-295l297 1391c-180 -74 -287 -226 -287 -447c0 -104 29 -123 29 -139c-142 0 -219 51 -219 199c0 272 376 532 718 532c31 0 56 -2 82 -4z" />
    <glyph glyph-name="afii10056" unicode="&#x407;" horiz-adv-x="766" 
d="M500 0h-295l297 1391c-180 -74 -287 -226 -287 -447c0 -104 29 -123 29 -139c-142 0 -219 51 -219 199c0 272 376 532 718 532c31 0 56 -2 82 -4zM1016 1810c0 -71 -58 -124 -125 -124c-72 0 -125 53 -125 124c0 68 53 125 125 125c67 0 125 -57 125 -125zM647 1810
c0 -71 -57 -124 -125 -124c-71 0 -125 53 -125 124c0 68 54 125 125 125c68 0 125 -57 125 -125z" />
    <glyph glyph-name="afii10057" unicode="&#x408;" horiz-adv-x="926" 
d="M342 -70l322 1463c-181 -74 -289 -228 -289 -449c0 -104 28 -123 28 -139c-141 0 -219 51 -219 199c0 272 377 532 719 532h82l-307 -1454c-66 -313 -203 -506 -539 -506c-196 0 -303 117 -303 289c0 139 88 274 250 274c82 0 201 -6 201 -137c0 -25 -4 -51 -13 -82
c-51 43 -81 53 -122 53c-97 0 -144 -75 -144 -151c0 -107 80 -144 139 -144c93 0 146 39 195 252z" />
    <glyph glyph-name="afii10058" unicode="&#x409;" horiz-adv-x="1673" 
d="M862 0h-295l295 1391c-311 -164 -678 -1127 -678 -1510c0 -65 15 -96 29 -114c-109 0 -274 4 -274 217c0 407 593 1552 1083 1552c47 0 113 -6 162 -29l-140 -651c80 27 144 37 211 37c238 0 347 -160 347 -379c0 -203 -127 -549 -439 -549c-186 0 -245 129 -186 271
c43 -56 88 -74 137 -74c150 0 203 203 203 358c0 142 -45 252 -195 252c-30 0 -67 -6 -100 -22z" />
    <glyph glyph-name="afii10059" unicode="&#x40a;" horiz-adv-x="1907" 
d="M1096 0h-295l164 770h-301l-164 -770h-295l297 1393c-180 -76 -287 -230 -287 -449c0 -104 29 -123 29 -139c-142 0 -219 51 -219 199c0 272 376 532 718 532c31 0 56 -2 82 -4l-131 -610h301l131 610h295l-143 -676c80 25 143 37 211 37c237 0 346 -160 346 -379
c0 -203 -127 -549 -438 -549c-187 0 -246 129 -187 271c43 -56 88 -74 138 -74c149 0 202 203 202 358c0 142 -45 252 -194 252c-31 0 -68 -6 -101 -22z" />
    <glyph glyph-name="afii10060" unicode="&#x40b;" horiz-adv-x="1526" 
d="M629 0h-295l291 1356h-25c-217 0 -385 -84 -385 -414c0 -104 29 -123 29 -139c-142 0 -219 51 -219 198c0 273 192 533 698 533c248 0 324 -47 524 -47c96 0 183 20 238 43c-6 -180 -92 -260 -256 -260c-101 0 -205 22 -318 45l-100 -463c104 66 215 78 281 78
c135 0 249 -88 249 -293c0 -55 -4 -129 -26 -213c-33 -137 -55 -223 -55 -289c0 -63 30 -117 79 -135c-88 -25 -165 -35 -215 -35c-133 0 -159 72 -159 137c0 72 24 174 59 322c14 63 29 160 29 203c0 112 -52 143 -111 143c-68 0 -119 -25 -160 -55z" />
    <glyph glyph-name="afii10061" unicode="&#x40c;" horiz-adv-x="1300" 
d="M500 0h-295l297 1393c-180 -76 -287 -230 -287 -449c0 -104 29 -123 29 -139c-142 0 -219 51 -219 199c0 272 376 532 718 532c31 0 56 -2 82 -4l-131 -612c60 178 180 362 246 438c100 123 205 178 301 178c84 0 154 -47 154 -137c0 -107 -70 -144 -133 -144
c-60 0 -99 27 -121 82c-148 -88 -256 -254 -353 -467c33 2 62 2 86 2c199 0 254 -94 254 -219c0 -170 -100 -387 -100 -518c0 -63 31 -117 80 -135c-88 -25 -154 -35 -203 -35c-133 0 -160 72 -160 137c0 138 109 383 109 539c0 82 -31 139 -123 139c-18 0 -41 -2 -67 -8z
M1018 1661h-154l187 387h215z" />
    <glyph glyph-name="uni00AD" unicode="&#xad;" horiz-adv-x="594" 
d="M451 455h-412l37 161h409z" />
    <glyph glyph-name="afii10062" unicode="&#x40e;" horiz-adv-x="1319" 
d="M813 315l-293 1084c-190 -72 -305 -228 -305 -455c0 -104 29 -123 29 -139c-142 0 -219 51 -219 199c0 272 376 532 718 532c31 0 56 -2 82 -4l179 -768l323 762h135l-512 -1211c-53 -122 -149 -325 -348 -325c-121 0 -180 65 -180 149c0 90 51 146 141 146
c72 0 117 -45 127 -121c49 18 92 84 123 151zM1372 1987h86c-92 -271 -250 -349 -432 -349c-170 0 -266 68 -266 177c0 88 53 149 137 149c80 0 127 -39 127 -111c0 -16 -2 -67 -49 -98c20 -6 47 -8 82 -8c104 0 243 53 315 240z" />
    <glyph glyph-name="afii10145" unicode="&#x40f;" horiz-adv-x="1362" 
d="M707 -424h-297l92 424h-297l297 1393c-180 -76 -287 -230 -287 -449c0 -104 29 -123 29 -139c-142 0 -219 51 -219 199c0 272 376 532 718 532c31 0 56 -2 82 -4l-295 -1380h301l295 1380h295l-325 -1532h-299z" />
    <glyph glyph-name="afii10017" unicode="&#x410;" horiz-adv-x="1319" 
d="M1057 0h-295l158 743c-105 48 -185 66 -275 74c-153 -334 -266 -723 -266 -936c0 -65 14 -96 29 -114c-109 0 -275 4 -275 217c0 182 121 520 301 833c-129 -8 -213 -35 -239 -106c10 0 26 -33 26 -64c0 -49 -51 -80 -115 -80c-71 0 -126 39 -126 119
c0 139 178 252 417 252c27 0 64 -2 107 -6c207 328 473 604 713 604c47 0 112 -6 161 -29zM938 834l119 557c-123 -66 -254 -256 -369 -486c82 -16 170 -39 250 -71z" />
    <glyph glyph-name="afii10018" unicode="&#x411;" horiz-adv-x="1319" 
d="M481 0h-295l295 1368c-157 -6 -266 -96 -266 -424c0 -104 29 -123 29 -139c-142 0 -219 51 -219 199c0 272 192 532 698 532c82 0 254 -25 401 -25c64 0 127 7 185 25c-17 -86 -31 -246 -195 -246c-117 0 -237 19 -346 41l-102 -475c79 25 141 37 208 37
c238 0 347 -160 347 -379c0 -203 -127 -549 -439 -549c-186 0 -245 129 -186 271c43 -56 88 -74 137 -74c150 0 203 203 203 358c0 142 -45 252 -195 252c-34 0 -67 -6 -98 -20z" />
    <glyph glyph-name="afii10019" unicode="&#x412;" horiz-adv-x="1313" 
d="M500 0h-295l278 1303l303 40l-96 -454h12c162 0 295 178 295 332c0 114 -75 221 -270 221c-240 0 -512 -162 -512 -498c0 -104 29 -123 29 -139c-138 0 -219 49 -219 188c0 283 356 543 743 543c301 0 436 -158 436 -326c0 -123 -71 -249 -205 -325
c175 -33 242 -176 242 -330c0 -197 -104 -590 -448 -590c-88 0 -203 27 -203 152c0 35 8 73 26 119c52 -56 91 -74 138 -74c149 0 202 213 202 368c0 142 -45 261 -194 261c-17 0 -55 0 -94 -7z" />
    <glyph glyph-name="afii10020" unicode="&#x413;" horiz-adv-x="877" 
d="M481 0h-295l295 1368c-164 -6 -266 -96 -266 -424c0 -104 29 -123 29 -139c-142 0 -219 51 -219 199c0 272 178 532 710 532c88 0 219 -25 357 -25c67 0 135 7 194 25c-33 -86 -35 -246 -205 -246c-104 0 -209 19 -313 41z" />
    <glyph glyph-name="afii10021" unicode="&#x414;" horiz-adv-x="1370" 
d="M291 416l8 41l184 846l303 40l-223 -1050c-8 -35 -16 -66 -26 -96c38 -33 81 -43 120 -43c244 0 394 487 394 901c0 278 -121 387 -299 387c-306 0 -537 -187 -537 -498c0 -104 29 -123 29 -139c-138 0 -219 51 -219 190c0 281 346 541 761 541c398 0 547 -276 547 -590
c0 -469 -264 -973 -567 -973c-88 0 -186 31 -277 129c-81 -125 -200 -157 -299 -157c-122 0 -241 88 -241 221c0 164 125 266 266 266c29 0 53 -6 76 -16zM264 287l10 51c-22 14 -43 20 -61 20c-74 0 -152 -71 -152 -163c0 -41 35 -68 82 -68c41 0 97 37 121 160z" />
    <glyph glyph-name="afii10022" unicode="&#x415;" horiz-adv-x="940" 
d="M944 369l47 -21c-108 -239 -352 -385 -600 -385c-264 0 -377 170 -377 361c0 215 142 469 379 530c-88 64 -125 154 -125 246c0 211 187 440 449 440c164 0 293 -88 293 -256c0 -123 -70 -213 -152 -213c-37 0 -70 19 -96 55c49 17 90 107 90 179c0 84 -57 114 -113 114
c-123 0 -209 -145 -209 -289c0 -120 60 -235 207 -274c-219 -49 -366 -301 -366 -489c0 -115 55 -207 194 -207c125 0 303 71 379 209z" />
    <glyph glyph-name="afii10024" unicode="&#x416;" horiz-adv-x="1591" 
d="M801 0h-295l158 745c-17 3 -33 3 -48 3c-114 6 -186 -76 -217 -189c-39 -131 -51 -299 -73 -399c-23 -101 -66 -195 -199 -195c-57 0 -131 4 -221 35c250 133 112 559 342 764c65 65 164 88 276 88h6c11 221 5 395 -96 485c-28 -55 -74 -82 -137 -82
c-66 0 -109 54 -109 125c0 109 97 156 197 156c291 0 291 -477 258 -692c14 0 27 -2 41 -4l135 628l307 64l-147 -692c16 2 33 4 47 4c43 198 143 424 213 514c92 123 205 178 301 178c84 0 154 -47 154 -137c0 -107 -70 -144 -133 -144c-60 0 -99 27 -121 82
c-150 -94 -209 -262 -293 -485h29c198 0 254 -94 254 -219c0 -170 -101 -369 -101 -498c0 -63 31 -117 80 -135c-88 -25 -154 -35 -203 -35c-133 0 -159 72 -159 137c0 138 108 365 108 506c0 82 -31 140 -123 140c-24 0 -49 -3 -74 -7z" />
    <glyph glyph-name="afii10025" unicode="&#x417;" horiz-adv-x="1075" 
d="M401 770h-86l33 152h74c188 0 285 194 285 317c0 98 -56 160 -160 160c-123 0 -230 -72 -314 -236l-47 21c60 235 250 350 457 350c254 0 371 -127 371 -324c0 -166 -117 -292 -307 -356c163 -47 264 -156 264 -328c0 -305 -232 -563 -609 -563c-229 0 -382 92 -382 281
c0 112 71 184 167 184c60 0 91 -20 113 -53c-55 -33 -76 -88 -76 -148c0 -75 54 -139 162 -139c191 0 291 217 291 426c0 186 -86 256 -236 256z" />
    <glyph glyph-name="afii10026" unicode="&#x418;" horiz-adv-x="1444" 
d="M1178 0h-295l223 1053l-606 -1053h-295l297 1393c-180 -76 -287 -230 -287 -449c0 -104 29 -123 29 -139c-142 0 -219 51 -219 199c0 272 376 532 718 532c31 0 56 -2 82 -4l-231 -1090l614 1090h295z" />
    <glyph glyph-name="afii10027" unicode="&#x419;" horiz-adv-x="1444" 
d="M1178 0h-295l223 1053l-606 -1053h-295l297 1393c-180 -76 -287 -230 -287 -449c0 -104 29 -123 29 -139c-142 0 -219 51 -219 199c0 272 376 532 718 532c31 0 56 -2 82 -4l-231 -1090l614 1090h295zM1360 1987h86c-92 -271 -250 -349 -432 -349
c-170 0 -266 68 -266 177c0 88 53 149 137 149c80 0 127 -39 127 -111c0 -16 -2 -67 -49 -98c20 -6 47 -8 81 -8c105 0 244 53 316 240z" />
    <glyph glyph-name="afii10028" unicode="&#x41a;" horiz-adv-x="1300" 
d="M500 0h-295l297 1393c-180 -76 -287 -230 -287 -449c0 -104 29 -123 29 -139c-142 0 -219 51 -219 199c0 272 376 532 718 532c31 0 56 -2 82 -4l-131 -612c60 178 180 362 246 438c100 123 205 178 301 178c84 0 154 -47 154 -137c0 -107 -70 -144 -133 -144
c-60 0 -99 27 -121 82c-148 -88 -256 -254 -353 -467c33 2 62 2 86 2c199 0 254 -94 254 -219c0 -170 -100 -387 -100 -518c0 -63 31 -117 80 -135c-88 -25 -154 -35 -203 -35c-133 0 -160 72 -160 137c0 138 109 383 109 539c0 82 -31 139 -123 139c-18 0 -41 -2 -67 -8z
" />
    <glyph glyph-name="afii10029" unicode="&#x41b;" horiz-adv-x="1124" 
d="M862 0h-295l295 1391c-311 -164 -678 -1127 -678 -1510c0 -65 15 -96 29 -114c-109 0 -274 4 -274 217c0 407 593 1552 1083 1552c47 0 113 -6 162 -29z" />
    <glyph glyph-name="afii10030" unicode="&#x41c;" horiz-adv-x="1667" 
d="M1432 0h-295l131 920l-385 -920h-281l41 924l-342 -924h-164l520 1407c-204 -68 -325 -225 -325 -461c0 -108 28 -123 28 -141c-133 0 -219 49 -219 186c0 262 340 545 652 545c53 0 104 -10 155 -29l-47 -1079l451 1079h295z" />
    <glyph glyph-name="afii10031" unicode="&#x41d;" horiz-adv-x="1362" 
d="M1096 0h-295l164 770h-301l-164 -770h-295l297 1393c-180 -76 -287 -230 -287 -449c0 -104 29 -123 29 -139c-142 0 -219 51 -219 199c0 272 376 532 718 532c31 0 56 -2 82 -4l-131 -610h301l131 610h295z" />
    <glyph glyph-name="afii10032" unicode="&#x41e;" horiz-adv-x="1362" 
d="M883 1343c-187 -112 -359 -636 -359 -952c0 -139 35 -237 119 -237c207 0 428 516 428 929c0 238 -47 359 -262 359c-313 0 -590 -201 -590 -527c0 -79 21 -94 21 -110c-131 0 -207 47 -207 172c0 287 393 559 825 559c359 0 485 -219 485 -524
c0 -396 -219 -1024 -755 -1024c-215 0 -367 112 -367 411c0 332 187 961 555 961c35 0 68 -2 107 -17z" />
    <glyph glyph-name="afii10033" unicode="&#x41f;" horiz-adv-x="1409" 
d="M1096 0h-295l278 1292c-100 15 -196 33 -293 47l-286 -1339h-295l289 1348c-164 -27 -279 -136 -279 -406c0 -104 29 -123 29 -139c-142 0 -219 51 -219 198c0 273 192 533 698 533c233 0 381 -49 653 -49c97 0 183 20 238 43c-4 -170 -86 -258 -246 -260z" />
    <glyph glyph-name="afii10034" unicode="&#x420;" horiz-adv-x="1174" 
d="M487 0h-294l278 1303l303 40l-145 -684c207 17 358 285 358 504c0 152 -74 279 -254 279c-334 0 -530 -185 -530 -498c0 -104 28 -123 28 -139c-141 0 -219 51 -219 199c0 272 377 532 719 532c336 0 483 -193 483 -403c0 -261 -223 -549 -591 -549h-11z" />
    <glyph glyph-name="afii10035" unicode="&#x421;" horiz-adv-x="1018" 
d="M1024 369l47 -21c-110 -274 -395 -381 -584 -381c-303 0 -448 135 -448 504c0 371 178 1065 715 1065c190 0 342 -78 342 -274c0 -109 -39 -189 -144 -189c-32 0 -78 6 -116 53c49 25 94 109 94 189c0 65 -33 125 -125 125c-227 0 -426 -539 -426 -957
c0 -188 47 -319 246 -319c161 0 303 76 399 205z" />
    <glyph glyph-name="afii10036" unicode="&#x422;" horiz-adv-x="985" 
d="M616 0h-294l290 1356h-24c-217 0 -385 -84 -385 -414c0 -104 28 -123 28 -139c-141 0 -219 51 -219 198c0 273 193 533 699 533c247 0 323 -47 524 -47c96 0 182 20 238 43c-7 -180 -93 -260 -256 -260c-101 0 -205 22 -318 45z" />
    <glyph glyph-name="afii10037" unicode="&#x423;" horiz-adv-x="1319" 
d="M813 315l-293 1084c-190 -72 -305 -228 -305 -455c0 -104 29 -123 29 -139c-142 0 -219 51 -219 199c0 272 376 532 718 532c31 0 56 -2 82 -4l179 -768l323 762h135l-512 -1211c-53 -122 -149 -325 -348 -325c-121 0 -180 65 -180 149c0 90 51 146 141 146
c72 0 117 -45 127 -121c49 18 92 84 123 151z" />
    <glyph glyph-name="afii10038" unicode="&#x424;" horiz-adv-x="1610" 
d="M780 0h-295l45 211c-354 6 -491 217 -491 444c0 400 330 572 717 611l65 307c-264 -19 -385 -72 -385 -201c0 -29 6 -57 17 -88c-111 -10 -207 27 -207 135c6 162 274 238 555 238c117 0 221 -8 325 -31l-77 -358c335 -33 499 -215 499 -441c0 -333 -266 -616 -674 -616
h-49zM846 307h12c256 0 420 283 420 535c0 188 -86 291 -250 323zM551 307l182 858c-272 -47 -411 -211 -411 -538c0 -162 86 -310 229 -320z" />
    <glyph glyph-name="afii10039" unicode="&#x425;" horiz-adv-x="1270" 
d="M1130 0h-325l-109 512l-297 -512h-125l385 680l-151 719c-191 -72 -305 -228 -305 -455c0 -104 28 -123 28 -139c-141 0 -219 51 -219 199c0 272 377 532 719 532c31 0 55 -2 82 -4l88 -426l238 420h143l-344 -596z" />
    <glyph glyph-name="afii10040" unicode="&#x426;" horiz-adv-x="1417" 
d="M817 86l309 1446h295l-336 -1567c72 -31 134 -49 197 -49c43 0 121 4 176 35c-18 -197 -86 -295 -258 -295c-295 0 -371 344 -811 344c-100 0 -153 -4 -176 -10l-10 -2v2c0 2 0 2 2 4l297 1397c-180 -74 -287 -226 -287 -447c0 -104 29 -123 29 -139
c-142 0 -219 51 -219 199c0 272 376 532 718 532c31 0 56 -2 82 -4l-293 -1382h19c88 0 178 -29 266 -64z" />
    <glyph glyph-name="afii10041" unicode="&#x427;" horiz-adv-x="1423" 
d="M1157 0h-295l146 682c-115 -68 -215 -80 -303 -80c-162 0 -289 88 -289 293c0 55 4 129 22 213l64 285c-180 -76 -287 -230 -287 -449c0 -104 29 -123 29 -139c-142 0 -219 51 -219 199c0 272 376 532 718 532c31 0 56 -2 82 -4l-92 -424c-16 -80 -28 -154 -28 -197
c0 -114 77 -149 153 -149c74 0 133 26 180 65l150 705h295z" />
    <glyph glyph-name="afii10042" unicode="&#x428;" horiz-adv-x="1855" 
d="M1589 0h-1384l297 1393c-180 -76 -287 -230 -287 -449c0 -104 29 -123 29 -139c-142 0 -219 51 -219 199c0 272 376 532 718 532c31 0 56 -2 82 -4l-295 -1380h240l295 1380h295l-295 -1380h260l295 1380h295z" />
    <glyph glyph-name="afii10043" unicode="&#x429;" horiz-adv-x="1913" 
d="M1296 8l324 1524h295l-338 -1587c84 -17 152 -29 199 -29c71 0 131 8 178 35c-19 -197 -88 -295 -254 -295c-295 0 -871 344 -1311 344c-104 0 -156 -4 -178 -10l-8 -2v4c0 4 0 6 2 8l297 1393c-180 -74 -287 -228 -287 -447c0 -108 29 -123 29 -141
c-138 0 -219 49 -219 188c0 289 378 543 716 543c31 0 58 -2 84 -4l-295 -1382c23 0 43 2 70 2c41 0 98 -7 166 -21l299 1401h295l-311 -1462c81 -19 165 -39 247 -62z" />
    <glyph glyph-name="afii10044" unicode="&#x42a;" horiz-adv-x="1462" 
d="M649 0h-295l291 1354c-18 0 -35 2 -53 2c-115 0 -232 -8 -303 -88c-86 -99 -105 -303 6 -469c-141 -27 -270 35 -270 202c0 252 233 533 718 533c99 0 170 -6 234 -16l-143 -662c79 27 143 37 210 37c238 0 347 -160 347 -379c0 -203 -127 -549 -439 -549
c-186 0 -245 129 -186 271c43 -56 88 -74 137 -74c150 0 203 203 203 358c0 142 -45 252 -195 252c-30 0 -67 -6 -100 -22z" />
    <glyph glyph-name="afii10045" unicode="&#x42b;" horiz-adv-x="1862" 
d="M500 0h-295l297 1393c-180 -76 -287 -230 -287 -449c0 -104 29 -123 29 -139c-142 0 -219 51 -219 199c0 272 376 532 718 532c31 0 56 -2 82 -4l-143 -676c80 25 143 37 211 37c237 0 346 -160 346 -379c0 -203 -127 -549 -438 -549c-187 0 -246 129 -187 271
c43 -56 88 -74 138 -74c149 0 202 203 202 358c0 142 -45 252 -194 252c-31 0 -68 -6 -101 -22zM1595 0h-295l326 1532h295z" />
    <glyph glyph-name="afii10046" unicode="&#x42c;" horiz-adv-x="1311" 
d="M500 0h-295l297 1393c-180 -76 -287 -230 -287 -449c0 -104 29 -123 29 -139c-142 0 -219 51 -219 199c0 272 376 532 718 532c31 0 56 -2 82 -4l-143 -676c80 25 143 37 211 37c237 0 346 -160 346 -379c0 -203 -127 -549 -438 -549c-187 0 -246 129 -187 271
c43 -56 88 -74 138 -74c149 0 202 203 202 358c0 142 -45 252 -194 252c-31 0 -68 -6 -101 -22z" />
    <glyph glyph-name="afii10047" unicode="&#x42d;" horiz-adv-x="1114" 
d="M733 770h-434l33 152h420c2 32 4 65 4 98c0 203 -51 340 -246 340c-160 0 -244 -88 -338 -225l-47 20c111 275 336 381 522 381c303 0 449 -135 449 -504c0 -370 -189 -1065 -766 -1065c-199 0 -353 78 -353 275c0 108 39 188 144 188c33 0 78 -6 117 -53
c-39 -25 -74 -109 -74 -189c0 -65 37 -125 135 -125c193 0 375 353 434 707z" />
    <glyph glyph-name="afii10048" unicode="&#x42e;" horiz-adv-x="1937" 
d="M500 0h-295l297 1393c-180 -76 -287 -230 -287 -449c0 -104 29 -123 29 -139c-142 0 -219 51 -219 199c0 272 376 532 718 532c31 0 56 -2 82 -4l-131 -610h207c88 223 236 417 442 417c35 0 68 -2 107 -16c-186 -113 -350 -616 -350 -932c0 -139 35 -237 119 -237
c206 0 428 495 428 909c0 217 -70 358 -283 358c-137 0 -238 -51 -287 -131c-43 129 123 246 336 246c350 0 506 -174 506 -524c0 -396 -219 -1024 -756 -1024c-215 0 -366 112 -366 411c0 105 18 238 53 371h-186z" />
    <glyph glyph-name="afii10049" unicode="&#x42f;" horiz-adv-x="1290" 
d="M803 0h-295l145 684c-108 -6 -151 -33 -198 -76c-82 -78 -105 -305 -138 -448c-22 -101 -59 -195 -190 -195c-51 0 -131 4 -221 35c98 51 135 113 160 227l47 226c41 196 118 278 274 305c-115 63 -160 164 -160 293c0 256 238 485 680 485c287 0 510 -131 510 -328
c0 -147 -78 -198 -215 -198c6 18 27 55 27 139c0 205 -111 285 -326 285c-303 0 -461 -177 -461 -381c0 -197 127 -281 228 -281h2l114 531l304 40z" />
    <glyph glyph-name="afii10065" unicode="&#x430;" horiz-adv-x="1077" 
d="M1077 367h86c-114 -334 -303 -379 -411 -379c-115 0 -187 65 -201 188c-66 -92 -158 -188 -305 -188c-140 0 -273 86 -273 329c0 279 170 717 527 717c116 0 166 -45 166 -104v-15l22 109h295l-147 -696c-7 -23 -9 -45 -9 -66c0 -59 29 -88 84 -88c80 0 136 88 166 193z
M549 367l98 462c0 25 -18 78 -84 78c-174 0 -287 -368 -287 -561c0 -156 66 -160 103 -160c61 0 143 60 170 181z" />
    <glyph glyph-name="afii10066" unicode="&#x431;" horiz-adv-x="881" 
d="M801 1192h-197c-14 0 -26 -2 -26 -25c0 -34 217 -204 217 -501c0 -299 -181 -674 -494 -674c-205 0 -328 106 -328 346c0 309 199 631 559 631c15 0 25 -2 35 -2c-108 131 -250 215 -250 348c0 104 68 151 222 151h311c149 0 180 -10 207 99h90
c-66 -314 -133 -373 -346 -373zM379 176c186 0 246 432 246 533c0 108 -27 135 -78 135c-197 0 -275 -410 -275 -516c0 -121 31 -152 107 -152z" />
    <glyph glyph-name="afii10067" unicode="&#x432;" horiz-adv-x="920" 
d="M1116 834l19 -56c-74 -80 -201 -141 -347 -166c9 -30 11 -63 11 -102c0 -268 -181 -518 -488 -518c-235 0 -340 155 -340 368c0 295 271 1178 635 1178c137 0 225 -78 225 -281c0 -172 -96 -366 -167 -491c30 -14 55 -35 77 -61c127 0 287 67 375 129zM594 575
c-23 -8 -35 -12 -74 -12c-63 0 -106 37 -106 101c0 88 61 116 143 122c72 132 143 328 143 480c0 84 -20 112 -67 112c-176 0 -357 -807 -357 -1024c0 -106 35 -178 125 -178c134 0 211 154 211 287c0 51 -6 88 -18 112z" />
    <glyph glyph-name="afii10068" unicode="&#x433;" horiz-adv-x="768" 
d="M768 367h70c-131 -209 -303 -379 -564 -379c-194 0 -317 69 -317 231c0 305 434 311 434 541c0 59 -31 96 -94 96c-88 0 -158 -63 -221 -213h-99c82 234 205 399 447 399c145 0 276 -67 276 -231c0 -336 -432 -350 -432 -543c0 -80 58 -108 146 -108
c121 0 223 53 354 207z" />
    <glyph glyph-name="afii10069" unicode="&#x434;" horiz-adv-x="1038" 
d="M762 -16l-31 -148c-59 -293 -233 -348 -369 -348c-124 0 -229 66 -229 199c0 172 180 256 334 305l25 108c-60 -63 -140 -112 -246 -112c-140 0 -273 86 -273 329c0 279 170 717 527 717c116 0 166 -45 166 -104v-12l22 106h295l-203 -950c125 43 201 114 258 293h86
c-82 -271 -235 -351 -362 -383zM543 346l104 485c0 25 -18 76 -84 76c-174 0 -287 -368 -287 -561c0 -156 66 -160 103 -160c55 0 137 56 164 160zM434 -170l12 59c-106 -39 -200 -92 -200 -174c0 -30 22 -67 69 -67c43 0 93 59 119 182z" />
    <glyph glyph-name="afii10070" unicode="&#x435;" horiz-adv-x="786" 
d="M786 367h70c-115 -191 -293 -379 -563 -379c-195 0 -320 94 -320 325c0 236 133 729 553 729c183 0 226 -94 226 -196c0 -238 -226 -416 -471 -432c-2 -31 -5 -58 -5 -82c0 -139 50 -172 148 -172c162 0 258 92 362 207zM297 512c156 10 297 168 297 338
c0 51 -12 84 -51 84c-103 0 -207 -219 -246 -422z" />
    <glyph glyph-name="afii10072" unicode="&#x436;" horiz-adv-x="1806" 
d="M1823 367h69c-86 -189 -278 -379 -491 -379c-187 0 -299 127 -299 325c0 56 2 115 16 179h-117l-102 -492h-274l104 492h-115c-49 -240 -186 -504 -446 -504c-184 0 -244 108 -244 217c0 114 56 172 121 172c23 0 51 -6 74 -29c-19 -49 -27 -94 -27 -135
c0 -88 41 -117 74 -117c115 0 223 338 223 580c0 149 -43 215 -125 215c-80 0 -119 -55 -158 -154h-106c55 187 147 305 340 305c188 0 299 -127 299 -325c0 -35 -2 -68 -6 -103h123l86 410h274l-86 -410h115c65 217 196 428 420 428c166 0 211 -96 211 -188
c0 -100 -47 -149 -105 -149c-22 0 -49 8 -72 24c15 47 21 86 21 121c0 51 -16 84 -47 84c-109 0 -221 -338 -221 -580c0 -149 61 -215 151 -215c96 0 228 72 320 228z" />
    <glyph glyph-name="afii10073" unicode="&#x437;" horiz-adv-x="1020" 
d="M1020 367h86c-82 -279 -248 -357 -375 -390c-6 -309 -160 -489 -387 -489c-125 0 -229 66 -229 199c0 166 168 252 321 301c-4 145 -53 217 -147 217h-64l27 123h59c148 0 252 157 252 352c0 80 -20 176 -125 176c-147 0 -260 -137 -352 -489h-86c92 366 184 675 549 675
c196 0 323 -118 323 -325c0 -268 -235 -436 -317 -453c63 -22 141 -96 168 -205c147 43 231 111 297 308zM430 -111c-106 -36 -203 -92 -203 -174c0 -39 23 -67 70 -67c59 0 117 112 133 241z" />
    <glyph glyph-name="afii10074" unicode="&#x438;" 
d="M1034 367h86c-114 -334 -303 -379 -411 -379c-117 0 -189 65 -203 194c-103 -168 -217 -194 -303 -194c-123 0 -219 73 -219 245c0 37 6 82 16 134l139 657h295l-147 -696c-4 -21 -6 -39 -6 -58c0 -47 14 -84 61 -84c80 0 133 76 164 181l139 657h295l-147 -696
c-7 -23 -9 -45 -9 -66c0 -57 27 -76 84 -76c80 0 136 76 166 181z" />
    <glyph glyph-name="afii10075" unicode="&#x439;" 
d="M1034 367h86c-114 -334 -303 -379 -411 -379c-117 0 -189 65 -203 194c-103 -168 -217 -194 -303 -194c-123 0 -219 73 -219 245c0 37 6 82 16 134l139 657h295l-147 -696c-4 -21 -6 -39 -6 -58c0 -47 14 -84 61 -84c80 0 133 76 164 181l139 657h295l-147 -696
c-7 -23 -9 -45 -9 -66c0 -57 27 -76 84 -76c80 0 136 76 166 181zM879 1473h86c-93 -271 -240 -349 -433 -349c-170 0 -266 68 -266 176c0 89 53 150 137 150c80 0 127 -39 127 -111c0 -16 -2 -67 -49 -98c21 -6 47 -8 82 -8c115 0 244 53 316 240z" />
    <glyph glyph-name="afii10076" unicode="&#x43a;" horiz-adv-x="1026" 
d="M1026 367h86c-86 -252 -211 -379 -373 -379c-166 0 -247 88 -247 227c0 68 24 147 24 195c0 65 -27 98 -78 98c-39 0 -67 -25 -131 -76l-90 -432h-295l219 1024h295l-88 -406c291 291 352 424 512 424c96 0 141 -59 141 -135c0 -82 -47 -133 -129 -133
c-81 0 -114 57 -112 105c-92 -56 -156 -148 -242 -234c31 6 62 8 86 8c148 0 195 -67 195 -190c0 -64 -25 -129 -25 -201c0 -51 27 -76 82 -76c82 0 115 56 170 181z" />
    <glyph glyph-name="afii10077" unicode="&#x43b;" horiz-adv-x="1143" 
d="M1143 367h86c-86 -252 -213 -379 -381 -379c-166 0 -242 104 -242 217c0 57 15 147 45 278l90 406c-143 0 -196 -113 -258 -393c-69 -326 -108 -508 -336 -508c-159 0 -225 116 -225 231c0 96 47 164 127 164c64 0 107 -43 107 -107c0 -67 -39 -100 -82 -94
c2 -30 16 -65 80 -65c133 0 153 190 198 399c88 426 209 508 393 508h302l-109 -508c-31 -131 -49 -209 -49 -244c0 -57 26 -86 82 -86c82 0 116 56 172 181z" />
    <glyph glyph-name="afii10078" unicode="&#x43c;" horiz-adv-x="1583" 
d="M1583 367h86c-86 -252 -213 -379 -381 -379c-166 0 -241 104 -241 217c0 55 14 145 43 272l32 146l-303 -623h-287l-36 625l-27 -129c-66 -326 -109 -508 -322 -508c-155 0 -225 127 -225 235c0 96 47 154 127 154c64 0 107 -43 107 -107c0 -67 -39 -100 -82 -94
c-2 -31 14 -78 80 -78c147 0 168 207 211 418l108 508h287l43 -786l381 786h303l-109 -508c-30 -131 -49 -209 -49 -244c0 -57 27 -86 82 -86c82 0 117 56 172 181z" />
    <glyph glyph-name="afii10079" unicode="&#x43d;" horiz-adv-x="1038" 
d="M1038 367h86c-86 -252 -213 -379 -381 -379c-165 0 -241 104 -241 217c0 55 20 157 47 287h-227l-105 -492h-295l217 1024h295l-88 -410h229l93 410h274l-108 -508c-31 -131 -50 -209 -50 -244c0 -57 27 -86 82 -86c82 0 117 56 172 181z" />
    <glyph glyph-name="afii10080" unicode="&#x43e;" horiz-adv-x="899" 
d="M1133 834l18 -56c-80 -84 -213 -145 -363 -170c-32 -379 -237 -616 -489 -616c-190 0 -328 88 -328 323c0 238 142 727 561 727c175 0 263 -108 263 -327v-2c6 -2 12 -2 22 -2c96 0 227 61 316 123zM618 602c-43 10 -55 45 -55 86c0 57 25 94 64 111
c-6 88 -23 119 -78 119c-146 0 -273 -373 -273 -576c0 -135 27 -166 105 -166c100 0 205 186 237 426z" />
    <glyph glyph-name="afii10081" unicode="&#x43f;" 
d="M1034 367h86c-114 -336 -272 -379 -381 -379c-180 0 -241 114 -241 231c0 139 92 391 92 522c0 70 -25 105 -74 105c-74 0 -129 -84 -160 -189l-139 -657h-295l217 1024h295l-22 -106c88 98 176 114 239 114c131 0 228 -67 228 -231c0 -166 -99 -414 -99 -529
c0 -51 19 -86 82 -86c88 0 129 74 172 181z" />
    <glyph glyph-name="afii10082" unicode="&#x440;" horiz-adv-x="989" 
d="M123 -438l-309 -74l342 1612h295l-33 -154c59 51 135 88 239 88c140 0 250 -80 250 -323c0 -277 -106 -723 -504 -723c-104 0 -151 35 -174 73zM383 786l-121 -573c8 -23 31 -47 78 -47c215 0 287 360 287 551c0 157 -66 170 -103 170c-47 0 -102 -35 -141 -101z" />
    <glyph glyph-name="afii10083" unicode="&#x441;" horiz-adv-x="786" 
d="M786 367h70c-115 -191 -293 -379 -563 -379c-195 0 -320 94 -320 325c0 238 136 729 551 729c181 0 228 -96 228 -188c0 -100 -50 -149 -109 -149c-22 0 -47 8 -72 24c17 45 25 86 25 121c0 51 -18 84 -57 84c-129 0 -263 -375 -263 -602c0 -139 50 -172 148 -172
c162 0 258 92 362 207z" />
    <glyph glyph-name="afii10084" unicode="&#x442;" horiz-adv-x="1540" 
d="M1540 367h86c-115 -336 -272 -379 -381 -379c-180 0 -241 114 -241 231c0 139 92 391 92 522c0 70 -25 105 -74 105c-74 0 -129 -84 -160 -189l-139 -657h-295l150 707c4 16 6 32 6 51c0 47 -15 90 -62 90c-80 0 -135 -86 -166 -191l-139 -657h-295l217 1024h295
l-22 -106c88 98 178 116 250 116c108 0 188 -47 210 -176c99 152 211 174 285 174c131 0 227 -67 227 -231c0 -166 -98 -414 -98 -529c0 -51 19 -86 82 -86c88 0 129 74 172 181z" />
    <glyph glyph-name="afii10085" unicode="&#x443;" horiz-adv-x="995" 
d="M719 -16l-31 -148c-59 -293 -233 -348 -369 -348c-124 0 -229 66 -229 199c0 172 180 256 334 305l25 110c-89 -96 -175 -114 -246 -114c-123 0 -219 73 -219 245c0 37 6 82 16 134l139 657h295l-147 -696c-4 -17 -6 -33 -6 -52c0 -47 14 -90 61 -90c76 0 129 72 160 168
l143 670h295l-203 -950c125 43 201 114 258 293h86c-82 -271 -235 -351 -362 -383zM391 -170l12 59c-106 -39 -200 -92 -200 -174c0 -30 22 -67 69 -67c43 0 93 59 119 182z" />
    <glyph glyph-name="afii10086" unicode="&#x444;" horiz-adv-x="1511" 
d="M905 786l-121 -573c11 -31 37 -47 78 -47c187 0 287 297 287 551c0 112 -35 170 -102 170c-56 0 -103 -33 -142 -101zM537 332l108 506c-8 47 -39 69 -90 69c-49 0 -98 -35 -145 -102c-48 -70 -80 -146 -103 -230c-65 -256 -22 -346 6 -370c43 -43 174 -15 224 127z
M645 -438l-289 -74l136 612c-70 -75 -150 -112 -238 -112c-172 0 -283 100 -283 329c0 154 43 308 129 461c82 148 226 256 398 256c112 0 168 -37 168 -112l102 471l283 41l-111 -488c68 60 147 88 240 88c166 0 250 -108 250 -323c0 -371 -146 -723 -512 -723
c-82 0 -138 24 -166 73z" />
    <glyph glyph-name="afii10087" unicode="&#x445;" horiz-adv-x="1069" 
d="M1069 367h86c-108 -318 -299 -379 -418 -379c-123 0 -209 104 -250 356l-282 -344h-148l414 467l-33 229c-22 138 -43 170 -78 170c-79 0 -202 -161 -274 -499h-86c66 303 207 667 483 667c164 0 211 -139 222 -243l18 -156c115 129 172 219 178 295
c-14 -2 -24 -4 -35 -4c-71 0 -96 51 -96 114c0 72 66 101 139 101c76 0 115 -97 115 -187c0 -129 -94 -239 -285 -446l19 -143c16 -134 55 -179 127 -179c80 0 153 76 184 181z" />
    <glyph glyph-name="afii10088" unicode="&#x446;" horiz-adv-x="1096" 
d="M582 -385h-142c-145 0 -184 10 -207 -98h-90c66 313 133 372 346 372h160c117 0 182 -2 221 183c-75 -76 -114 -84 -182 -84c-96 0 -168 65 -182 194c-103 -168 -217 -194 -303 -194c-123 0 -219 73 -219 245c0 37 6 82 16 134l139 657h295l-147 -696
c-4 -21 -6 -39 -6 -58c0 -47 14 -84 61 -84c80 0 133 76 164 181l139 657h295l-147 -696c-7 -23 -9 -45 -9 -66c0 -57 27 -76 84 -76h105c-49 -534 -262 -571 -391 -571z" />
    <glyph glyph-name="afii10089" unicode="&#x447;" 
d="M1034 367h86c-114 -334 -303 -379 -411 -379c-123 0 -220 73 -220 245c0 37 7 82 17 134l10 51c-88 -96 -174 -115 -246 -115c-123 0 -219 74 -219 246c0 37 6 82 17 133l71 342h295l-80 -381c-4 -20 -6 -39 -6 -57c0 -47 14 -84 62 -84c79 0 141 76 163 180l72 342h295
l-147 -696c-7 -23 -9 -45 -9 -66c0 -57 27 -76 84 -76c80 0 136 76 166 181z" />
    <glyph glyph-name="afii10090" unicode="&#x448;" horiz-adv-x="1540" 
d="M1540 367h86c-115 -334 -303 -379 -412 -379c-116 0 -188 65 -202 194c-103 -168 -217 -194 -303 -194c-117 0 -189 65 -203 194c-103 -168 -217 -194 -303 -194c-123 0 -219 73 -219 245c0 37 6 82 16 134l139 657h295l-147 -696c-4 -21 -6 -39 -6 -58
c0 -47 14 -84 61 -84c80 0 133 76 164 181l139 657h295l-147 -696c-5 -21 -7 -39 -7 -58c0 -47 15 -84 62 -84c80 0 133 76 164 181l139 657h295l-148 -696c-6 -23 -8 -45 -8 -66c0 -57 27 -76 84 -76c80 0 135 76 166 181z" />
    <glyph glyph-name="afii10091" unicode="&#x449;" horiz-adv-x="1602" 
d="M1087 -385h-141c-145 0 -184 10 -207 -98h-90c66 313 133 372 346 372h160c117 0 182 -2 221 183c-76 -76 -114 -84 -182 -84c-96 0 -168 65 -182 194c-103 -168 -217 -194 -303 -194c-117 0 -189 65 -203 194c-103 -168 -217 -194 -303 -194c-123 0 -219 73 -219 245
c0 37 6 82 16 134l139 657h295l-147 -696c-4 -21 -6 -39 -6 -58c0 -47 14 -84 61 -84c80 0 133 76 164 181l139 657h295l-147 -696c-5 -21 -7 -39 -7 -58c0 -47 15 -84 62 -84c80 0 133 76 164 181l139 657h295l-148 -696c-6 -23 -8 -45 -8 -66c0 -57 27 -76 84 -76h105
c-49 -534 -262 -571 -392 -571z" />
    <glyph glyph-name="afii10092" unicode="&#x44a;" horiz-adv-x="918" 
d="M571 1024l-61 -98c-43 -72 -96 -168 -127 -256c63 41 139 63 213 63c121 0 240 -76 240 -256c0 -299 -252 -489 -539 -489c-174 0 -309 84 -309 264c0 227 205 473 372 661h-100c-63 0 -113 -2 -113 -32c0 -13 23 2 23 -45c0 -76 -55 -109 -111 -109c-47 0 -94 31 -94 90
c0 105 90 207 238 207h368zM346 547c-55 -144 -67 -211 -67 -281c0 -69 26 -104 81 -104c121 0 207 184 207 307c0 96 -53 113 -100 113s-88 -13 -121 -35z" />
    <glyph glyph-name="afii10093" unicode="&#x44b;" horiz-adv-x="1341" 
d="M1341 367h86c-86 -252 -213 -379 -378 -379c-168 0 -242 106 -242 223c0 29 4 92 113 577c-74 -47 -150 -90 -230 -133c33 -51 49 -120 49 -204c0 -172 -137 -463 -458 -463c-187 0 -293 98 -293 262c0 39 4 78 14 117l135 657h283l-152 -721c-6 -16 -6 -43 -6 -57
c0 -56 31 -84 92 -84c113 0 219 151 219 340c0 35 -10 59 -30 78c-15 -11 -37 -19 -60 -19c-41 0 -90 25 -90 88c0 64 60 94 115 94c31 0 59 -4 84 -12c203 92 330 189 526 293h127l-108 -508c-31 -131 -50 -209 -50 -244c0 -57 27 -86 82 -86c82 0 117 56 172 181z" />
    <glyph glyph-name="afii10094" unicode="&#x44c;" horiz-adv-x="918" 
d="M2 367l139 657h295l-69 -332c96 39 149 41 204 41c164 0 265 -100 265 -272s-150 -473 -541 -473c-189 0 -307 98 -307 262c0 39 4 78 14 117zM336 545l-51 -242c-6 -16 -6 -43 -6 -57c0 -56 28 -84 88 -84c106 0 200 164 200 287c0 79 -37 133 -110 133
c-29 0 -97 -19 -121 -37z" />
    <glyph glyph-name="afii10095" unicode="&#x44d;" horiz-adv-x="877" 
d="M469 492h-254l27 122h245c2 27 5 52 5 78c0 139 -54 178 -168 178c-82 0 -138 -45 -187 -133h-104c76 181 184 305 424 305c205 0 338 -104 338 -335c0 -226 -164 -719 -592 -719c-189 0 -279 84 -279 217c0 114 56 172 119 172c23 0 49 -4 76 -29
c-19 -49 -27 -96 -27 -139c0 -76 37 -113 113 -113c117 0 219 191 264 396z" />
    <glyph glyph-name="afii10096" unicode="&#x44e;" horiz-adv-x="1382" 
d="M1616 834l18 -56c-80 -84 -213 -145 -362 -170c-33 -379 -238 -616 -490 -616c-190 0 -327 88 -327 323c0 52 6 111 18 177h-154l-102 -492h-295l217 1024h295l-86 -410h160c72 213 231 428 508 428c174 0 262 -108 262 -327v-2c6 -2 12 -2 22 -2c97 0 228 61 316 123z
M1102 602c-43 10 -55 45 -55 86c0 57 24 94 63 111c-6 88 -23 119 -78 119c-145 0 -272 -373 -272 -576c0 -135 26 -166 104 -166c101 0 205 186 238 426z" />
    <glyph glyph-name="afii10097" unicode="&#x44f;" horiz-adv-x="1079" 
d="M1079 367h86c-86 -252 -213 -379 -381 -379c-166 0 -241 104 -241 217c0 31 4 78 37 229c-37 -8 -76 -12 -115 -12c-66 -279 -121 -434 -313 -434c-154 0 -230 108 -230 231c0 96 47 164 127 164c64 0 107 -43 107 -107c0 -67 -39 -100 -82 -94c2 -30 20 -65 80 -65
c96 0 131 121 174 315c-115 25 -195 98 -195 238c0 190 131 354 539 354h311l-109 -508c-30 -131 -49 -209 -49 -244c0 -57 27 -86 82 -86c82 0 117 56 172 181zM598 522l86 391h-49c-162 0 -244 -98 -244 -237c0 -121 66 -158 148 -158c24 0 43 -2 59 4z" />
    <glyph glyph-name="afii61352" unicode="&#x2116;" horiz-adv-x="2040" 
d="M1683 702c-116 0 -202 56 -202 201c0 148 86 449 346 449c115 0 172 -68 172 -203c0 -270 -146 -447 -316 -447zM1917 455h-535l37 161h533zM1733 815c75 0 153 166 153 356c0 68 -10 103 -49 103c-90 0 -168 -232 -168 -354c0 -74 17 -105 64 -105zM1275 1532h199
l-334 -1532h-283l-237 1016l-234 -1016h-194l308 1403c-188 -66 -284 -211 -284 -410c0 -88 21 -164 55 -209c-174 0 -256 70 -256 222c0 292 280 538 622 538c64 0 105 -8 162 -28l247 -1096z" />
    <glyph glyph-name="afii10071" unicode="&#x451;" horiz-adv-x="786" 
d="M786 367h70c-115 -191 -293 -379 -563 -379c-195 0 -320 94 -320 325c0 236 133 729 553 729c183 0 226 -94 226 -196c0 -238 -226 -416 -471 -432c-2 -31 -5 -58 -5 -82c0 -139 50 -172 148 -172c162 0 258 92 362 207zM297 512c156 10 297 168 297 338
c0 51 -12 84 -51 84c-103 0 -207 -219 -246 -422zM862 1298c0 -71 -57 -124 -125 -124c-71 0 -125 53 -125 124c0 68 54 125 125 125c68 0 125 -57 125 -125zM494 1298c0 -71 -58 -124 -125 -124c-72 0 -125 53 -125 124c0 68 53 125 125 125c67 0 125 -57 125 -125z" />
    <glyph glyph-name="afii10099" unicode="&#x452;" horiz-adv-x="1006" 
d="M709 -16l-33 -148c-66 -293 -211 -348 -346 -348c-125 0 -230 66 -230 199c0 178 183 268 336 311c115 524 125 567 125 602c0 70 -24 105 -74 105c-73 0 -139 -84 -161 -189l-109 -516h-295l217 1024h-110l22 111h113l55 258l303 41l-63 -299h256l-25 -111h-256
l-53 -248c88 98 178 115 242 115c131 0 227 -68 227 -232c0 -55 -14 -116 -119 -585c129 43 217 114 275 293h86c-82 -273 -248 -351 -383 -383zM401 -170c5 27 9 47 15 66c-105 -39 -203 -93 -203 -181c0 -30 23 -67 70 -67c43 0 92 59 118 182z" />
    <glyph glyph-name="afii10100" unicode="&#x453;" horiz-adv-x="768" 
d="M768 367h70c-131 -209 -303 -379 -564 -379c-194 0 -317 69 -317 231c0 305 434 311 434 541c0 59 -31 96 -94 96c-88 0 -158 -63 -221 -213h-99c82 234 205 399 447 399c145 0 276 -67 276 -231c0 -336 -432 -350 -432 -543c0 -80 58 -108 146 -108
c121 0 223 53 354 207zM553 1149h-154l187 387h215z" />
    <glyph glyph-name="afii10101" unicode="&#x454;" horiz-adv-x="786" 
d="M786 367h70c-115 -191 -293 -379 -563 -379c-195 0 -320 94 -320 325c0 238 136 729 551 729c181 0 228 -96 228 -188c0 -100 -50 -149 -109 -149c-22 0 -47 8 -72 24c17 45 25 86 25 121c0 51 -18 84 -57 84c-82 0 -166 -152 -215 -320h243l-26 -122h-248
c-10 -58 -17 -113 -17 -160c0 -139 50 -172 148 -172c162 0 258 92 362 207z" />
    <glyph glyph-name="afii10102" unicode="&#x455;" horiz-adv-x="782" 
d="M782 367h86c-106 -123 -217 -201 -313 -256c-86 -91 -217 -123 -322 -123c-206 0 -299 137 -299 262c0 96 54 164 109 190c115 205 188 404 252 607l303 40c23 -532 45 -608 45 -745c0 -31 -2 -55 -8 -78c59 35 108 68 147 103zM43 293c0 -96 35 -143 125 -143
s178 47 178 190c0 106 -16 170 -39 485c-41 -133 -98 -256 -166 -387c27 -14 47 -37 47 -71c0 -50 -34 -101 -90 -101c-22 0 -45 4 -55 27z" />
    <glyph glyph-name="afii10103" unicode="&#x456;" horiz-adv-x="547" 
d="M506 1296c0 -90 -74 -161 -164 -161s-162 71 -162 161s72 164 162 164s164 -74 164 -164zM547 367h86c-115 -334 -322 -379 -430 -379c-123 0 -219 73 -219 245c0 37 6 82 16 134l139 657h295l-147 -696c-6 -23 -8 -45 -8 -66c0 -57 26 -76 83 -76c80 0 154 76 185 181z
" />
    <glyph glyph-name="afii10104" unicode="&#x457;" horiz-adv-x="547" 
d="M547 367h86c-115 -334 -322 -379 -430 -379c-123 0 -219 73 -219 245c0 37 6 82 16 134l139 657h295l-147 -696c-6 -23 -8 -45 -8 -66c0 -57 26 -76 83 -76c80 0 154 76 185 181zM283 1298c0 -71 -58 -124 -125 -124c-72 0 -125 53 -125 124c0 68 53 125 125 125
c67 0 125 -57 125 -125zM651 1298c0 -71 -57 -124 -125 -124c-71 0 -125 53 -125 124c0 68 54 125 125 125c68 0 125 -57 125 -125z" />
    <glyph glyph-name="afii10105" unicode="&#x458;" horiz-adv-x="492" 
d="M215 -16l-31 -148c-59 -293 -233 -348 -368 -348c-125 0 -230 66 -230 199c0 170 181 256 336 305l219 1032h295l-203 -950c125 43 201 114 259 293h86c-82 -271 -236 -351 -363 -383zM489 1298c0 -90 -73 -161 -163 -161s-162 71 -162 161c0 91 72 164 162 164
s163 -73 163 -164zM-113 -170l13 59c-107 -39 -201 -92 -201 -174c0 -30 22 -67 70 -67c43 0 92 59 118 182z" />
    <glyph glyph-name="afii10106" unicode="&#x459;" horiz-adv-x="1526" 
d="M627 367l114 522c-143 0 -196 -113 -258 -393c-69 -326 -108 -508 -336 -508c-159 0 -225 116 -225 231c0 96 47 164 127 164c64 0 107 -43 107 -107c0 -67 -39 -100 -82 -94c2 -30 16 -65 80 -65c133 0 153 190 198 399c88 426 209 508 393 508h302l-72 -332
c96 39 149 41 205 41c163 0 264 -100 264 -272s-146 -473 -531 -473c-186 0 -301 98 -301 262c0 39 4 78 15 117zM944 545l-51 -242c-6 -16 -6 -43 -6 -57c0 -56 28 -84 88 -84c106 0 201 164 201 287c0 79 -37 133 -111 133c-29 0 -96 -19 -121 -37z" />
    <glyph glyph-name="afii10107" unicode="&#x45a;" horiz-adv-x="1421" 
d="M217 0h-295l217 1024h295l-88 -410h232l90 410h274l-72 -332c97 39 150 41 205 41c164 0 264 -100 264 -272s-145 -473 -530 -473c-186 0 -301 98 -301 262c0 39 4 78 14 117l27 125h-227zM840 545l-52 -242c-6 -16 -6 -43 -6 -57c0 -56 29 -84 88 -84
c107 0 201 164 201 287c0 79 -37 133 -110 133c-29 0 -97 -19 -121 -37z" />
    <glyph glyph-name="afii10108" unicode="&#x45b;" 
d="M1034 367h86c-114 -336 -272 -379 -381 -379c-180 0 -241 114 -241 231c0 121 63 291 63 381c0 70 -24 105 -74 105c-73 0 -139 -84 -161 -189l-109 -516h-295l217 1024h-110l22 111h113l55 258l303 41l-63 -299h256l-25 -111h-256l-53 -248c88 98 178 115 242 115
c131 0 227 -68 227 -232c0 -124 -70 -282 -70 -387c0 -51 19 -86 82 -86c88 0 129 74 172 181z" />
    <glyph glyph-name="afii10109" unicode="&#x45c;" horiz-adv-x="1026" 
d="M1026 367h86c-86 -252 -211 -379 -373 -379c-166 0 -247 88 -247 227c0 68 24 147 24 195c0 65 -27 98 -78 98c-39 0 -67 -25 -131 -76l-90 -432h-295l219 1024h295l-88 -406c291 291 352 424 512 424c96 0 141 -59 141 -135c0 -82 -47 -133 -129 -133
c-81 0 -114 57 -112 105c-92 -56 -156 -148 -242 -234c31 6 62 8 86 8c148 0 195 -67 195 -190c0 -64 -25 -129 -25 -201c0 -51 27 -76 82 -76c82 0 115 56 170 181zM629 1149h-154l187 387h215z" />
    <glyph glyph-name="section" unicode="&#xa7;" horiz-adv-x="1110" 
d="M799 279v-7c0 -235 -164 -383 -445 -383c-121 0 -338 29 -338 269c0 149 84 252 197 252c82 0 127 -56 162 -103c-123 -10 -166 -51 -166 -155c0 -107 45 -160 168 -160c100 0 164 59 164 198c0 334 -369 361 -369 625c0 131 90 234 213 281c-6 30 -10 59 -10 86
c0 243 227 354 434 354c76 0 266 -14 266 -195c0 -96 -51 -165 -135 -165c-25 0 -51 6 -76 32c47 27 74 86 74 142c0 57 -35 110 -115 110c-110 0 -192 -104 -192 -219c0 -254 405 -283 405 -620c0 -158 -84 -310 -237 -342zM786 375c27 33 39 76 39 129
c0 237 -276 305 -397 491c-22 -14 -39 -32 -39 -71c0 -170 332 -262 397 -549z" />
    <glyph glyph-name="afii10110" unicode="&#x45e;" horiz-adv-x="995" 
d="M719 -16l-31 -148c-59 -293 -233 -348 -369 -348c-124 0 -229 66 -229 199c0 172 180 256 334 305l25 110c-89 -96 -175 -114 -246 -114c-123 0 -219 73 -219 245c0 37 6 82 16 134l139 657h295l-147 -696c-4 -17 -6 -33 -6 -52c0 -47 14 -90 61 -90c76 0 137 70 160 168
l143 670h295l-203 -950c125 43 201 114 258 293h86c-82 -271 -235 -351 -362 -383zM879 1473h86c-93 -271 -240 -349 -433 -349c-170 0 -266 68 -266 176c0 89 53 150 137 150c80 0 127 -39 127 -111c0 -16 -2 -67 -49 -98c21 -6 47 -8 82 -8c115 0 244 53 316 240z
M391 -170l12 59c-106 -39 -200 -92 -200 -174c0 -30 22 -67 69 -67c43 0 93 59 119 182z" />
    <glyph glyph-name="afii10193" unicode="&#x45f;" 
d="M1034 367h86c-114 -334 -303 -379 -411 -379c-117 0 -189 65 -203 194c-103 -168 -217 -194 -303 -194c-123 0 -219 73 -219 245c0 37 6 82 16 134l139 657h295l-147 -696c-4 -21 -6 -39 -6 -58c0 -47 14 -84 61 -84c80 0 133 76 164 181l139 657h295l-147 -696
c-7 -23 -9 -45 -9 -66c0 -57 27 -76 84 -76c80 0 136 76 166 181zM485 -512h-104c16 16 27 45 27 63c0 80 -99 99 -99 220c0 79 37 157 109 229h104c-16 -16 -26 -43 -26 -61c0 -68 100 -111 100 -230c-2 -76 -47 -153 -111 -221z" />
    <glyph glyph-name="A.salt" horiz-adv-x="1208" 
d="M940 0h-295l158 750h-324c-131 -316 -217 -670 -217 -867c0 -104 29 -98 29 -114c-141 6 -275 12 -275 229c0 387 594 1540 1082 1540c49 0 114 -10 164 -29l-2 -2h2zM825 856l115 541c-149 -66 -295 -283 -416 -541h301z" />
    <glyph glyph-name="AE" unicode="&#xc6;" horiz-adv-x="1565" 
d="M1556 0h-755l157 743c-104 48 -188 68 -276 74c-152 -332 -264 -719 -264 -934c0 -104 28 -98 28 -114c-141 6 -274 12 -274 229c0 174 121 508 301 819c-123 -8 -209 -33 -240 -106c11 0 27 -33 27 -64c0 -43 -37 -80 -125 -80c-59 0 -117 37 -117 129
c0 125 189 236 400 236c35 0 76 -2 121 -6c206 331 473 612 714 612c113 0 226 -41 369 -41c72 0 150 8 240 39c-29 -90 -52 -225 -220 -225c-104 0 -174 35 -253 65l-111 -518h317l-41 -151h-309l-104 -490h458zM977 834l119 557c-125 -68 -258 -256 -373 -488
c88 -16 174 -39 254 -69z" />
    <glyph glyph-name="Aacute" unicode="&#xc1;" horiz-adv-x="1368" 
d="M1096 0h-295l157 743c-104 48 -184 66 -274 74c-154 -334 -266 -723 -266 -936c0 -65 14 -96 28 -114c-108 0 -274 4 -274 217c0 182 121 520 301 833c-129 -8 -213 -35 -240 -106c11 0 27 -33 27 -64c0 -49 -51 -80 -115 -80c-71 0 -127 39 -127 119
c0 139 179 252 418 252c27 0 64 -2 107 -6c207 328 473 604 712 604c48 0 113 -6 162 -29zM977 834l119 557c-123 -66 -254 -256 -369 -486c82 -16 170 -39 250 -71zM1329 1661h-154l187 387h215z" />
    <glyph glyph-name="Acircumflex" unicode="&#xc2;" horiz-adv-x="1368" 
d="M1096 0h-295l157 743c-104 48 -184 66 -274 74c-154 -334 -266 -723 -266 -936c0 -65 14 -96 28 -114c-108 0 -274 4 -274 217c0 182 121 520 301 833c-129 -8 -213 -35 -240 -106c11 0 27 -33 27 -64c0 -49 -51 -80 -115 -80c-71 0 -127 39 -127 119
c0 139 179 252 418 252c27 0 64 -2 107 -6c207 328 473 604 712 604c48 0 113 -6 162 -29zM977 834l119 557c-123 -66 -254 -256 -369 -486c82 -16 170 -39 250 -71zM1564 1661h-66l-123 164l-321 -164h-90l434 387h43z" />
    <glyph glyph-name="Adieresis" unicode="&#xc4;" horiz-adv-x="1368" 
d="M1096 0h-295l157 743c-104 48 -184 66 -274 74c-154 -334 -266 -723 -266 -936c0 -65 14 -96 28 -114c-108 0 -274 4 -274 217c0 182 121 520 301 833c-129 -8 -213 -35 -240 -106c11 0 27 -33 27 -64c0 -49 -51 -80 -115 -80c-71 0 -127 39 -127 119
c0 139 179 252 418 252c27 0 64 -2 107 -6c207 328 473 604 712 604c48 0 113 -6 162 -29zM977 834l119 557c-123 -66 -254 -256 -369 -486c82 -16 170 -39 250 -71zM1056 1686c-72 0 -125 53 -125 124c0 68 53 125 125 125c67 0 124 -57 124 -125c0 -71 -57 -124 -124 -124
zM1549 1810c0 -71 -57 -124 -125 -124c-71 0 -125 53 -125 124c0 68 54 125 125 125c68 0 125 -57 125 -125z" />
    <glyph glyph-name="Agrave" unicode="&#xc0;" horiz-adv-x="1368" 
d="M1096 0h-295l157 743c-104 48 -184 66 -274 74c-154 -334 -266 -723 -266 -936c0 -65 14 -96 28 -114c-108 0 -274 4 -274 217c0 182 121 520 301 833c-129 -8 -213 -35 -240 -106c11 0 27 -33 27 -64c0 -49 -51 -80 -115 -80c-71 0 -127 39 -127 119
c0 139 179 252 418 252c27 0 64 -2 107 -6c207 328 473 604 712 604c48 0 113 -6 162 -29zM977 834l119 557c-123 -66 -254 -256 -369 -486c82 -16 170 -39 250 -71zM1269 1661h-153l-121 387h215z" />
    <glyph glyph-name="Aogonek" unicode="&#x104;" horiz-adv-x="1368" 
d="M1096 0h-76c-55 -31 -111 -100 -111 -172c0 -47 23 -102 80 -102c49 0 98 43 139 69c-2 -24 -4 -39 -4 -63c-47 -47 -120 -127 -223 -127c-113 0 -162 88 -162 159c0 72 49 158 146 236h-84l157 743c-104 48 -184 66 -274 74c-154 -334 -266 -723 -266 -936
c0 -65 14 -96 28 -114c-108 0 -274 4 -274 217c0 182 121 520 301 833c-129 -8 -213 -35 -240 -106c11 0 27 -33 27 -64c0 -49 -51 -80 -115 -80c-71 0 -127 39 -127 119c0 139 179 252 418 252c27 0 64 -2 107 -6c207 328 473 604 712 604c48 0 113 -6 162 -29zM977 834
l119 557c-123 -66 -254 -256 -369 -486c82 -16 170 -39 250 -71z" />
    <glyph glyph-name="Aring" unicode="&#xc5;" horiz-adv-x="1368" 
d="M1096 0h-295l157 743c-104 48 -184 66 -274 74c-154 -334 -266 -723 -266 -936c0 -65 14 -96 28 -114c-108 0 -274 4 -274 217c0 182 121 520 301 833c-129 -8 -213 -35 -240 -106c11 0 27 -33 27 -64c0 -49 -51 -80 -115 -80c-71 0 -127 39 -127 119
c0 139 179 252 418 252c27 0 64 -2 107 -6c207 328 473 604 712 604c48 0 113 -6 162 -29zM977 834l119 557c-123 -66 -254 -256 -369 -486c82 -16 170 -39 250 -71zM1405 1815c0 -91 -49 -173 -178 -173c-88 0 -144 64 -144 144c0 74 51 186 174 186
c101 0 148 -69 148 -157zM1329 1808c0 41 -2 97 -68 97c-71 0 -96 -64 -96 -115c0 -47 21 -76 70 -76c63 0 94 37 94 94z" />
    </font>
</defs>
</svg>
